<svg id="dazn" xmlns="http://www.w3.org/2000/svg" xmlns:xlink="http://www.w3.org/1999/xlink" width="129.226" height="78.002" viewBox="0 0 129.226 78.002">
  <defs>
    <clipPath id="clip-path">
      <rect id="Rect치ngulo_23152" data-name="Rect치ngulo 23152" width="56.308" height="56.308" fill="none"/>
    </clipPath>
  </defs>
  <rect id="Rect치ngulo_18532" data-name="Rect치ngulo 18532" width="129.226" height="78.002" rx="5" fill="none"/>
  <g id="Grupo_37565" data-name="Grupo 37565" transform="translate(36 11)">
    <g id="Grupo_37564" data-name="Grupo 37564" transform="translate(0 0)" clip-path="url(#clip-path)">
      <path id="Trazado_91090" data-name="Trazado 91090" d="M24.8,12.517a5.216,5.216,0,0,0-2.117-2.329A6.824,6.824,0,0,0,19.3,9.433H14.759a1.23,1.23,0,0,0-.765.166.908.908,0,0,0-.188.677V24.388a.9.9,0,0,0,.188.677,1.229,1.229,0,0,0,.765.166h5.1A4.914,4.914,0,0,0,24.8,22.147a6.1,6.1,0,0,0,.432-1.432,11.3,11.3,0,0,0,.122-1.829v-3a12.781,12.781,0,0,0-.122-2,5.068,5.068,0,0,0-.432-1.376M21.632,18.93a7.953,7.953,0,0,1-.122,1.521,2.466,2.466,0,0,1-.4.988,1.489,1.489,0,0,1-.732.533,3.515,3.515,0,0,1-1.12.155H17.442V12.539H19.26a2.122,2.122,0,0,1,1.818.744,4.184,4.184,0,0,1,.554,2.452Zm2.9,23.535H18.3l6.564-9.229a1.561,1.561,0,0,0,.2-.356.972.972,0,0,0,.044-.311V30.794a.906.906,0,0,0-.189-.677,1.238,1.238,0,0,0-.768-.166H14.675a.868.868,0,0,0-.667.188,1.346,1.346,0,0,0-.156.789v1.331a1.339,1.339,0,0,0,.156.787.86.86,0,0,0,.667.19h5.851l-6.474,9.229a1,1,0,0,0-.245.621v1.82a.9.9,0,0,0,.189.677,1.236,1.236,0,0,0,.768.166h9.771a.871.871,0,0,0,.668-.188,1.352,1.352,0,0,0,.156-.789V43.441a1.349,1.349,0,0,0-.156-.787.863.863,0,0,0-.668-.19M55.182,0H0V24.4l3.188,3.188L0,30.78v24.4H55.182V30.78l-3.188-3.188L55.182,24.4ZM47.9,28.615l3.828,3.828v19.28H3.459V32.44l3.825-3.825a1.448,1.448,0,0,0,0-2.048L3.459,22.743V3.459H51.723v19.28L47.9,26.567a1.448,1.448,0,0,0,0,2.048m-7.365,1.336H39.044a1.229,1.229,0,0,0-.765.166.907.907,0,0,0-.188.677v8.364L33.7,30.772a1.576,1.576,0,0,0-.521-.677,1.981,1.981,0,0,0-.9-.144H30.907a1.23,1.23,0,0,0-.765.166.907.907,0,0,0-.189.677V44.906a.938.938,0,0,0,.178.677,1.174,1.174,0,0,0,.754.166h1.509a1.228,1.228,0,0,0,.764-.166.9.9,0,0,0,.188-.677V36.518l4.39,8.409a1.568,1.568,0,0,0,.521.677,1.955,1.955,0,0,0,.9.145h1.375a1.231,1.231,0,0,0,.765-.166.9.9,0,0,0,.188-.677V30.794a.908.908,0,0,0-.188-.677,1.232,1.232,0,0,0-.765-.166m2.286-5.673L38.16,10.188a1.235,1.235,0,0,0-.354-.61,1.124,1.124,0,0,0-.643-.144H34.59a1.111,1.111,0,0,0-.654.155,1.126,1.126,0,0,0-.344.6l-4.7,14.09a.755.755,0,0,0-.088.442c0,.341.207.511.621.511h1.929a3.459,3.459,0,0,0,.432-.022.483.483,0,0,0,.266-.112.758.758,0,0,0,.178-.265,4.872,4.872,0,0,0,.166-.466l.732-2.463h5.3l.753,2.418a2.969,2.969,0,0,0,.178.489.925.925,0,0,0,.2.276.488.488,0,0,0,.266.123,2.975,2.975,0,0,0,.4.022h2.062c.413,0,.621-.17.621-.511a1.291,1.291,0,0,0-.011-.209,2.052,2.052,0,0,0-.078-.233m-8.847-5.215,1.774-5.97,1.818,5.97Z" transform="translate(0 0.377)" fill="#f9fafa"/>
    </g>
  </g>
</svg>
