<svg xmlns="http://www.w3.org/2000/svg" xmlns:xlink="http://www.w3.org/1999/xlink" width="457.899" height="133.693" viewBox="0 0 457.899 133.693">
  <defs>
    <linearGradient id="linear-gradient" x1="0.5" y1="0.146" x2="0.5" y2="0.716" gradientUnits="objectBoundingBox">
      <stop offset="0" stop-color="#ea5d10"/>
      <stop offset="0.75" stop-color="#f08402"/>
      <stop offset="0.993" stop-color="#f29100"/>
    </linearGradient>
    <linearGradient id="linear-gradient-2" y1="-0.159" y2="0.615" xlink:href="#linear-gradient"/>
    <linearGradient id="linear-gradient-4" x1="0.5" y1="0.365" x2="0.5" y2="1.196" gradientUnits="objectBoundingBox">
      <stop offset="0" stop-color="#f6f7f7"/>
      <stop offset="1" stop-color="#b1afb1"/>
    </linearGradient>
    <linearGradient id="linear-gradient-5" x1="0.5" y1="0.367" x2="0.5" y2="1.183" xlink:href="#linear-gradient-4"/>
    <linearGradient id="linear-gradient-6" x1="0.5" y1="0.369" x2="0.5" y2="1.19" xlink:href="#linear-gradient-4"/>
  </defs>
  <g id="logo_mvshub_Mesa_de_trabajo_1" data-name="logo_mvshub_Mesa de trabajo 1" transform="translate(-140.352 -66.837)">
    <g id="Grupo_49903" data-name="Grupo 49903" transform="translate(140.352 66.837)">
      <g id="Grupo_49900" data-name="Grupo 49900" transform="translate(72.048 107.593)">
        <g id="Grupo_49899" data-name="Grupo 49899">
          <path id="Trazado_107745" data-name="Trazado 107745" d="M190.719,161.024V145.882h2.956l.447,2.192a6.435,6.435,0,0,1,4.888-2.192,3.974,3.974,0,0,1,3.908,2.077,7.228,7.228,0,0,1,4.86-2.077q5.22,0,5.22,5.754v9.388h-3.821v-9.531q0-2.524-2.279-2.524a4.691,4.691,0,0,0-3.273,1.529v10.526H199.8v-9.488q0-2.568-2.106-2.568a4.386,4.386,0,0,0-3.158,1.529v10.526Z" transform="translate(-190.719 -140.403)" fill="#f29100"/>
          <path id="Trazado_107746" data-name="Trazado 107746" d="M207.484,153.466q0-7.613,7.5-7.613t7.5,7.613q0,7.6-7.5,7.6Q207.512,161.065,207.484,153.466Zm7.5,4.687q3.677,0,3.677-4.745,0-4.629-3.677-4.628t-3.677,4.628Q211.305,158.153,214.982,158.153Z" transform="translate(-183.503 -140.416)" fill="#f29100"/>
          <path id="Trazado_107747" data-name="Trazado 107747" d="M217.9,145.882h4.038l3.677,10.584,3.821-10.584h4.037l-6.157,15.141H223.68Z" transform="translate(-179.02 -140.403)" fill="#f29100"/>
          <path id="Trazado_107748" data-name="Trazado 107748" d="M233.04,142.052v3.028h-3.821v-3.028Zm0,5.479v15.141h-3.821V147.531Z" transform="translate(-174.146 -142.052)" fill="#f29100"/>
          <path id="Trazado_107749" data-name="Trazado 107749" d="M240.19,145.882q6.892,0,6.892,7.037a13.6,13.6,0,0,1-.13,1.875H236.9q0,3.2,4.7,3.2a24.713,24.713,0,0,0,4.585-.433v3.028a23.51,23.51,0,0,1-4.873.433q-8.234,0-8.234-7.743Q233.08,145.883,240.19,145.882Zm-3.288,6.258h6.46v-.116q0-3.142-3.172-3.143Q237.161,148.882,236.9,152.141Z" transform="translate(-172.484 -140.403)" fill="#f29100"/>
          <path id="Trazado_107750" data-name="Trazado 107750" d="M244.266,160.346v-3.173a15.6,15.6,0,0,0,5.825,1.01q2.466,0,2.466-1.587,0-1.515-1.658-1.514h-2.74q-4.615,0-4.614-4.543,0-4.759,6.734-4.758a16.462,16.462,0,0,1,5.379.865v3.173a14.616,14.616,0,0,0-5.479-1.01q-3.1,0-3.1,1.586,0,1.515,1.8,1.515h2.451q5.047,0,5.047,4.542,0,4.759-6.431,4.759A17.472,17.472,0,0,1,244.266,160.346Z" transform="translate(-167.98 -140.447)" fill="#f29100"/>
          <path id="Trazado_107751" data-name="Trazado 107751" d="M261.775,145.882h4.038l3.677,10.584,3.821-10.584h4.037l-6.157,15.141h-3.634Z" transform="translate(-160.132 -140.403)" fill="#f29100"/>
          <path id="Trazado_107752" data-name="Trazado 107752" d="M276.918,142.052v3.028H273.1v-3.028Zm0,5.479v15.141H273.1V147.531Z" transform="translate(-155.259 -142.052)" fill="#f29100"/>
          <path id="Trazado_107753" data-name="Trazado 107753" d="M291.09,161.764a26.775,26.775,0,0,1-6.792.909q-7.34,0-7.34-7.873,0-7.268,7.181-7.268a7.582,7.582,0,0,1,3.129.722v-6.2h3.821Zm-3.821-10.282a5.3,5.3,0,0,0-2.97-.778q-3.562,0-3.562,3.994,0,4.745,3.706,4.744a9.347,9.347,0,0,0,2.826-.418Z" transform="translate(-153.596 -142.052)" fill="#f29100"/>
          <path id="Trazado_107754" data-name="Trazado 107754" d="M295.136,145.882q6.892,0,6.892,7.037a13.61,13.61,0,0,1-.129,1.875h-10.05q0,3.2,4.7,3.2a24.712,24.712,0,0,0,4.585-.433v3.028a23.51,23.51,0,0,1-4.874.433q-8.234,0-8.234-7.743Q288.027,145.883,295.136,145.882Zm-3.288,6.258h6.46v-.116q0-3.142-3.172-3.143Q292.108,148.882,291.849,152.141Z" transform="translate(-148.832 -140.403)" fill="#f29100"/>
          <path id="Trazado_107755" data-name="Trazado 107755" d="M298.492,153.466q0-7.613,7.5-7.613t7.5,7.613q0,7.6-7.5,7.6Q298.522,161.065,298.492,153.466Zm7.5,4.687q3.679,0,3.677-4.745,0-4.629-3.677-4.628t-3.675,4.628Q302.314,158.153,305.989,158.153Z" transform="translate(-144.327 -140.416)" fill="#f29100"/>
          <path id="Trazado_107756" data-name="Trazado 107756" d="M319.455,160.346v-3.173a15.6,15.6,0,0,0,5.826,1.01q2.465,0,2.465-1.587,0-1.515-1.658-1.514h-2.74q-4.615,0-4.614-4.543,0-4.759,6.733-4.758a16.465,16.465,0,0,1,5.379.865v3.173a14.62,14.62,0,0,0-5.48-1.01q-3.1,0-3.1,1.586,0,1.515,1.8,1.515h2.452q5.047,0,5.046,4.542,0,4.759-6.431,4.759A17.471,17.471,0,0,1,319.455,160.346Z" transform="translate(-135.613 -140.447)" fill="#f29100"/>
          <path id="Trazado_107757" data-name="Trazado 107757" d="M328.593,144.169h2.827L332,146.62H335.8v3.029h-3.388v6.965q0,2.119,1.831,2.12H335.8v3.028h-3.4q-3.806,0-3.807-4.081Z" transform="translate(-131.369 -141.141)" fill="#f29100"/>
          <path id="Trazado_107758" data-name="Trazado 107758" d="M334.623,161.024V145.882h2.956l.476,1.933a6,6,0,0,1,4.211-1.933v3.086a5.157,5.157,0,0,0-3.822,1.774v10.282Z" transform="translate(-128.774 -140.403)" fill="#f29100"/>
          <path id="Trazado_107759" data-name="Trazado 107759" d="M347.256,145.882q6.893,0,6.893,7.037a13.63,13.63,0,0,1-.13,1.875h-10.05q0,3.2,4.7,3.2a24.717,24.717,0,0,0,4.586-.433v3.028a23.517,23.517,0,0,1-4.874.433q-8.234,0-8.233-7.743Q340.148,145.883,347.256,145.882Zm-3.287,6.258h6.46v-.116q0-3.142-3.173-3.143Q344.229,148.882,343.969,152.141Z" transform="translate(-126.395 -140.403)" fill="#f29100"/>
          <path id="Trazado_107760" data-name="Trazado 107760" d="M350.612,156.309q0-4.514,6.575-4.514a16.791,16.791,0,0,1,3.086.288v-1.139q0-2.033-2.928-2.033a23.944,23.944,0,0,0-5.508.721V146.6a23.95,23.95,0,0,1,5.508-.722q6.749,0,6.749,4.99v10.152h-2.221l-1.356-1.356a7.535,7.535,0,0,1-4.355,1.356Q350.612,161.024,350.612,156.309Zm6.575-1.918q-2.755,0-2.754,1.875,0,2.019,2.307,2.018a5.892,5.892,0,0,0,3.533-1.182v-2.423A15.751,15.751,0,0,0,357.188,154.39Z" transform="translate(-121.891 -140.403)" fill="#f29100"/>
          <path id="Trazado_107761" data-name="Trazado 107761" d="M361.731,161.024V145.882h2.956l.447,2.192a6.434,6.434,0,0,1,4.888-2.192,3.974,3.974,0,0,1,3.908,2.077,7.228,7.228,0,0,1,4.86-2.077q5.22,0,5.22,5.754v9.388h-3.821v-9.531q0-2.524-2.278-2.524a4.686,4.686,0,0,0-3.273,1.529v10.526h-3.822v-9.488q0-2.568-2.105-2.568a4.386,4.386,0,0,0-3.158,1.529v10.526Z" transform="translate(-117.105 -140.403)" fill="#f29100"/>
          <path id="Trazado_107762" data-name="Trazado 107762" d="M382.821,142.052v3.028H379v-3.028Zm0,5.479v15.141H379V147.531Z" transform="translate(-109.671 -142.052)" fill="#f29100"/>
          <path id="Trazado_107763" data-name="Trazado 107763" d="M383.366,161.024V145.882h2.956l.476,2.221a6.776,6.776,0,0,1,4.961-2.221q5.378,0,5.379,5.6v9.546h-3.822v-9.546a2.212,2.212,0,0,0-2.494-2.51,5.634,5.634,0,0,0-3.634,1.486v10.57Z" transform="translate(-107.792 -140.403)" fill="#f29100"/>
          <path id="Trazado_107764" data-name="Trazado 107764" d="M408.415,159.87q0,6.633-7.974,6.633a15.652,15.652,0,0,1-4.96-.722v-3.028a16.008,16.008,0,0,0,4.989.721q4.124,0,4.124-3.461a9.286,9.286,0,0,1-3.663.722q-6.749,0-6.748-7.369,0-7.483,7.859-7.484a39.914,39.914,0,0,1,6.373.62Zm-3.821-10.555a8.016,8.016,0,0,0-2.668-.347q-3.966,0-3.966,4.369,0,4.226,3.417,4.226a7.178,7.178,0,0,0,3.216-.778Z" transform="translate(-103.135 -140.403)" fill="#f29100"/>
        </g>
        <rect id="Rect치ngulo_28409" data-name="Rect치ngulo 28409" width="1.178" height="18.542" transform="translate(94.491 2.427)" fill="#fff"/>
        <rect id="Rect치ngulo_28410" data-name="Rect치ngulo 28410" width="1.178" height="18.542" transform="translate(175.439 2.427)" fill="#fff"/>
      </g>
      <g id="Grupo_49902" data-name="Grupo 49902">
        <g id="Grupo_49901" data-name="Grupo 49901" transform="translate(244.301)">
          <path id="Trazado_107765" data-name="Trazado 107765" d="M311.137,160.462V66.837h17.35V100.49q8.117-8.773,20.755-8.773,24.42,0,24.421,25.4v43.343h-17.35V117.12q0-11.392-11.326-11.392-8.446,0-16.5,6.744v47.991Z" transform="translate(-311.137 -66.837)" fill="url(#linear-gradient)"/>
          <path id="Trazado_107766" data-name="Trazado 107766" d="M422.537,84.073v68.969H408.984l-2.1-8.773q-11.851,8.774-25.141,8.773-21.083,0-21.082-24.945V84.073h17.35v43.566q0,11.392,9.952,11.392,8.446,0,17.219-6.744V84.073Z" transform="translate(-289.817 -59.417)" fill="url(#linear-gradient-2)"/>
          <path id="Trazado_107767" data-name="Trazado 107767" d="M409.737,66.837h17.351V96.954a30.412,30.412,0,0,1,17.35-5.238q29.332,0,29.332,33,0,35.748-33.587,35.748a179.465,179.465,0,0,1-30.445-2.815Zm17.351,77.716a45.526,45.526,0,0,0,13.815,1.9q15.712,0,15.712-22.2,0-18.135-13.552-18.136a35.753,35.753,0,0,0-15.976,3.535Z" transform="translate(-268.694 -66.837)" fill="url(#linear-gradient)"/>
        </g>
        <path id="Trazado_107768" data-name="Trazado 107768" d="M249.229,132.13l-16.7-48.057H214.2l26.254,68.746h16.5l27.957-68.746H266.579Z" transform="translate(-108.563 -59.417)" fill="url(#linear-gradient-4)"/>
        <path id="Trazado_107769" data-name="Trazado 107769" d="M300.037,111.441h-11.13a10.705,10.705,0,0,1-5.243-1.1q-2.941-1.651-2.941-5.772,0-3.944,4.221-5.728,3.487-1.474,9.856-1.474a66.653,66.653,0,0,1,24.112,4.282q.385.148.767.3v-14.4a74.784,74.784,0,0,0-24.421-3.928,54.873,54.873,0,0,0-15.325,1.864,25.213,25.213,0,0,0-7.942,3.78,17.037,17.037,0,0,0-5.481,6.69,19.28,19.28,0,0,0-1.37,4.313,25.643,25.643,0,0,0-.457,4.959,32.023,32.023,0,0,0,.535,6.067,18.6,18.6,0,0,0,3.2,7.676,15.485,15.485,0,0,0,6.859,5.16,23.21,23.21,0,0,0,5.2,1.362,34.96,34.96,0,0,0,5.158.358h12.44a10.144,10.144,0,0,1,4.133.742,5.272,5.272,0,0,1,2.547,2.291,7.853,7.853,0,0,1,.849,3.842,6.2,6.2,0,0,1-1.517,4.327,8.544,8.544,0,0,1-4.552,2.374,23.059,23.059,0,0,1-5.127.5q-4.171,0-8.069-.355a72.567,72.567,0,0,1-9.292-1.436,59.414,59.414,0,0,1-9.09-2.793v14.4a79.243,79.243,0,0,0,25.8,3.929q29.2,0,29.2-21.606a30.821,30.821,0,0,0-.362-4.857,20.681,20.681,0,0,0-1.708-5.677,15.691,15.691,0,0,0-7.019-7.263Q308.521,111.441,300.037,111.441Z" transform="translate(-86.833 -59.614)" fill="url(#linear-gradient-5)"/>
        <path id="Trazado_107770" data-name="Trazado 107770" d="M192.89,94.341l.229-.257a32.981,32.981,0,0,1,9.876-7.7,27.085,27.085,0,0,1,11.8-2.771,29.116,29.116,0,0,1,21.536,9.853c5.761,6.62,8.916,12.968,8.916,22.051v37.72H228.1V115.52c0-8.16-6.173-15.4-13.306-15.4-7.407,0-13.443,7.082-13.443,15.4v37.72h-17.1V115.52c0-8.314-6.036-15.4-13.443-15.4-7.133,0-13.306,7.236-13.306,15.4v37.72H140.352V115.52c0-9.083,3.155-15.431,8.916-22.051A29.116,29.116,0,0,1,170.8,83.615a27.084,27.084,0,0,1,11.8,2.771,32.981,32.981,0,0,1,9.877,7.7l.229.257.09.1Z" transform="translate(-140.352 -59.614)" fill="url(#linear-gradient-6)"/>
      </g>
    </g>
    <g id="Grupo_49904" data-name="Grupo 49904" transform="translate(590.147 91.809)">
      <path id="Trazado_107771" data-name="Trazado 107771" d="M454.792,88.346a3.883,3.883,0,0,1,.321-1.574,4.122,4.122,0,0,1,2.157-2.157,4.019,4.019,0,0,1,3.148,0,4.121,4.121,0,0,1,2.157,2.157,4.019,4.019,0,0,1,0,3.148,4.121,4.121,0,0,1-2.157,2.157,4.018,4.018,0,0,1-3.148,0,4.122,4.122,0,0,1-2.157-2.157A3.884,3.884,0,0,1,454.792,88.346Zm.588,0a3.37,3.37,0,0,0,.273,1.351,3.459,3.459,0,0,0,1.841,1.841,3.482,3.482,0,0,0,2.7,0,3.458,3.458,0,0,0,1.841-1.841,3.48,3.48,0,0,0,0-2.7,3.462,3.462,0,0,0-1.841-1.841,3.49,3.49,0,0,0-2.7,0A3.463,3.463,0,0,0,455.653,87,3.367,3.367,0,0,0,455.38,88.346Zm2.582,2.32h-.589V85.993h1.8a1.586,1.586,0,0,1,1.133.332,1.3,1.3,0,0,1,.338.964,1.489,1.489,0,0,1-.093.555,1.12,1.12,0,0,1-.256.387,1.268,1.268,0,0,1-.376.251,2.055,2.055,0,0,1-.452.136l1.394,2.048h-.665L458.8,88.619h-.838Zm0-2.57h.751q.24,0,.479-.017a1.314,1.314,0,0,0,.43-.1.764.764,0,0,0,.311-.24.735.735,0,0,0,.119-.452.659.659,0,0,0-.332-.61,1.074,1.074,0,0,0-.338-.125,1.906,1.906,0,0,0-.376-.038h-1.045Z" transform="translate(-454.792 -84.294)" fill="#f29100"/>
    </g>
  </g>
</svg>
