<svg xmlns="http://www.w3.org/2000/svg" xmlns:xlink="http://www.w3.org/1999/xlink" width="462.925" height="194.35" viewBox="0 0 462.925 194.35">
  <defs>
    <linearGradient id="linear-gradient" x1="0.5" y1="0.146" x2="0.5" y2="0.716" gradientUnits="objectBoundingBox">
      <stop offset="0" stop-color="#eb4e16"/>
      <stop offset="0.955" stop-color="#f57b0f"/>
      <stop offset="0.993" stop-color="#f67d0f"/>
    </linearGradient>
    <linearGradient id="linear-gradient-2" x1="0.5" y1="-0.159" x2="0.5" y2="0.615" xlink:href="#linear-gradient"/>
    <linearGradient id="linear-gradient-4" x1="0.5" y1="0.365" x2="0.5" y2="1.196" gradientUnits="objectBoundingBox">
      <stop offset="0" stop-color="#edeeed"/>
      <stop offset="1" stop-color="#96989c"/>
    </linearGradient>
    <linearGradient id="linear-gradient-5" x1="0.5" y1="0.367" x2="0.5" y2="1.183" xlink:href="#linear-gradient-4"/>
    <linearGradient id="linear-gradient-6" x1="0.5" y1="0.369" x2="0.5" y2="1.19" xlink:href="#linear-gradient-4"/>
    <linearGradient id="linear-gradient-7" x1="0.5" y1="-0.28" x2="0.5" y2="1.215" xlink:href="#linear-gradient"/>
    <linearGradient id="linear-gradient-8" x1="0.5" y1="-0.243" x2="0.5" y2="1.181" xlink:href="#linear-gradient"/>
  </defs>
  <g id="logo_completo" data-name="logo completo" transform="translate(-261.117 -131.816)">
    <g id="Grupo_32938" data-name="Grupo 32938" transform="translate(261.117 131.816)">
      <g id="Grupo_2" data-name="Grupo 2" transform="translate(74.22 110.836)">
        <g id="Grupo_1" data-name="Grupo 1">
          <path id="Trazado_1" data-name="Trazado 1" d="M147.67,244.622v-15.6h3.045l.46,2.258a6.63,6.63,0,0,1,5.036-2.258,4.1,4.1,0,0,1,4.026,2.14,7.444,7.444,0,0,1,5.006-2.14q5.378,0,5.378,5.927v9.671h-3.937V234.8q0-2.6-2.348-2.6a4.831,4.831,0,0,0-3.372,1.576v10.844h-3.936v-9.774q0-2.645-2.169-2.645a4.516,4.516,0,0,0-3.253,1.576v10.844Z" transform="translate(-147.67 -223.38)" fill="#f67d0f"/>
          <path id="Trazado_2" data-name="Trazado 2" d="M189.521,236.793q0-7.842,7.724-7.843t7.725,7.843q0,7.83-7.725,7.828Q189.551,244.621,189.521,236.793Zm7.724,4.829q3.789,0,3.788-4.888,0-4.768-3.788-4.768t-3.787,4.768Q193.458,241.621,197.245,241.621Z" transform="translate(-164.817 -223.349)" fill="#f67d0f"/>
          <path id="Trazado_3" data-name="Trazado 3" d="M215.518,229.024h4.16l3.788,10.9,3.937-10.9h4.159l-6.343,15.6h-3.743Z" transform="translate(-175.468 -223.38)" fill="#f67d0f"/>
          <path id="Trazado_4" data-name="Trazado 4" d="M247.716,219.462v3.12H243.78v-3.12Zm0,5.644v15.6H243.78v-15.6Z" transform="translate(-187.047 -219.462)" fill="#f67d0f"/>
          <path id="Trazado_5" data-name="Trazado 5" d="M260.744,229.024q7.1,0,7.1,7.249a14.051,14.051,0,0,1-.133,1.931H257.357q0,3.3,4.842,3.3a25.5,25.5,0,0,0,4.724-.446v3.119a24.213,24.213,0,0,1-5.02.446q-8.482,0-8.482-7.977Q253.42,229.024,260.744,229.024Zm-3.387,6.447h6.654v-.119q0-3.236-3.267-3.237Q257.623,232.115,257.357,235.471Z" transform="translate(-190.997 -223.38)" fill="#f67d0f"/>
          <path id="Trazado_6" data-name="Trazado 6" d="M280.286,243.777v-3.268a16.079,16.079,0,0,0,6,1.04q2.54,0,2.54-1.635,0-1.56-1.708-1.56H284.3q-4.754,0-4.754-4.679,0-4.9,6.937-4.9a16.962,16.962,0,0,1,5.541.891v3.268a15.054,15.054,0,0,0-5.645-1.04q-3.194,0-3.193,1.633,0,1.561,1.856,1.561h2.526q5.2,0,5.2,4.678,0,4.9-6.625,4.9A17.989,17.989,0,0,1,280.286,243.777Z" transform="translate(-201.7 -223.277)" fill="#f67d0f"/>
          <path id="Trazado_7" data-name="Trazado 7" d="M325.053,229.024h4.16l3.788,10.9,3.937-10.9H341.1l-6.343,15.6H331.01Z" transform="translate(-220.346 -223.38)" fill="#f67d0f"/>
          <path id="Trazado_8" data-name="Trazado 8" d="M357.252,219.462v3.12h-3.936v-3.12Zm0,5.644v15.6h-3.936v-15.6Z" transform="translate(-231.926 -219.462)" fill="#f67d0f"/>
          <path id="Trazado_9" data-name="Trazado 9" d="M377.514,239.768a27.574,27.574,0,0,1-7,.936q-7.562,0-7.561-8.111,0-7.486,7.4-7.487a7.816,7.816,0,0,1,3.224.743v-6.388h3.937Zm-3.937-10.592a5.463,5.463,0,0,0-3.06-.8q-3.669,0-3.669,4.115,0,4.888,3.818,4.886a9.636,9.636,0,0,0,2.911-.43Z" transform="translate(-235.875 -219.462)" fill="#f67d0f"/>
          <path id="Trazado_10" data-name="Trazado 10" d="M397.913,229.024q7.1,0,7.1,7.249a14.046,14.046,0,0,1-.133,1.931H394.526q0,3.3,4.842,3.3a25.483,25.483,0,0,0,4.723-.446v3.119a24.2,24.2,0,0,1-5.02.446q-8.482,0-8.482-7.977Q390.589,229.024,397.913,229.024Zm-3.387,6.447h6.654v-.119q0-3.236-3.267-3.237Q394.792,232.115,394.526,235.471Z" transform="translate(-247.197 -223.38)" fill="#f67d0f"/>
          <path id="Trazado_11" data-name="Trazado 11" d="M416.712,236.793q0-7.842,7.723-7.843t7.726,7.843q0,7.83-7.726,7.828Q416.743,244.621,416.712,236.793Zm7.723,4.829q3.791,0,3.789-4.888,0-4.768-3.789-4.768t-3.786,4.768Q420.649,241.621,424.435,241.621Z" transform="translate(-257.9 -223.349)" fill="#f67d0f"/>
          <path id="Trazado_12" data-name="Trazado 12" d="M467.989,243.777v-3.268a16.075,16.075,0,0,0,6,1.04q2.539,0,2.54-1.635,0-1.56-1.708-1.56H472q-4.754,0-4.753-4.679,0-4.9,6.936-4.9a16.962,16.962,0,0,1,5.541.891v3.268a15.056,15.056,0,0,0-5.645-1.04q-3.194,0-3.193,1.633,0,1.561,1.856,1.561h2.526q5.2,0,5.2,4.678,0,4.9-6.625,4.9A17.988,17.988,0,0,1,467.989,243.777Z" transform="translate(-278.604 -223.277)" fill="#f67d0f"/>
          <path id="Trazado_13" data-name="Trazado 13" d="M491.858,224.747h2.912l.594,2.525h3.921v3.12H495.8v7.175q0,2.182,1.887,2.183h1.6v3.119H495.78q-3.921,0-3.922-4.2Z" transform="translate(-288.688 -221.627)" fill="#f67d0f"/>
          <path id="Trazado_14" data-name="Trazado 14" d="M506.909,244.622v-15.6h3.045l.49,1.991a6.181,6.181,0,0,1,4.338-1.991V232.2a5.314,5.314,0,0,0-3.937,1.828v10.592Z" transform="translate(-294.855 -223.38)" fill="#f67d0f"/>
          <path id="Trazado_15" data-name="Trazado 15" d="M528.026,229.024q7.1,0,7.1,7.249a14.047,14.047,0,0,1-.134,1.931H524.639q0,3.3,4.843,3.3a25.5,25.5,0,0,0,4.724-.446v3.119a24.219,24.219,0,0,1-5.021.446q-8.483,0-8.482-7.977Q520.7,229.024,528.026,229.024Zm-3.387,6.447h6.655v-.119q0-3.236-3.268-3.237Q524.907,232.115,524.639,235.471Z" transform="translate(-300.506 -223.38)" fill="#f67d0f"/>
          <path id="Trazado_16" data-name="Trazado 16" d="M546.826,239.765q0-4.65,6.774-4.65a17.309,17.309,0,0,1,3.179.3v-1.173q0-2.095-3.016-2.094a24.65,24.65,0,0,0-5.674.743v-3.12a24.685,24.685,0,0,1,5.674-.743q6.953,0,6.953,5.14v10.458h-2.288l-1.4-1.4a7.761,7.761,0,0,1-4.486,1.4Q546.826,244.622,546.826,239.765Zm6.774-1.976q-2.838,0-2.838,1.931,0,2.08,2.377,2.079a6.07,6.07,0,0,0,3.64-1.218v-2.5A16.238,16.238,0,0,0,553.6,237.789Z" transform="translate(-311.209 -223.38)" fill="#f67d0f"/>
          <path id="Trazado_17" data-name="Trazado 17" d="M574.583,244.622v-15.6h3.045l.46,2.258a6.629,6.629,0,0,1,5.036-2.258,4.094,4.094,0,0,1,4.025,2.14,7.446,7.446,0,0,1,5.006-2.14q5.378,0,5.377,5.927v9.671H593.6V234.8q0-2.6-2.347-2.6a4.827,4.827,0,0,0-3.371,1.576v10.844h-3.937v-9.774q0-2.645-2.169-2.645a4.516,4.516,0,0,0-3.253,1.576v10.844Z" transform="translate(-322.582 -223.38)" fill="#f67d0f"/>
          <path id="Trazado_18" data-name="Trazado 18" d="M621.629,219.462v3.12h-3.936v-3.12Zm0,5.644v15.6h-3.936v-15.6Z" transform="translate(-340.244 -219.462)" fill="#f67d0f"/>
          <path id="Trazado_19" data-name="Trazado 19" d="M628.592,244.622v-15.6h3.045l.49,2.288a6.982,6.982,0,0,1,5.111-2.288q5.54,0,5.541,5.764v9.834h-3.937v-9.834a2.279,2.279,0,0,0-2.57-2.585,5.8,5.8,0,0,0-3.744,1.531v10.888Z" transform="translate(-344.71 -223.38)" fill="#f67d0f"/>
          <path id="Trazado_20" data-name="Trazado 20" d="M670.258,243.434q0,6.833-8.214,6.833a16.116,16.116,0,0,1-5.11-.743V246.4a16.5,16.5,0,0,0,5.139.742q4.248,0,4.249-3.565a9.564,9.564,0,0,1-3.774.743q-6.951,0-6.951-7.591,0-7.709,8.1-7.71a41.1,41.1,0,0,1,6.565.639Zm-3.936-10.873a8.253,8.253,0,0,0-2.748-.358q-4.085,0-4.085,4.5,0,4.354,3.52,4.353a7.392,7.392,0,0,0,3.313-.8Z" transform="translate(-355.774 -223.38)" fill="#f67d0f"/>
        </g>
        <rect id="Rect치ngulo_1" data-name="Rect치ngulo 1" width="1.213" height="19.101" transform="translate(97.339 2.501)" fill="#fff"/>
        <rect id="Rect치ngulo_2" data-name="Rect치ngulo 2" width="1.213" height="19.101" transform="translate(180.728 2.501)" fill="#fff"/>
      </g>
      <g id="Grupo_4" data-name="Grupo 4" transform="translate(0 0)">
        <g id="Grupo_3" data-name="Grupo 3" transform="translate(251.667)">
          <path id="Trazado_21" data-name="Trazado 21" d="M448.28,128.144V31.7h17.873V66.364q8.362-9.038,21.381-9.038,25.156,0,25.157,26.169v44.65H494.818V83.494q0-11.736-11.668-11.736-8.7,0-17,6.947v49.438Z" transform="translate(-448.28 -31.696)" fill="url(#linear-gradient)"/>
          <path id="Trazado_22" data-name="Trazado 22" d="M635.66,74.725v71.049H621.7l-2.158-9.038q-12.208,9.038-25.9,9.038-21.719,0-21.718-25.7V74.725H589.8V119.6q0,11.736,10.251,11.735,8.7,0,17.739-6.947V74.725Z" transform="translate(-498.938 -49.326)" fill="url(#linear-gradient-2)"/>
          <path id="Trazado_23" data-name="Trazado 23" d="M694.423,31.7H712.3V62.721a31.332,31.332,0,0,1,17.873-5.4q30.216,0,30.216,33.993,0,36.826-34.6,36.826a184.853,184.853,0,0,1-31.363-2.9ZM712.3,111.754a46.885,46.885,0,0,0,14.232,1.956q16.186,0,16.186-22.864,0-18.682-13.961-18.683A36.828,36.828,0,0,0,712.3,75.806Z" transform="translate(-549.128 -31.696)" fill="url(#linear-gradient)"/>
        </g>
        <path id="Trazado_24" data-name="Trazado 24" d="M242.373,124.23l-17.2-49.506H206.289l27.046,70.819h17l28.8-70.819H260.246Z" transform="translate(-97.467 -49.325)" fill="url(#linear-gradient-4)"/>
        <path id="Trazado_25" data-name="Trazado 25" d="M368.731,102.246H357.265a11.027,11.027,0,0,1-5.4-1.136q-3.03-1.7-3.029-5.946,0-4.062,4.347-5.9,3.592-1.519,10.154-1.519a68.66,68.66,0,0,1,24.839,4.412q.4.152.79.309V77.628a77.031,77.031,0,0,0-25.157-4.046A56.534,56.534,0,0,0,348.02,75.5a25.978,25.978,0,0,0-8.182,3.894,17.555,17.555,0,0,0-5.646,6.892,19.829,19.829,0,0,0-1.411,4.443,26.43,26.43,0,0,0-.47,5.108,32.985,32.985,0,0,0,.551,6.25,19.161,19.161,0,0,0,3.3,7.908,15.957,15.957,0,0,0,7.066,5.316,23.915,23.915,0,0,0,5.353,1.4,35.981,35.981,0,0,0,5.313.369h12.815a10.447,10.447,0,0,1,4.258.764,5.428,5.428,0,0,1,2.623,2.361,8.087,8.087,0,0,1,.875,3.957,6.382,6.382,0,0,1-1.563,4.457,8.8,8.8,0,0,1-4.689,2.446,23.75,23.75,0,0,1-5.281.516q-4.3,0-8.312-.365a74.782,74.782,0,0,1-9.572-1.479,61.24,61.24,0,0,1-9.364-2.877V141.7a81.623,81.623,0,0,0,26.574,4.048q30.081,0,30.081-22.258a31.748,31.748,0,0,0-.372-5,21.322,21.322,0,0,0-1.76-5.849,16.16,16.16,0,0,0-7.23-7.482Q377.471,102.247,368.731,102.246Z" transform="translate(-149.099 -48.857)" fill="url(#linear-gradient-5)"/>
        <path id="Trazado_26" data-name="Trazado 26" d="M76.056,84.631l.236-.264a33.983,33.983,0,0,1,10.174-7.93,27.9,27.9,0,0,1,12.153-2.855A29.994,29.994,0,0,1,120.8,83.732c5.935,6.82,9.185,13.359,9.185,22.716v38.857H112.325V106.448c0-8.406-6.359-15.86-13.706-15.86-7.631,0-13.849,7.3-13.849,15.86v38.857H67.153V106.448c0-8.564-6.218-15.86-13.849-15.86-7.348,0-13.707,7.454-13.707,15.86v38.857H21.934V106.448c0-9.357,3.25-15.9,9.185-22.716A29.994,29.994,0,0,1,53.3,73.582a27.9,27.9,0,0,1,12.153,2.855,33.984,33.984,0,0,1,10.174,7.93l.236.264.093.1Z" transform="translate(-21.934 -48.857)" fill="url(#linear-gradient-6)"/>
      </g>
    </g>
    <g id="Grupo_32939" data-name="Grupo 32939" transform="translate(279.583 284.239)">
      <path id="Trazado_27" data-name="Trazado 27" d="M53.217,291.633H63.248l9.862,26.149h.113l10.031-26.149h9.411l-16.455,39.9H69.165Z" transform="translate(-53.217 -290.618)" fill="#fff"/>
      <path id="Trazado_28" data-name="Trazado 28" d="M146.776,291.633h27.106v8.115H155.567v7.439h17.3V315.3h-17.3v8.115H174.9v8.115H146.776Z" transform="translate(-91.549 -290.618)" fill="#fff"/>
      <path id="Trazado_29" data-name="Trazado 29" d="M226.014,291.633h8.791v31.784h16.287v8.115H226.014Z" transform="translate(-124.014 -290.618)" fill="#fff"/>
      <path id="Trazado_30" data-name="Trazado 30" d="M292.173,310.878a22.533,22.533,0,0,1,1.606-8.678,19.032,19.032,0,0,1,4.48-6.622,19.745,19.745,0,0,1,6.818-4.2,26.095,26.095,0,0,1,17.245,0,19.751,19.751,0,0,1,6.818,4.2,19.032,19.032,0,0,1,4.48,6.622,24.249,24.249,0,0,1,0,17.357,19.027,19.027,0,0,1-4.48,6.622,19.724,19.724,0,0,1-6.818,4.2,26.095,26.095,0,0,1-17.245,0,19.718,19.718,0,0,1-6.818-4.2,19.027,19.027,0,0,1-4.48-6.622A22.533,22.533,0,0,1,292.173,310.878Zm9.129,0a14.609,14.609,0,0,0,.874,5.156,11.789,11.789,0,0,0,2.508,4.058,11.42,11.42,0,0,0,3.917,2.676,14.053,14.053,0,0,0,10.2,0,11.426,11.426,0,0,0,3.917-2.676,11.817,11.817,0,0,0,2.508-4.058,15.57,15.57,0,0,0,0-10.285,11.779,11.779,0,0,0-2.508-4.086,11.468,11.468,0,0,0-3.917-2.676,14.055,14.055,0,0,0-10.2,0,11.462,11.462,0,0,0-3.917,2.676,11.752,11.752,0,0,0-2.508,4.086A14.682,14.682,0,0,0,301.3,310.878Z" transform="translate(-151.12 -289.914)" fill="#fff"/>
      <path id="Trazado_31" data-name="Trazado 31" d="M446.853,299.41H435.469v-7.777h31.559v7.777H455.644v32.122h-8.791Z" transform="translate(-209.83 -290.618)" fill="url(#linear-gradient-7)"/>
      <path id="Trazado_32" data-name="Trazado 32" d="M511.939,310.878a22.532,22.532,0,0,1,1.606-8.678,19.039,19.039,0,0,1,4.48-6.622,19.746,19.746,0,0,1,6.818-4.2,26.095,26.095,0,0,1,17.245,0,19.759,19.759,0,0,1,6.819,4.2,19.039,19.039,0,0,1,4.48,6.622,24.247,24.247,0,0,1,0,17.357,19.033,19.033,0,0,1-4.48,6.622,19.732,19.732,0,0,1-6.819,4.2,26.095,26.095,0,0,1-17.245,0,19.718,19.718,0,0,1-6.818-4.2,19.034,19.034,0,0,1-4.48-6.622A22.532,22.532,0,0,1,511.939,310.878Zm9.129,0a14.607,14.607,0,0,0,.874,5.156,11.789,11.789,0,0,0,2.508,4.058,11.421,11.421,0,0,0,3.917,2.676,14.053,14.053,0,0,0,10.2,0,11.421,11.421,0,0,0,3.917-2.676,11.809,11.809,0,0,0,2.508-4.058,15.571,15.571,0,0,0,0-10.285,11.772,11.772,0,0,0-2.508-4.086,11.463,11.463,0,0,0-3.917-2.676,14.055,14.055,0,0,0-10.2,0,11.462,11.462,0,0,0-3.917,2.676,11.752,11.752,0,0,0-2.508,4.086A14.68,14.68,0,0,0,521.068,310.878Z" transform="translate(-241.161 -289.914)" fill="url(#linear-gradient-8)"/>
      <path id="Trazado_33" data-name="Trazado 33" d="M614.089,291.633h13.187a37.677,37.677,0,0,1,9.1,1.07,20.82,20.82,0,0,1,7.523,3.467A16.983,16.983,0,0,1,649,302.4a20.886,20.886,0,0,1,1.888,9.3,18.981,18.981,0,0,1-1.831,8.538,18.365,18.365,0,0,1-4.931,6.2,21.8,21.8,0,0,1-7.157,3.8,27.779,27.779,0,0,1-8.51,1.3H614.089Zm8.792,31.784h4.565a24.54,24.54,0,0,0,5.663-.62,12.09,12.09,0,0,0,4.536-2.057,9.872,9.872,0,0,0,3.015-3.776,13.389,13.389,0,0,0,1.1-5.72,11.155,11.155,0,0,0-1.1-5.1,10.212,10.212,0,0,0-2.958-3.579,13,13,0,0,0-4.368-2.113,19.415,19.415,0,0,0-5.269-.7h-5.184Z" transform="translate(-283.013 -290.618)" fill="url(#linear-gradient-7)"/>
      <path id="Trazado_34" data-name="Trazado 34" d="M702.015,310.878a22.534,22.534,0,0,1,1.606-8.678,19.039,19.039,0,0,1,4.48-6.622,19.748,19.748,0,0,1,6.819-4.2,26.095,26.095,0,0,1,17.245,0,19.752,19.752,0,0,1,6.818,4.2,19.041,19.041,0,0,1,4.48,6.622,24.248,24.248,0,0,1,0,17.357,19.035,19.035,0,0,1-4.48,6.622,19.725,19.725,0,0,1-6.818,4.2,26.095,26.095,0,0,1-17.245,0,19.72,19.72,0,0,1-6.819-4.2,19.033,19.033,0,0,1-4.48-6.622A22.534,22.534,0,0,1,702.015,310.878Zm9.129,0a14.609,14.609,0,0,0,.874,5.156,11.781,11.781,0,0,0,2.508,4.058,11.414,11.414,0,0,0,3.917,2.676,14.053,14.053,0,0,0,10.2,0,11.433,11.433,0,0,0,3.917-2.676,11.818,11.818,0,0,0,2.508-4.058,15.571,15.571,0,0,0,0-10.285,11.78,11.78,0,0,0-2.508-4.086,11.475,11.475,0,0,0-3.917-2.676,14.055,14.055,0,0,0-10.2,0,11.455,11.455,0,0,0-3.917,2.676,11.744,11.744,0,0,0-2.508,4.086A14.683,14.683,0,0,0,711.144,310.878Z" transform="translate(-319.038 -289.914)" fill="url(#linear-gradient-8)"/>
    </g>
  </g>
</svg>
