<svg xmlns="http://www.w3.org/2000/svg" xmlns:xlink="http://www.w3.org/1999/xlink" width="42.232" height="57.371" viewBox="0 0 42.232 57.371">
  <defs>
    <linearGradient id="linear-gradient" x1="0.5" x2="0.5" y2="1" gradientUnits="objectBoundingBox">
      <stop offset="0" stop-color="#f66f1b"/>
      <stop offset="1" stop-color="#f89405"/>
    </linearGradient>
    <filter id="Elipse_368" x="0.091" y="0" width="42.142" height="44.142" filterUnits="userSpaceOnUse">
      <feOffset dy="2" input="SourceAlpha"/>
      <feGaussianBlur result="blur"/>
      <feFlood flood-opacity="0.537"/>
      <feComposite operator="in" in2="blur"/>
      <feComposite in="SourceGraphic"/>
    </filter>
  </defs>
  <g id="Grupo_32871" data-name="Grupo 32871" transform="translate(0.091)">
    <g id="Grupo_32595" data-name="Grupo 32595" transform="translate(0)">
      <g transform="matrix(1, 0, 0, 1, -0.09, 0)" filter="url(#Elipse_368)">
        <ellipse id="Elipse_368-2" data-name="Elipse 368" cx="21.071" cy="21.071" rx="21.071" ry="21.071" transform="translate(0.09)" fill="url(#linear-gradient)"/>
      </g>
      <g id="tv" transform="translate(6.191 8.278)">
        <g id="Grupo_32594" data-name="Grupo 32594" transform="translate(8.16 21.057)">
          <path id="Trazado_86408" data-name="Trazado 86408" d="M94.522,257.041c-3.75,0-6.792-.427-6.792-.951v.406c0,.526,3.042.952,6.792.952s6.79-.425,6.79-.952v-.406C101.311,256.615,98.274,257.041,94.522,257.041Z" transform="translate(-87.73 -253.329)" fill="#512e98" fill-rule="evenodd"/>
          <path id="Trazado_86409" data-name="Trazado 86409" d="M93.829,226.4l-.239,1.832c-2.773.081-4.68.4-5.08.8.48.459,3.3.813,6.718.813s6.237-.354,6.719-.813c-.4-.4-2.3-.714-5.076-.8l-.239-1.832H94.884l-.239,1.67c0,.117-.13.211-.288.211s-.285-.094-.285-.211l.238-1.67h-.483Z" transform="translate(-88.437 -226.4)" fill="#512e98" fill-rule="evenodd"/>
        </g>
        <path id="Trazado_86410" data-name="Trazado 86410" d="M28.867,0H1.032A1.035,1.035,0,0,0,0,1.032V19.593a1.035,1.035,0,0,0,1.032,1.032H2.841L3.5,18.077H1.959V2.042H27.935V18.078H8.964l-.659,2.548H28.867A1.035,1.035,0,0,0,29.9,19.594V1.032A1.035,1.035,0,0,0,28.867,0ZM13.18,19.7a.407.407,0,1,1,.407-.407A.407.407,0,0,1,13.18,19.7Zm1.777,0a.407.407,0,1,1,.407-.407A.407.407,0,0,1,14.958,19.7Zm1.762,0a.407.407,0,1,1,.407-.407A.407.407,0,0,1,16.719,19.7Z" transform="translate(0 0)" fill="#512e98" fill-rule="evenodd"/>
        <path id="Trazado_86411" data-name="Trazado 86411" d="M32.018,161.653a.69.69,0,0,0-.5-.841l-2.884-.746a.691.691,0,0,0-.841.5l-2.231,8.63-.007,0c-.3,1.169.509,1.943,1.678,2.246s2.254.018,2.557-1.151l-.007,0,2.231-8.63Zm-1.672,4.38a1.648,1.648,0,0,1-.527.844l-.3-.509a1.077,1.077,0,0,0,.267-1.031l.509-.3A1.651,1.651,0,0,1,30.346,166.032Zm-1.767.213a.648.648,0,1,1,.791-.466A.65.65,0,0,1,28.579,166.245Zm.742.924a1.655,1.655,0,0,1-1.839-.476l.51-.3a1.073,1.073,0,0,0,1.031.266l.3.51Zm-.31-2.6a1.072,1.072,0,0,0-.551,0l-.3-.509a1.656,1.656,0,0,1,1.84.476l-.51.3a1.076,1.076,0,0,0-.48-.271Zm.561-2.17a.324.324,0,1,1,.4-.233.324.324,0,0,1-.4.233Zm1.295,1.067a.324.324,0,1,1-.233-.4A.324.324,0,0,1,30.867,163.467Zm.026-1.4a.324.324,0,1,1-.4.233.324.324,0,0,1,.4-.233Zm-1.573-1.245.02-.08a.181.181,0,0,1,.22-.129l.033.008.819.211.033.009a.182.182,0,0,1,.13.22l-.021.08a.176.176,0,0,1-.034.067.21.21,0,0,1-.227.084l-.819-.212a.209.209,0,0,1-.158-.183.188.188,0,0,1,0-.075Zm-.239,2.179a.324.324,0,1,1,.233.394A.324.324,0,0,1,29.081,163.006Zm-.9-1.3a.324.324,0,1,1,.233.4.324.324,0,0,1-.233-.4Zm-.259,1a.324.324,0,1,1,.233.4A.324.324,0,0,1,27.922,162.706Zm-.787,2.5a1.646,1.646,0,0,1,.528-.845l.3.509A1.073,1.073,0,0,0,27.7,165.9l-.509.3a1.648,1.648,0,0,1-.052-.994Zm-.031,3.528-.029.112a.137.137,0,0,1-.167.1l-.576-.149a.139.139,0,0,1-.1-.168l.029-.111a.138.138,0,0,1,.168-.1l.576.149A.137.137,0,0,1,27.1,168.731Zm.222-.861-.029.112a.137.137,0,0,1-.167.1l-.575-.149a.138.138,0,0,1-.1-.167l.029-.112a.139.139,0,0,1,.168-.1l.576.149a.138.138,0,0,1,.1.167Zm.977,1.171-.029.112a.137.137,0,0,1-.167.1l-.575-.149a.137.137,0,0,1-.1-.167l.029-.112a.138.138,0,0,1,.167-.1l.575.149A.138.138,0,0,1,28.3,169.04Zm.222-.861-.029.112a.138.138,0,0,1-.167.1l-.575-.149a.138.138,0,0,1-.1-.167l.029-.112a.139.139,0,0,1,.167-.1l.576.149A.138.138,0,0,1,28.526,168.179Zm.976,1.171-.029.112a.137.137,0,0,1-.167.1l-.576-.149a.138.138,0,0,1-.1-.167l.029-.112a.138.138,0,0,1,.168-.1l.576.149a.136.136,0,0,1,.1.167Zm.222-.861-.029.112a.137.137,0,0,1-.166.1l-.576-.149a.137.137,0,0,1-.1-.167l.029-.112a.139.139,0,0,1,.168-.1l.576.149a.137.137,0,0,1,.1.167Z" transform="translate(-23.125 -145.158)" fill="#512e98"/>
      </g>
    </g>
    <text id="SMARTV" transform="translate(18.909 55.371)" fill="#fff" font-size="9" font-family="Roboto-Medium, Roboto" font-weight="500"><tspan x="-18" y="0">SMARTV</tspan></text>
  </g>
</svg>
