<svg xmlns="http://www.w3.org/2000/svg" width="44.693" height="44.693" viewBox="0 0 44.693 44.693"><defs><style>.a{fill:#4c3094;}.b{fill:#fff;fill-rule:evenodd;}</style></defs><g transform="translate(-1626.66 -4871)"><ellipse class="a" cx="22.347" cy="22.347" rx="22.347" ry="22.347" transform="translate(1626.66 4871)"/><path class="b" d="M39.31,119.314c.812-.027,1.623-.005,2.439-.007h.336V115.08c-.436-.045-.889-.107-1.343-.128-.833-.038-1.669-.08-2.5-.06a6.129,6.129,0,0,0-3.533,1.092,5.283,5.283,0,0,0-2.122,3.529,12.434,12.434,0,0,0-.148,1.815c-.024.949-.005,1.9,0,2.847v.354H28.385v4.722h4.023v11.872h4.916V129.272h4.008c.206-1.571.407-3.126.618-4.746h-.9c-1.139.005-3.757,0-3.757,0s.011-2.339.04-3.355C37.37,119.779,38.195,119.354,39.31,119.314Z" transform="translate(1612.572 4765.734)"/></g></svg>