<svg xmlns="http://www.w3.org/2000/svg" width="44.693" height="44.693" viewBox="0 0 44.693 44.693"><defs><style>.a{fill:#4c3094;}.b{fill:#fff;}</style></defs><g transform="translate(-1686.318 -4871)"><ellipse class="a" cx="22.347" cy="22.347" rx="22.347" ry="22.347" transform="translate(1686.318 4871)"/><path class="b" d="M105.481,121.343a6.276,6.276,0,0,0-1.915-4.041,6.557,6.557,0,0,0-4.339-1.763,85.5,85.5,0,0,0-11.71.13,5.973,5.973,0,0,0-5.12,4.6c-.564,2.014-.452,11.3-.123,13.288a5.99,5.99,0,0,0,4.755,5.163c1.868.483,11.044.421,13.1.087a6,6,0,0,0,5.185-4.733C105.861,132,105.671,123.207,105.481,121.343ZM103.3,133.17a4.006,4.006,0,0,1-3.768,3.576c-1.909.21-10.437.325-12.209-.17a3.879,3.879,0,0,1-2.943-3.345,79.019,79.019,0,0,1,0-11.946,4,4,0,0,1,3.751-3.56,83.484,83.484,0,0,1,11.652.047,4.008,4.008,0,0,1,3.569,3.775A84.907,84.907,0,0,1,103.3,133.17Zm-9.462-12a6.07,6.07,0,1,0,6.065,6.073A6.07,6.07,0,0,0,93.84,121.169Zm-.042,9.99a3.925,3.925,0,1,1,3.959-3.889A3.925,3.925,0,0,1,93.8,131.16Zm7.768-10.22a1.421,1.421,0,1,1-1.417-1.425A1.421,1.421,0,0,1,101.567,120.94Z" transform="translate(1615.063 4766.153)"/><path class="b" d="M105.481,121.343a6.276,6.276,0,0,0-1.915-4.041,6.557,6.557,0,0,0-4.339-1.763,85.5,85.5,0,0,0-11.71.13,5.973,5.973,0,0,0-5.12,4.6c-.564,2.014-.452,11.3-.123,13.288a5.99,5.99,0,0,0,4.755,5.163c1.868.483,11.044.421,13.1.087a6,6,0,0,0,5.185-4.733C105.861,132,105.671,123.207,105.481,121.343ZM103.3,133.17a4.006,4.006,0,0,1-3.768,3.576c-1.909.21-10.437.325-12.209-.17a3.879,3.879,0,0,1-2.943-3.345,79.019,79.019,0,0,1,0-11.946,4,4,0,0,1,3.751-3.56,83.484,83.484,0,0,1,11.652.047,4.008,4.008,0,0,1,3.569,3.775A84.907,84.907,0,0,1,103.3,133.17Zm-9.462-12a6.07,6.07,0,1,0,6.065,6.073A6.07,6.07,0,0,0,93.84,121.169Zm-.042,9.99a3.925,3.925,0,1,1,3.959-3.889A3.925,3.925,0,0,1,93.8,131.16Zm7.768-10.22a1.421,1.421,0,1,1-1.417-1.425A1.421,1.421,0,0,1,101.567,120.94Z" transform="translate(1615.063 4766.153)"/></g></svg>