<svg xmlns="http://www.w3.org/2000/svg" width="44.148" height="44.215" viewBox="0 0 44.148 44.215"><defs><style>.a{fill:#fff;}.b{fill:#4c3094;stroke:#4c3094;}</style></defs><g transform="translate(0.5 0.5)"><g transform="translate(0 0)"><path class="a" d="M-245.87-182.312a15.522,15.522,0,0,0-15.477-15.658,15.528,15.528,0,0,0-15.664,15.6,15.545,15.545,0,0,0,15.672,15.593A15.478,15.478,0,0,0-245.87-182.312Z" transform="translate(283.392 204.351)"/><path class="b" d="M-233.863-176.275a21.446,21.446,0,0,1-21.433,21.52A21.539,21.539,0,0,1-277.01-176.36a21.515,21.515,0,0,1,21.7-21.61A21.507,21.507,0,0,1-233.863-176.275Zm-15.851-4.168c1.115.451,1.881.8,2.673,1.074,3.678,1.268,4.015,1,3.875-2.845a1.49,1.49,0,0,0-1.259-1.664c-2.7-.843-4.694-2.48-5.306-5.466-.09-.439-.758-.916-1.255-1.075a10.118,10.118,0,0,0-1.915-.063c-1.441-.155-1.961.361-1.939,1.888.084,5.681.057,11.364.013,17.045a3.957,3.957,0,0,1-3.957,4.18,3.9,3.9,0,0,1-3.871-3.566c-.149-2.316,1.352-3.918,3.88-4.208.43-.049,1.188-.294,1.2-.477a10.926,10.926,0,0,0-.206-4.085c-.145-.4-2.018-.19-3.1-.24a1.506,1.506,0,0,0-.458.144,8.948,8.948,0,0,0-6.324,9.642,9.152,9.152,0,0,0,8.5,7.855,8.762,8.762,0,0,0,9.037-6.914,50.848,50.848,0,0,0,.411-7.511C-249.677-177.875-249.713-179.026-249.713-180.443Z" transform="translate(277.01 197.97)"/></g></g></svg>