<svg xmlns="http://www.w3.org/2000/svg" width="44.693" height="44.693" viewBox="0 0 44.693 44.693"><defs><style>.a{fill:#4c3094;}.b{fill:#fff;fill-rule:evenodd;}</style></defs><g transform="translate(-1567 -4871)"><path class="a" d="M22.347,0A22.347,22.347,0,1,1,0,22.347,22.347,22.347,0,0,1,22.347,0Z" transform="translate(1567 4871)"/><path class="b" d="M61.839,132.865a5.27,5.27,0,0,1-4.888-3.646,5.259,5.259,0,0,0,2.253-.069.549.549,0,0,0,.074-.034,5.24,5.24,0,0,1-3.411-2.412,5.1,5.1,0,0,1-.77-2.793,5.179,5.179,0,0,0,2.338.636,5.281,5.281,0,0,1-2.162-3.187,5.207,5.207,0,0,1,.564-3.806,15.028,15.028,0,0,0,10.836,5.49c-.031-.208-.063-.39-.085-.575a5.108,5.108,0,0,1,.768-3.435,5.051,5.051,0,0,1,3.563-2.376,5.118,5.118,0,0,1,4.6,1.464.266.266,0,0,0,.28.083,10.547,10.547,0,0,0,3.057-1.175c.022-.013.045-.025.069-.036l.036,0a5.371,5.371,0,0,1-2.251,2.858,10.062,10.062,0,0,0,2.925-.786l.022.023c-.2.264-.4.532-.6.788a10.274,10.274,0,0,1-1.911,1.815.172.172,0,0,0-.085.165,14.394,14.394,0,0,1-.1,2.334,15.36,15.36,0,0,1-1.354,4.677,15.047,15.047,0,0,1-2.84,4.142,14.028,14.028,0,0,1-7.219,4.024,15.631,15.631,0,0,1-2.927.347,14.823,14.823,0,0,1-8.408-2.256c-.033-.018-.065-.042-.123-.08a10.627,10.627,0,0,0,5.255-.725A10.484,10.484,0,0,0,61.839,132.865Z" transform="translate(1523.433 4767.102)"/></g></svg>