<svg xmlns="http://www.w3.org/2000/svg" width="43.099" height="43.215" viewBox="0 0 43.099 43.215"><defs><style>.a{fill:#fff;}.b{fill:#4c3094;}</style></defs><path class="a" d="M-19.8-194.322A16.273,16.273,0,0,0-3.559-177.873,16.318,16.318,0,0,0,12.92-194.1,16.3,16.3,0,0,0-3.031-210.592,16.235,16.235,0,0,0-19.8-194.322Z" transform="translate(25.056 215.848)"/><path class="b" d="M-19.8-189.1c.117-12.286,9.693-21.6,22.087-21.488a21.494,21.494,0,0,1,21.01,21.78A21.521,21.521,0,0,1,1.592-167.379,21.464,21.464,0,0,1-19.8-189.1Zm21.6-9.805,0,.054c-3.318,0-6.644-.138-9.952.043-2.736.15-4.03,1.283-4.171,3.955a120.693,120.693,0,0,0,.066,12.148,3.319,3.319,0,0,0,3.44,3.377c3.837.3,7.693.48,11.542.486,3.258,0,6.524-.221,9.771-.514A3.231,3.231,0,0,0,15.7-182.43a108.464,108.464,0,0,0,.144-12.15c-.192-3.116-1.55-4.16-4.732-4.3C8.016-199.016,4.906-198.909,1.8-198.909Z" transform="translate(19.801 210.593)"/><path class="b" d="M39.041-156.1l7.021,4.056-7.021,4.065Z" transform="translate(-19.704 173.883)"/></svg>