<svg xmlns="http://www.w3.org/2000/svg" xmlns:xlink="http://www.w3.org/1999/xlink" width="91" height="93" viewBox="0 0 91 93">
  <defs>
    <linearGradient id="linear-gradient" x1="0.5" x2="0.5" y2="1" gradientUnits="objectBoundingBox">
      <stop offset="0" stop-color="#f66f1b"/>
      <stop offset="1" stop-color="#f89405"/>
    </linearGradient>
    <filter id="Elipse_368" x="0" y="0" width="91" height="93" filterUnits="userSpaceOnUse">
      <feOffset dy="2" input="SourceAlpha"/>
      <feGaussianBlur result="blur"/>
      <feFlood flood-opacity="0.537"/>
      <feComposite operator="in" in2="blur"/>
      <feComposite in="SourceGraphic"/>
    </filter>
  </defs>
  <g id="Grupo_32595" data-name="Grupo 32595" transform="translate(-0.322)">
    <g transform="matrix(1, 0, 0, 1, 0.32, 0)" filter="url(#Elipse_368)">
      <circle id="Elipse_368-2" data-name="Elipse 368" cx="45.5" cy="45.5" r="45.5" fill="url(#linear-gradient)"/>
    </g>
    <g id="tv" transform="translate(13.691 17.876)">
      <g id="Grupo_32594" data-name="Grupo 32594" transform="translate(17.62 45.471)">
        <path id="Trazado_86408" data-name="Trazado 86408" d="M102.4,258.145c-8.1,0-14.666-.922-14.666-2.055v.878c0,1.135,6.57,2.055,14.666,2.055s14.662-.918,14.662-2.055v-.878C117.057,257.223,110.5,258.145,102.4,258.145Z" transform="translate(-87.73 -250.127)" fill="#512e98" fill-rule="evenodd"/>
        <path id="Trazado_86409" data-name="Trazado 86409" d="M100,226.4l-.516,3.957c-5.987.175-10.106.862-10.97,1.717,1.036.99,7.134,1.755,14.507,1.755s13.469-.765,14.509-1.755c-.864-.856-4.975-1.542-10.962-1.717l-.516-3.957h-3.774l-.516,3.607c0,.253-.281.456-.623.456s-.615-.2-.615-.456l.514-3.607H99.992Z" transform="translate(-88.353 -226.4)" fill="#512e98" fill-rule="evenodd"/>
      </g>
      <path id="Trazado_86410" data-name="Trazado 86410" d="M62.336,0H2.229A2.236,2.236,0,0,0,0,2.229V42.31a2.235,2.235,0,0,0,2.229,2.229H6.136l1.422-5.5H4.23V4.408H60.323V39.038H19.357l-1.422,5.5h44.4a2.235,2.235,0,0,0,2.229-2.229V2.229A2.236,2.236,0,0,0,62.336,0ZM28.461,42.534a.88.88,0,1,1,.88-.88A.879.879,0,0,1,28.461,42.534Zm3.838,0a.88.88,0,1,1,.88-.88A.879.879,0,0,1,32.3,42.534Zm3.8,0a.88.88,0,1,1,.88-.88A.879.879,0,0,1,36.1,42.534Z" transform="translate(0 0)" fill="#512e98" fill-rule="evenodd"/>
      <path id="Trazado_86411" data-name="Trazado 86411" d="M39.58,163.518a1.49,1.49,0,0,0-1.07-1.816l-6.228-1.611a1.491,1.491,0,0,0-1.816,1.07L25.648,179.8l-.014,0c-.653,2.525,1.1,4.2,3.623,4.85s4.866.038,5.521-2.486l-.014,0,4.818-18.636Zm-3.611,9.458A3.557,3.557,0,0,1,34.83,174.8l-.649-1.1a2.325,2.325,0,0,0,.576-2.225l1.1-.647A3.565,3.565,0,0,1,35.969,172.975Zm-3.816.46a1.4,1.4,0,1,1,1.707-1.006A1.4,1.4,0,0,1,32.153,173.435Zm1.6,1.994a3.573,3.573,0,0,1-3.971-1.028l1.1-.649a2.318,2.318,0,0,0,2.225.574l.649,1.1Zm-.669-5.612a2.314,2.314,0,0,0-1.189.008l-.649-1.1a3.575,3.575,0,0,1,3.973,1.028l-1.1.649a2.325,2.325,0,0,0-1.036-.584Zm1.211-4.686a.7.7,0,1,1,.856-.5.7.7,0,0,1-.856.5Zm2.8,2.3a.7.7,0,1,1-.5-.854A.7.7,0,0,1,37.094,167.436Zm.056-3.013a.7.7,0,1,1-.854.5.7.7,0,0,1,.854-.5Zm-3.4-2.689.044-.173a.391.391,0,0,1,.476-.279l.07.018,1.769.456.072.02a.393.393,0,0,1,.281.476l-.046.173a.381.381,0,0,1-.074.145.453.453,0,0,1-.49.181l-1.769-.458a.452.452,0,0,1-.341-.4.405.405,0,0,1,.006-.163Zm-.516,4.706a.7.7,0,1,1,.5.852A.7.7,0,0,1,33.238,166.44Zm-1.944-2.806a.7.7,0,1,1,.5.854.7.7,0,0,1-.5-.854Zm-.558,2.159a.7.7,0,1,1,.5.854A.7.7,0,0,1,30.735,165.793Zm-1.7,5.391a3.553,3.553,0,0,1,1.141-1.824l.647,1.1a2.318,2.318,0,0,0-.574,2.225l-1.1.647a3.559,3.559,0,0,1-.112-2.147ZM28.97,178.8l-.062.241a.3.3,0,0,1-.362.213l-1.243-.321a.3.3,0,0,1-.215-.363l.062-.239a.3.3,0,0,1,.364-.213l1.243.321A.3.3,0,0,1,28.97,178.8Zm.48-1.86-.062.241a.3.3,0,0,1-.362.213l-1.241-.321a.3.3,0,0,1-.215-.362l.062-.241a.3.3,0,0,1,.364-.213l1.243.321a.3.3,0,0,1,.213.362Zm2.109,2.529-.062.241a.3.3,0,0,1-.362.213l-1.241-.321a.3.3,0,0,1-.213-.362l.062-.241a.3.3,0,0,1,.362-.213l1.241.321A.3.3,0,0,1,31.558,179.471Zm.48-1.86-.062.241a.3.3,0,0,1-.362.213l-1.241-.321a.3.3,0,0,1-.215-.362l.062-.241a.3.3,0,0,1,.362-.213l1.243.321A.3.3,0,0,1,32.039,177.611Zm2.107,2.529-.062.241a.3.3,0,0,1-.362.213l-1.243-.321a.3.3,0,0,1-.215-.361l.062-.241a.3.3,0,0,1,.364-.213l1.243.321a.294.294,0,0,1,.211.362Zm.48-1.86-.062.241a.3.3,0,0,1-.36.213l-1.243-.321a.3.3,0,0,1-.213-.361l.062-.241a.3.3,0,0,1,.364-.213l1.243.321a.3.3,0,0,1,.211.361Z" transform="translate(-20.376 -127.9)" fill="#512e98"/>
    </g>
  </g>
</svg>
