<svg id="Grupo_31978" data-name="Grupo 31978" xmlns="http://www.w3.org/2000/svg" width="143.335" height="41.85" viewBox="0 0 143.335 41.85">
  <g id="amazon_prime" transform="translate(0 0)">
    <rect id="Rectángulo_22547" data-name="Rectángulo 22547" width="143.335" height="41.85" rx="2.374" fill="#070606"/>
    <path id="Trazado_84743" data-name="Trazado 84743" d="M1820.386,23.772a4.4,4.4,0,0,1,4.394,4.394V59.553a4.4,4.4,0,0,1-4.394,4.394H1687.513a4.4,4.4,0,0,1-4.395-4.394V28.166a4.4,4.4,0,0,1,4.395-4.394h132.873m0-.837H1687.513a5.247,5.247,0,0,0-5.232,5.231V59.553a5.247,5.247,0,0,0,5.232,5.231h132.873a5.246,5.246,0,0,0,5.231-5.231V28.166a5.246,5.246,0,0,0-5.231-5.231Z" transform="translate(-1682.281 -22.935)" fill="#a19990"/>
  </g>
  <g id="Grupo_31359" data-name="Grupo 31359" transform="translate(7.849 6.171)">
    <g id="Grupo_31357" data-name="Grupo 31357" transform="translate(0 10.208)">
      <g id="Grupo_31355" data-name="Grupo 31355" transform="translate(0 2.124)">
        <path id="Trazado_84744" data-name="Trazado 84744" d="M1771.146,141.04a21.22,21.22,0,0,1-11.982,3.662,21.683,21.683,0,0,1-14.636-5.584c-.3-.274-.032-.648.332-.436a29.462,29.462,0,0,0,14.645,3.886,29.141,29.141,0,0,0,11.171-2.286C1771.224,140.051,1771.683,140.644,1771.146,141.04Z" transform="translate(-1736.551 -127.898)" fill="#fff" fill-rule="evenodd"/>
        <path id="Trazado_84745" data-name="Trazado 84745" d="M1843.632,137.776c-.414-.531-2.74-.251-3.784-.126-.316.038-.365-.238-.08-.439,1.855-1.3,4.894-.926,5.247-.49s-.094,3.487-1.832,4.94c-.267.224-.521.1-.4-.191C1843.171,140.494,1844.047,138.307,1843.632,137.776Z" transform="translate(-1807.688 -126.173)" fill="#fff" fill-rule="evenodd"/>
        <path id="Trazado_84746" data-name="Trazado 84746" d="M1839.976,98.747V97.481a.312.312,0,0,1,.321-.32h5.674a.316.316,0,0,1,.326.319v1.086a1.771,1.771,0,0,1-.427.8l-2.938,4.2a6.3,6.3,0,0,1,3.236.695.58.58,0,0,1,.3.494V106.1c0,.186-.2.4-.418.289a6.534,6.534,0,0,0-5.994.011c-.2.105-.4-.107-.4-.294V104.82a1.529,1.529,0,0,1,.211-.87l3.405-4.885H1840.3A.315.315,0,0,1,1839.976,98.747Z" transform="translate(-1807.743 -96.911)" fill="#fff" fill-rule="evenodd"/>
        <path id="Trazado_84747" data-name="Trazado 84747" d="M1753,106.17h-1.725a.325.325,0,0,1-.31-.292l0-8.858a.325.325,0,0,1,.333-.319h1.607a.326.326,0,0,1,.314.3v1.156h.032a2.371,2.371,0,0,1,4.511,0,2.549,2.549,0,0,1,4.382-.671,4.7,4.7,0,0,1,.436,2.777l0,5.59a.326.326,0,0,1-.333.319h-1.724a.324.324,0,0,1-.31-.318v-4.7a11.2,11.2,0,0,0-.048-1.659.9.9,0,0,0-1.015-.765,1.145,1.145,0,0,0-1.031.727,5.365,5.365,0,0,0-.161,1.7v4.7a.325.325,0,0,1-.333.319H1755.9a.324.324,0,0,1-.311-.318l0-4.7c0-.988.162-2.441-1.062-2.441-1.241,0-1.192,1.416-1.192,2.441v4.7A.326.326,0,0,1,1753,106.17Z" transform="translate(-1741.46 -96.429)" fill="#fff" fill-rule="evenodd"/>
        <path id="Trazado_84748" data-name="Trazado 84748" d="M1873.8,96.514c2.562,0,3.947,2.2,3.947,5,0,2.7-1.53,4.847-3.947,4.847-2.513,0-3.883-2.2-3.883-4.94C1869.917,98.658,1871.3,96.514,1873.8,96.514Zm.016,1.809c-1.272,0-1.353,1.733-1.353,2.814s-.016,3.393,1.337,3.393c1.337,0,1.4-1.864,1.4-3a8.179,8.179,0,0,0-.258-2.349A1.08,1.08,0,0,0,1873.816,98.323Z" transform="translate(-1830.362 -96.429)" fill="#fff" fill-rule="evenodd"/>
        <path id="Trazado_84749" data-name="Trazado 84749" d="M1908.049,106.17h-1.72a.324.324,0,0,1-.31-.318l0-8.861a.327.327,0,0,1,.332-.289h1.6a.328.328,0,0,1,.307.248V98.3h.032a2.347,2.347,0,0,1,2.352-1.79,2.262,2.262,0,0,1,2.014,1.044,5.638,5.638,0,0,1,.451,2.759v5.574a.328.328,0,0,1-.331.279h-1.73a.325.325,0,0,1-.307-.279v-4.81c0-.97.112-2.386-1.08-2.386a1.13,1.13,0,0,0-1,.708,3.939,3.939,0,0,0-.274,1.678v4.77A.33.33,0,0,1,1908.049,106.17Z" transform="translate(-1857.341 -96.429)" fill="#fff" fill-rule="evenodd"/>
        <path id="Trazado_84750" data-name="Trazado 84750" d="M1807.985,101.687a3.389,3.389,0,0,1-.323,1.831,1.4,1.4,0,0,1-1.194.784c-.662,0-1.05-.5-1.05-1.252,0-1.47,1.318-1.737,2.567-1.737Zm1.74,4.208a.357.357,0,0,1-.408.04,4.2,4.2,0,0,1-.989-1.15,3.421,3.421,0,0,1-2.846,1.255,2.45,2.45,0,0,1-2.583-2.69,2.932,2.932,0,0,1,1.841-2.821,11.939,11.939,0,0,1,3.245-.6v-.224a2.207,2.207,0,0,0-.21-1.252,1.154,1.154,0,0,0-.969-.449,1.314,1.314,0,0,0-1.387,1.036.365.365,0,0,1-.3.318l-1.673-.181a.3.3,0,0,1-.258-.361c.385-2.029,2.217-2.642,3.859-2.642a3.915,3.915,0,0,1,2.6.859c.839.785.758,1.831.758,2.971v2.688a2.356,2.356,0,0,0,.652,1.6.326.326,0,0,1-.006.459c-.353.3-.979.839-1.324,1.146Z" transform="translate(-1780.274 -96.176)" fill="#fff" fill-rule="evenodd"/>
        <path id="Trazado_84751" data-name="Trazado 84751" d="M1718.427,101.687a3.386,3.386,0,0,1-.322,1.831,1.4,1.4,0,0,1-1.2.784c-.662,0-1.05-.5-1.05-1.252,0-1.47,1.319-1.737,2.567-1.737Zm1.74,4.208a.356.356,0,0,1-.407.04,4.186,4.186,0,0,1-.99-1.15,3.421,3.421,0,0,1-2.846,1.255,2.45,2.45,0,0,1-2.583-2.69,2.932,2.932,0,0,1,1.84-2.821,11.951,11.951,0,0,1,3.245-.6v-.224a2.209,2.209,0,0,0-.209-1.252,1.154,1.154,0,0,0-.969-.449,1.314,1.314,0,0,0-1.387,1.036.365.365,0,0,1-.3.318l-1.673-.181a.3.3,0,0,1-.258-.361c.385-2.029,2.217-2.642,3.86-2.642a3.916,3.916,0,0,1,2.6.859c.839.785.759,1.831.759,2.971v2.688a2.358,2.358,0,0,0,.651,1.6.326.326,0,0,1-.005.459c-.352.3-.979.839-1.323,1.146Z" transform="translate(-1713.341 -96.176)" fill="#fff" fill-rule="evenodd"/>
      </g>
      <g id="Grupo_31356" data-name="Grupo 31356" transform="translate(59.935)">
        <path id="Trazado_84752" data-name="Trazado 84752" d="M1953.414,106.4a2.821,2.821,0,0,1-2.045-.757,2.839,2.839,0,0,1,.18-4.091,3.941,3.941,0,0,1,2.586-.793,9.083,9.083,0,0,1,2.09.27V99.965a1.677,1.677,0,0,0-.4-1.279,2.067,2.067,0,0,0-1.387-.361,8.334,8.334,0,0,0-1.316.117,8.887,8.887,0,0,0-1.369.333,1.112,1.112,0,0,1-.306.054c-.156,0-.234-.113-.234-.342V97.82a.676.676,0,0,1,.072-.359.885.885,0,0,1,.379-.235,8.611,8.611,0,0,1,3.117-.541,3.921,3.921,0,0,1,2.6.721,2.809,2.809,0,0,1,.84,2.253v6.073a.351.351,0,0,1-.4.4h-.956a.4.4,0,0,1-.451-.361l-.09-.522a5,5,0,0,1-1.4.847A4.077,4.077,0,0,1,1953.414,106.4Zm.595-1.514a3,3,0,0,0,1.1-.226,4.493,4.493,0,0,0,1.117-.639v-1.73a8.483,8.483,0,0,0-1.694-.2q-1.875,0-1.875,1.46a1.308,1.308,0,0,0,.361.982A1.36,1.36,0,0,0,1954.009,104.885Z" transform="translate(-1950.584 -94.432)" fill="#fff"/>
        <path id="Trazado_84753" data-name="Trazado 84753" d="M1988.81,109.842a.351.351,0,0,1-.4-.4V97.352a.35.35,0,0,1,.4-.4h.991a.422.422,0,0,1,.469.36l.108.559a4.57,4.57,0,0,1,1.4-.883,4.249,4.249,0,0,1,1.595-.306,3.311,3.311,0,0,1,2.73,1.279,5.38,5.38,0,0,1,1.018,3.443,6.393,6.393,0,0,1-.5,2.613,3.916,3.916,0,0,1-1.38,1.712,3.523,3.523,0,0,1-2.017.595,4.146,4.146,0,0,1-1.46-.262,3.781,3.781,0,0,1-1.226-.729v4.109a.351.351,0,0,1-.4.4Zm3.875-5.19a1.959,1.959,0,0,0,1.711-.785,4.127,4.127,0,0,0,.559-2.388,4.054,4.054,0,0,0-.55-2.352,1.955,1.955,0,0,0-1.7-.765,3.726,3.726,0,0,0-2.163.685v4.9A3.694,3.694,0,0,0,1992.685,104.651Z" transform="translate(-1978.856 -94.432)" fill="#fff"/>
        <path id="Trazado_84754" data-name="Trazado 84754" d="M2029.33,109.842a.351.351,0,0,1-.4-.4V97.352a.35.35,0,0,1,.4-.4h.991a.422.422,0,0,1,.47.36l.108.559a4.57,4.57,0,0,1,1.4-.883,4.255,4.255,0,0,1,1.595-.306,3.31,3.31,0,0,1,2.73,1.279,5.38,5.38,0,0,1,1.019,3.443,6.4,6.4,0,0,1-.5,2.613,3.926,3.926,0,0,1-1.379,1.712,3.531,3.531,0,0,1-2.019.595,4.145,4.145,0,0,1-1.46-.262,3.8,3.8,0,0,1-1.227-.729v4.109a.35.35,0,0,1-.4.4Zm3.875-5.19a1.958,1.958,0,0,0,1.711-.785,4.127,4.127,0,0,0,.559-2.388,4.054,4.054,0,0,0-.549-2.352,1.954,1.954,0,0,0-1.7-.765,3.729,3.729,0,0,0-2.163.685v4.9A3.7,3.7,0,0,0,2033.2,104.651Z" transform="translate(-2009.14 -94.432)" fill="#fff"/>
        <path id="Trazado_84755" data-name="Trazado 84755" d="M2070.06,106.4a7.2,7.2,0,0,1-2.631-.469.8.8,0,0,1-.37-.226.7.7,0,0,1-.081-.387v-.649q0-.36.253-.361a2.408,2.408,0,0,1,.5.108,8.566,8.566,0,0,0,2.307.36,2.4,2.4,0,0,0,1.314-.279.962.962,0,0,0,.415-.856.844.844,0,0,0-.251-.64,2.812,2.812,0,0,0-.937-.5l-1.5-.577a2.653,2.653,0,0,1-2.02-2.523,2.392,2.392,0,0,1,.938-1.992,3.97,3.97,0,0,1,2.5-.73,7.12,7.12,0,0,1,2.253.378.759.759,0,0,1,.361.207.685.685,0,0,1,.09.405v.632a.469.469,0,0,1-.063.279.268.268,0,0,1-.225.081,2.645,2.645,0,0,1-.45-.09,8.38,8.38,0,0,0-1.839-.27,2.35,2.35,0,0,0-1.216.243.837.837,0,0,0-.387.765.809.809,0,0,0,.279.641,3.759,3.759,0,0,0,1,.531l1.387.541a3.7,3.7,0,0,1,1.559.991,2.21,2.21,0,0,1,.479,1.46,2.6,2.6,0,0,1-.974,2.135A4.2,4.2,0,0,1,2070.06,106.4Z" transform="translate(-2037.574 -94.432)" fill="#fff"/>
        <path id="Trazado_84756" data-name="Trazado 84756" d="M2100.854,99.59a2.919,2.919,0,0,1-2.108-.666,2.727,2.727,0,0,1-.686-2.036V91.912h-1.153a.35.35,0,0,1-.4-.4v-.522a.494.494,0,0,1,.091-.334.5.5,0,0,1,.289-.135l1.243-.18.27-2.181a.43.43,0,0,1,.127-.307.5.5,0,0,1,.324-.09h.938a.351.351,0,0,1,.4.4v2.127h2.217a.35.35,0,0,1,.4.4v.829a.35.35,0,0,1-.4.4h-2.217v4.867a1.112,1.112,0,0,0,.3.873,1.509,1.509,0,0,0,1,.262,3.3,3.3,0,0,0,.666-.054,2.1,2.1,0,0,1,.415-.054q.307,0,.307.342V98.8a.641.641,0,0,1-.1.406.713.713,0,0,1-.37.189A6.063,6.063,0,0,1,2100.854,99.59Z" transform="translate(-2059.646 -87.767)" fill="#fff"/>
        <path id="Trazado_84757" data-name="Trazado 84757" d="M2128.354,106.4a4.183,4.183,0,0,1-3.262-1.289,6.033,6.033,0,0,1,0-7.146,4.8,4.8,0,0,1,6.523,0,6.031,6.031,0,0,1,0,7.146A4.182,4.182,0,0,1,2128.354,106.4Zm0-1.677q2.27,0,2.27-3.19,0-3.172-2.27-3.171t-2.271,3.171Q2126.083,104.722,2128.354,104.723Z" transform="translate(-2080.13 -94.432)" fill="#fff"/>
        <path id="Trazado_84758" data-name="Trazado 84758" d="M2165.406,106.715a.35.35,0,0,1-.4-.4v-8.38a.35.35,0,0,1,.4-.4h.955a.626.626,0,0,1,.352.071.407.407,0,0,1,.134.271l.218,1.027a5.024,5.024,0,0,1,1.351-1.117,2.947,2.947,0,0,1,1.37-.325h.073a1.4,1.4,0,0,1,.387.045.357.357,0,0,1,.217.153.865.865,0,0,1,.063.4v.974c0,.252-.109.378-.325.378-.072,0-.17-.006-.3-.018s-.262-.017-.406-.017a4.159,4.159,0,0,0-2.36.684v6.254a.35.35,0,0,1-.4.4Z" transform="translate(-2110.84 -95.019)" fill="#fff"/>
        <path id="Trazado_84759" data-name="Trazado 84759" d="M2193.36,106.4a4.542,4.542,0,0,1-3.442-1.226,4.97,4.97,0,0,1-1.172-3.568,5.293,5.293,0,0,1,1.145-3.623,4.039,4.039,0,0,1,3.2-1.3,3.63,3.63,0,0,1,2.712.965,3.732,3.732,0,0,1,.947,2.73,9.5,9.5,0,0,1-.09,1.279.507.507,0,0,1-.134.316.4.4,0,0,1-.262.082h-5.551a2.723,2.723,0,0,0,.767,2.009,3.193,3.193,0,0,0,2.189.64,8.187,8.187,0,0,0,2.271-.343l.216-.054a.58.58,0,0,1,.128-.017c.18,0,.269.119.269.361v.649a.693.693,0,0,1-.081.387.793.793,0,0,1-.37.225A7.266,7.266,0,0,1,2193.36,106.4Zm1.515-5.768v-.144a2.57,2.57,0,0,0-.478-1.677,1.711,1.711,0,0,0-1.4-.576,2.084,2.084,0,0,0-1.586.649,2.788,2.788,0,0,0-.7,1.748Z" transform="translate(-2128.58 -94.432)" fill="#fff"/>
      </g>
    </g>
    <g id="Grupo_31358" data-name="Grupo 31358" transform="translate(36.58)">
      <path id="Trazado_84760" data-name="Trazado 84760" d="M1860.144,54.432a1.846,1.846,0,0,1-1.073-.311,1.964,1.964,0,0,1-.692-.866,3.227,3.227,0,0,1-.24-1.29,3.374,3.374,0,0,1,.254-1.361,1.98,1.98,0,0,1,.716-.885,1.877,1.877,0,0,1,1.064-.307,2.208,2.208,0,0,1,1.44.528V47.549a.167.167,0,0,1,.189-.189h.556a.166.166,0,0,1,.188.189V54.14a.166.166,0,0,1-.187.188h-.415a.224.224,0,0,1-.136-.038.258.258,0,0,1-.08-.151l-.075-.3a2.289,2.289,0,0,1-.706.438A2.183,2.183,0,0,1,1860.144,54.432Zm.282-.753a2.029,2.029,0,0,0,1.186-.433V50.581a2.118,2.118,0,0,0-.588-.315,2.068,2.068,0,0,0-.655-.1q-1.28,0-1.28,1.77Q1859.089,53.679,1860.427,53.679Z" transform="translate(-1858.138 -47.36)" fill="#fff"/>
      <path id="Trazado_84761" data-name="Trazado 84761" d="M1880.825,49.348a.575.575,0,0,1-.427-.155.616.616,0,0,1,0-.82.669.669,0,0,1,.856,0,.618.618,0,0,1,0,.82A.579.579,0,0,1,1880.825,49.348Zm-.282,5.622a.166.166,0,0,1-.188-.188v-4.4a.166.166,0,0,1,.188-.188h.556a.166.166,0,0,1,.188.188v4.4a.166.166,0,0,1-.188.188Z" transform="translate(-1874.657 -48.001)" fill="#fff"/>
      <path id="Trazado_84762" data-name="Trazado 84762" d="M1889.761,60.542a3.659,3.659,0,0,1-1.422-.264.374.374,0,0,1-.155-.1.3.3,0,0,1-.042-.179v-.263q0-.169.113-.169a.888.888,0,0,1,.235.056,4.229,4.229,0,0,0,1.291.2,1.161,1.161,0,0,0,.7-.179.607.607,0,0,0,.24-.518.49.49,0,0,0-.146-.367,1.588,1.588,0,0,0-.532-.282l-.8-.3a1.362,1.362,0,0,1-1.045-1.318,1.2,1.2,0,0,1,.476-.989,1.947,1.947,0,0,1,1.248-.377,3.422,3.422,0,0,1,1.2.217.328.328,0,0,1,.16.1.3.3,0,0,1,.047.183v.254c0,.113-.041.17-.122.17a.846.846,0,0,1-.217-.047,3.494,3.494,0,0,0-1.016-.151q-.9,0-.9.612a.5.5,0,0,0,.151.386,1.95,1.95,0,0,0,.593.311l.734.282a1.93,1.93,0,0,1,.8.513,1.165,1.165,0,0,1,.245.768,1.287,1.287,0,0,1-.5,1.064A2.077,2.077,0,0,1,1889.761,60.542Z" transform="translate(-1880.562 -53.432)" fill="#fff"/>
      <path id="Trazado_84763" data-name="Trazado 84763" d="M1905.216,62.34a.166.166,0,0,1-.188-.188V55.815a.166.166,0,0,1,.188-.188h.414a.2.2,0,0,1,.217.188l.047.3a2.352,2.352,0,0,1,1.592-.631,1.743,1.743,0,0,1,1.441.664,2.822,2.822,0,0,1,.527,1.8,2.89,2.89,0,0,1-.555,1.855,1.8,1.8,0,0,1-1.479.7,2.1,2.1,0,0,1-1.459-.556v2.2a.167.167,0,0,1-.188.188Zm1.986-2.589q1.3,0,1.3-1.751a2.262,2.262,0,0,0-.315-1.328,1.115,1.115,0,0,0-.965-.433,2.1,2.1,0,0,0-1.262.433V59.3A2.076,2.076,0,0,0,1907.2,59.751Z" transform="translate(-1893.182 -53.432)" fill="#fff"/>
      <path id="Trazado_84764" data-name="Trazado 84764" d="M1927.843,60.542a2.142,2.142,0,0,1-1.676-.668,3.173,3.173,0,0,1,0-3.72,2.435,2.435,0,0,1,3.353,0,3.172,3.172,0,0,1,0,3.72A2.142,2.142,0,0,1,1927.843,60.542Zm0-.753q1.329,0,1.328-1.78t-1.328-1.77q-1.327,0-1.327,1.77T1927.843,59.789Z" transform="translate(-1908.53 -53.432)" fill="#fff"/>
      <path id="Trazado_84765" data-name="Trazado 84765" d="M1947.78,60.4a.167.167,0,0,1-.189-.188v-4.4a.166.166,0,0,1,.189-.188h.414a.246.246,0,0,1,.146.038.214.214,0,0,1,.071.141l.057.348a3.1,3.1,0,0,1,1.883-.669,1.407,1.407,0,0,1,1.045.363,1.435,1.435,0,0,1,.358,1.05v3.314a.167.167,0,0,1-.188.188h-.556a.167.167,0,0,1-.189-.188v-3a1.112,1.112,0,0,0-.2-.735.8.8,0,0,0-.636-.235,2.59,2.59,0,0,0-1.459.48v3.493a.167.167,0,0,1-.188.188Z" transform="translate(-1924.993 -53.432)" fill="#fff"/>
      <path id="Trazado_84766" data-name="Trazado 84766" d="M1969.233,49.348a.579.579,0,0,1-.429-.155.618.618,0,0,1,0-.82.669.669,0,0,1,.857,0,.618.618,0,0,1,0,.82A.576.576,0,0,1,1969.233,49.348Zm-.283,5.622a.167.167,0,0,1-.188-.188v-4.4a.166.166,0,0,1,.188-.188h.556a.166.166,0,0,1,.188.188v4.4a.166.166,0,0,1-.188.188Z" transform="translate(-1940.73 -48.001)" fill="#fff"/>
      <path id="Trazado_84767" data-name="Trazado 84767" d="M1980.286,54.432a2.157,2.157,0,0,1-1.516-.6l-.066.311a.2.2,0,0,1-.216.188h-.406a.166.166,0,0,1-.188-.188V47.549a.166.166,0,0,1,.188-.189h.556a.167.167,0,0,1,.188.189v2.458a2.328,2.328,0,0,1,1.525-.594,1.745,1.745,0,0,1,1.441.66,2.821,2.821,0,0,1,.528,1.808,2.9,2.9,0,0,1-.555,1.855A1.8,1.8,0,0,1,1980.286,54.432Zm-.217-.753q1.3,0,1.3-1.751a2.263,2.263,0,0,0-.315-1.328,1.116,1.116,0,0,0-.966-.433,2.1,2.1,0,0,0-1.261.433v2.627A2.023,2.023,0,0,0,1980.069,53.679Z" transform="translate(-1947.64 -47.36)" fill="#fff"/>
      <path id="Trazado_84768" data-name="Trazado 84768" d="M2000.424,54.375a.983.983,0,0,1-.763-.287,1.174,1.174,0,0,1-.264-.824V47.549a.167.167,0,0,1,.188-.189h.556a.166.166,0,0,1,.188.189v5.659a.459.459,0,0,0,.09.315.384.384,0,0,0,.3.1.742.742,0,0,0,.118-.01.711.711,0,0,1,.108-.009.148.148,0,0,1,.128.047.253.253,0,0,1,.033.141v.3a.224.224,0,0,1-.042.146.28.28,0,0,1-.146.08A2.116,2.116,0,0,1,2000.424,54.375Z" transform="translate(-1963.711 -47.36)" fill="#fff"/>
      <path id="Trazado_84769" data-name="Trazado 84769" d="M2010.838,60.542a2.267,2.267,0,0,1-1.75-.64,3.261,3.261,0,0,1,0-3.752,2.107,2.107,0,0,1,1.657-.664,1.809,1.809,0,0,1,1.375.5,1.985,1.985,0,0,1,.48,1.426,4.132,4.132,0,0,1-.048.612.264.264,0,0,1-.06.151.207.207,0,0,1-.137.038H2009.4a1.7,1.7,0,0,0,.4,1.2,1.6,1.6,0,0,0,1.181.386,3.773,3.773,0,0,0,.542-.037,4.473,4.473,0,0,0,.655-.16l.112-.033a.291.291,0,0,1,.085-.014c.081,0,.123.057.123.17v.264a.3.3,0,0,1-.038.174.418.418,0,0,1-.16.108,3.25,3.25,0,0,1-.673.2A4.174,4.174,0,0,1,2010.838,60.542Zm.905-2.947c.005-.05.008-.132.008-.245a1.239,1.239,0,0,0-.268-.866,1.016,1.016,0,0,0-.786-.292,1.2,1.2,0,0,0-.923.353,1.666,1.666,0,0,0-.377,1.05Z" transform="translate(-1970.509 -53.432)" fill="#fff"/>
      <path id="Trazado_84770" data-name="Trazado 84770" d="M2039.2,60.542a2.27,2.27,0,0,1-1.751-.64,3.259,3.259,0,0,1,0-3.752,2.109,2.109,0,0,1,1.657-.664,1.811,1.811,0,0,1,1.375.5,1.989,1.989,0,0,1,.48,1.426,4.037,4.037,0,0,1-.048.612.264.264,0,0,1-.06.151.207.207,0,0,1-.137.038h-2.957a1.7,1.7,0,0,0,.4,1.2,1.6,1.6,0,0,0,1.181.386,3.77,3.77,0,0,0,.542-.037,4.467,4.467,0,0,0,.655-.16l.112-.033a.29.29,0,0,1,.084-.014c.083,0,.123.057.123.17v.264a.305.305,0,0,1-.038.174.422.422,0,0,1-.159.108,3.242,3.242,0,0,1-.674.2A4.164,4.164,0,0,1,2039.2,60.542Zm.9-2.947a2.359,2.359,0,0,0,.009-.245,1.233,1.233,0,0,0-.269-.866,1.013,1.013,0,0,0-.785-.292,1.2,1.2,0,0,0-.923.353,1.66,1.66,0,0,0-.378,1.05Z" transform="translate(-1991.707 -53.432)" fill="#fff"/>
      <path id="Trazado_84771" data-name="Trazado 84771" d="M2057.173,60.4a.166.166,0,0,1-.187-.188v-4.4a.166.166,0,0,1,.187-.188h.416a.247.247,0,0,1,.146.038.22.22,0,0,1,.07.141l.057.348a3.1,3.1,0,0,1,1.883-.669,1.4,1.4,0,0,1,1.045.363,1.43,1.43,0,0,1,.357,1.05v3.314a.166.166,0,0,1-.188.188h-.556a.167.167,0,0,1-.188-.188v-3a1.114,1.114,0,0,0-.2-.735.8.8,0,0,0-.636-.235,2.587,2.587,0,0,0-1.459.48v3.493a.166.166,0,0,1-.189.188Z" transform="translate(-2006.751 -53.432)" fill="#fff"/>
    </g>
  </g>
</svg>
