<svg xmlns="http://www.w3.org/2000/svg" width="134.715" height="41.455" viewBox="0 0 134.715 41.455">
  <g id="androidTV" transform="translate(0.25 0.25)">
    <path id="Trazado_84686" data-name="Trazado 84686" d="M2402.235,58.667a5.661,5.661,0,0,1-5.779,5.535H2273.8a5.662,5.662,0,0,1-5.78-5.535V28.782a5.662,5.662,0,0,1,5.78-5.535h122.655a5.661,5.661,0,0,1,5.779,5.535Z" transform="translate(-2268.021 -23.247)" fill="#070606" stroke="#fff" stroke-width="0.5"/>
    <g id="surface1" transform="translate(21.858 13.251)">
      <path id="Trazado_84689" data-name="Trazado 84689" d="M2392.038,82.767h-.026V89.39h1.489V83.224h.014a3.531,3.531,0,0,1,3.324-3.478V78.237A5.033,5.033,0,0,0,2392.038,82.767Zm14.52,1.159a4.1,4.1,0,1,1-4.1-4.125A4.111,4.111,0,0,1,2406.557,83.925Zm-4.1-5.7a5.7,5.7,0,1,0,5.661,5.7A5.68,5.68,0,0,0,2402.459,78.227Zm-24.93,4.635a5.016,5.016,0,0,0-10,0h-.022V89.39h1.49V83.224h.013a3.521,3.521,0,0,1,7.041,0h.013V89.39h1.49V82.862Zm44.794,3.115v-4.1a4.242,4.242,0,0,0-3.663-2.073,4.126,4.126,0,1,0,0,8.249A4.243,4.243,0,0,0,2422.323,85.977Zm1.489-10.28V89.39h-1.489V88.18a5.608,5.608,0,0,1-3.757,1.443,5.7,5.7,0,0,1,0-11.4,5.6,5.6,0,0,1,3.757,1.442V75.7Zm-35.15,10.224V81.929a4.242,4.242,0,0,0-3.7-2.129,4.126,4.126,0,1,0,0,8.249A4.239,4.239,0,0,0,2388.663,85.921Zm1.49-10.224V89.39h-1.49V88.148a5.608,5.608,0,0,1-3.792,1.475,5.7,5.7,0,0,1,0-11.4,5.6,5.6,0,0,1,3.792,1.475V75.7Zm-25.987,9.953V82.2a4.229,4.229,0,0,0-3.834-2.4,4.126,4.126,0,1,0,0,8.249A4.228,4.228,0,0,0,2364.166,85.65Zm1.49-7.221V89.39h-1.49v-1.4a5.608,5.608,0,0,1-3.961,1.639,5.7,5.7,0,0,1,0-11.4,5.608,5.608,0,0,1,3.961,1.639V78.43Zm45.634-2.737h-1.49v1.621h1.49Zm0,13.7h-1.49V78.43h1.49V89.39" transform="translate(-2354.543 -75.692)" fill="#fff"/>
      <path id="Trazado_84690" data-name="Trazado 84690" d="M2641.2,79.317h3.464v-.872H2641.2V75.713h-.866v9.522c-.005.08,0,.452,0,.452l.028.311A3.909,3.909,0,0,0,2644.2,89.4h.464v-.872h-.37s-.185-.013-.211-.013a3.011,3.011,0,0,1-1.349-.393,3.045,3.045,0,0,1-1.534-2.65c0-.011,0-.021,0-.032h0Zm5.271-.882,5.028,10.95m-.434.021h-.454l-4.975-10.96h.866L2650.839,88l4.336-9.551h.865l-4.975,10.96" transform="translate(-2568.134 -75.708)" fill="#fff"/>
    </g>
  </g>
</svg>
