<svg id="Grupo_31981" data-name="Grupo 31981" xmlns="http://www.w3.org/2000/svg" width="144.36" height="43.308" viewBox="0 0 144.36 43.308">
  <g id="Appgallery">
    <g id="Grupo_31338" data-name="Grupo 31338">
      <path id="Trazado_84691" data-name="Trazado 84691" d="M1247.63,22.484H1123.645c-.392,0-.779,0-1.17,0-.327,0-.652.008-.982.014a14.132,14.132,0,0,0-2.142.189,7.123,7.123,0,0,0-2.031.67,6.88,6.88,0,0,0-1.73,1.26,6.694,6.694,0,0,0-1.259,1.732,7.071,7.071,0,0,0-.668,2.034,13.922,13.922,0,0,0-.192,2.14c-.01.328-.011.656-.016.984V56.77c.005.332.006.653.016.985a13.922,13.922,0,0,0,.192,2.14,7.052,7.052,0,0,0,.668,2.035,6.9,6.9,0,0,0,2.99,2.985,7.155,7.155,0,0,0,2.031.674,14.37,14.37,0,0,0,2.142.189c.33.007.655.011.982.011.391,0,.778,0,1.17,0H1247.63c.384,0,.774,0,1.158,0,.325,0,.659,0,.985-.011a14.184,14.184,0,0,0,2.137-.189,7.276,7.276,0,0,0,2.04-.674,6.723,6.723,0,0,0,1.728-1.26,6.833,6.833,0,0,0,1.262-1.725,7.054,7.054,0,0,0,.662-2.035,14.339,14.339,0,0,0,.2-2.14c0-.332,0-.653,0-.985.008-.388.008-.774.008-1.169V32.676c0-.391,0-.78-.008-1.167,0-.328,0-.656,0-.984a14.339,14.339,0,0,0-.2-2.14,7.073,7.073,0,0,0-.662-2.034,6.909,6.909,0,0,0-2.991-2.992,7.243,7.243,0,0,0-2.04-.67,13.952,13.952,0,0,0-2.137-.189c-.326-.005-.66-.011-.985-.014-.384,0-.774,0-1.158,0Z" transform="translate(-1113.454 -22.484)" fill="#b4aea6"/>
      <path id="Trazado_84692" data-name="Trazado 84692" d="M1125.134,67.518c-.326,0-.643,0-.966-.011a13.525,13.525,0,0,1-2-.174,6.293,6.293,0,0,1-1.77-.585,5.778,5.778,0,0,1-1.493-1.087,5.685,5.685,0,0,1-1.091-1.493,6.116,6.116,0,0,1-.58-1.771,13.238,13.238,0,0,1-.178-2c-.007-.225-.016-.976-.016-.976V34.17s.01-.739.016-.956a13.214,13.214,0,0,1,.177-2,6.162,6.162,0,0,1,.581-1.776,5.747,5.747,0,0,1,1.085-1.494,5.945,5.945,0,0,1,1.5-1.093,6.221,6.221,0,0,1,1.766-.581,13.439,13.439,0,0,1,2-.175l.964-.013h126.3l.976.014a13.215,13.215,0,0,1,1.986.174,6.344,6.344,0,0,1,1.786.585,5.982,5.982,0,0,1,2.582,2.586,6.157,6.157,0,0,1,.572,1.762,13.854,13.854,0,0,1,.186,2.017c0,.3,0,.628,0,.951.008.4.008.782.008,1.167V58.262c0,.388,0,.767-.008,1.149,0,.348,0,.666,0,.994a13.628,13.628,0,0,1-.182,1.981,6.127,6.127,0,0,1-.577,1.785,5.847,5.847,0,0,1-1.085,1.481,5.77,5.77,0,0,1-1.5,1.093,6.263,6.263,0,0,1-1.783.588,13.362,13.362,0,0,1-2,.174c-.313.007-.641.011-.959.011l-1.159,0Z" transform="translate(-1116.109 -25.145)" fill="#070606"/>
    </g>
    <g id="Grupo_31339" data-name="Grupo 31339" transform="translate(45.546 6.083)">
      <path id="Trazado_84693" data-name="Trazado 84693" d="M1288.582,53.109h3.893l-.107,1.051h-2.485v1.6h2.339v.979h-2.339v1.779h2.625l-.095,1.06h-3.831Z" transform="translate(-1288.582 -51.227)" fill="#fff"/>
      <path id="Trazado_84694" data-name="Trazado 84694" d="M1307.482,56.279l-2.011-3.17h1.471l1.27,2.209,1.345-2.209h1.435l-2,3.129,2.164,3.344h-1.489l-1.462-2.436-1.466,2.436H1305.3Z" transform="translate(-1300.955 -51.227)" fill="#fff"/>
      <path id="Trazado_84695" data-name="Trazado 84695" d="M1330.832,53.109h1.815a3.162,3.162,0,0,1,1.94.512,1.742,1.742,0,0,1,.675,1.477,2.1,2.1,0,0,1-.294,1.122,1.916,1.916,0,0,1-.815.733,2.7,2.7,0,0,1-1.2.255,4.4,4.4,0,0,1-.823-.08v2.454h-1.3Zm2.81,2.841a1.077,1.077,0,0,0,.314-.834.919.919,0,0,0-.335-.8,1.7,1.7,0,0,0-.993-.242h-.5V56.18a3.481,3.481,0,0,0,.577.058A1.342,1.342,0,0,0,1333.642,55.95Z" transform="translate(-1319.844 -51.227)" fill="#fff"/>
      <path id="Trazado_84696" data-name="Trazado 84696" d="M1351.993,53.109h1.3v5.378h2.593l-.094,1.1h-3.8Z" transform="translate(-1335.501 -51.227)" fill="#fff"/>
      <path id="Trazado_84697" data-name="Trazado 84697" d="M1369.391,53.91a2.718,2.718,0,0,1-1.1-1.142,3.664,3.664,0,0,1-.38-1.71,3.766,3.766,0,0,1,.406-1.79,2.852,2.852,0,0,1,1.169-1.185,3.7,3.7,0,0,1,1.8-.418,3.436,3.436,0,0,1,1.714.4,2.7,2.7,0,0,1,1.1,1.138,3.658,3.658,0,0,1,.378,1.7,3.8,3.8,0,0,1-.411,1.808,2.858,2.858,0,0,1-1.174,1.187,3.671,3.671,0,0,1-1.786.416A3.434,3.434,0,0,1,1369.391,53.91Zm2.852-.9a1.825,1.825,0,0,0,.655-.825,3.086,3.086,0,0,0,.219-1.2,3.4,3.4,0,0,0-.191-1.18,1.754,1.754,0,0,0-.615-.827,1.793,1.793,0,0,0-1.085-.308,1.818,1.818,0,0,0-1.077.313,1.918,1.918,0,0,0-.664.838,2.96,2.96,0,0,0-.221,1.156,3.193,3.193,0,0,0,.21,1.193,1.819,1.819,0,0,0,.639.834,1.774,1.774,0,0,0,1.059.306A1.844,1.844,0,0,0,1372.243,53.012Zm-1.889-5.74,1.172-1.4,1.292.112-1.65,1.386Z" transform="translate(-1347.279 -45.872)" fill="#fff"/>
      <path id="Trazado_84698" data-name="Trazado 84698" d="M1397.766,53.109h2.124a2.818,2.818,0,0,1,1.739.449,1.52,1.52,0,0,1,.581,1.277,1.952,1.952,0,0,1-.7,1.533,2.185,2.185,0,0,1-.6.358l1.971,2.857h-1.493l-1.605-2.517h-.719v2.517h-1.3Zm1.851,3a1.44,1.44,0,0,0,.659-.145,1.067,1.067,0,0,0,.447-.409,1.165,1.165,0,0,0,.159-.612.767.767,0,0,0-.277-.655,1.344,1.344,0,0,0-.813-.208h-.724V56.1Z" transform="translate(-1369.37 -51.227)" fill="#fff"/>
      <path id="Trazado_84699" data-name="Trazado 84699" d="M1421.906,57.93h-2.477l-.585,1.641h-1.311l2.513-6.477h1.278l2.566,6.477h-1.39Zm-2.12-1h1.758l-.622-1.712q-.133-.353-.264-.827c-.071.262-.156.537-.254.822Z" transform="translate(-1383.996 -51.215)" fill="#fff"/>
      <path id="Trazado_84700" data-name="Trazado 84700" d="M1445.02,53.109h1.3v5.378h2.593l-.094,1.1h-3.8Z" transform="translate(-1404.334 -51.227)" fill="#fff"/>
      <path id="Trazado_84701" data-name="Trazado 84701" d="M1462.418,59.011a2.716,2.716,0,0,1-1.1-1.142,3.672,3.672,0,0,1-.38-1.71,3.765,3.765,0,0,1,.407-1.79,2.848,2.848,0,0,1,1.169-1.185,3.7,3.7,0,0,1,1.8-.418,3.438,3.438,0,0,1,1.715.4,2.7,2.7,0,0,1,1.095,1.138,3.657,3.657,0,0,1,.378,1.7,3.786,3.786,0,0,1-.411,1.808A2.855,2.855,0,0,1,1465.919,59a3.675,3.675,0,0,1-1.786.416A3.438,3.438,0,0,1,1462.418,59.011Zm2.853-.9a1.827,1.827,0,0,0,.655-.825,3.093,3.093,0,0,0,.219-1.2,3.4,3.4,0,0,0-.192-1.18,1.752,1.752,0,0,0-.615-.827,1.792,1.792,0,0,0-1.084-.308,1.818,1.818,0,0,0-1.077.313,1.912,1.912,0,0,0-.664.838,2.947,2.947,0,0,0-.221,1.156,3.2,3.2,0,0,0,.21,1.193,1.823,1.823,0,0,0,.64.834,1.771,1.771,0,0,0,1.059.306A1.845,1.845,0,0,0,1465.271,58.113Z" transform="translate(-1416.111 -50.973)" fill="#fff"/>
      <path id="Trazado_84702" data-name="Trazado 84702" d="M1501.778,53.109h3.893l-.107,1.051h-2.485v1.6h2.338v.979h-2.338v1.779h2.625l-.095,1.06h-3.83Z" transform="translate(-1446.331 -51.227)" fill="#fff"/>
      <path id="Trazado_84703" data-name="Trazado 84703" d="M1521.63,53.109h1.5l3,4.8q-.045-.8-.045-1.319V53.109h1.194v6.473h-1.452l-3.045-4.877q.05.845.05,1.52v3.357h-1.194Z" transform="translate(-1461.021 -51.227)" fill="#fff"/>
    </g>
    <g id="Grupo_31342" data-name="Grupo 31342" transform="translate(9.458 7.879)">
      <g id="Grupo_31340" data-name="Grupo 31340" transform="translate(35.644 11.32)">
        <path id="Trazado_84704" data-name="Trazado 84704" d="M1295.313,108.956H1290.3l-1.227,3.351h-2.2l4.906-12.516h2.082l5.018,12.516h-2.315Zm-4.378-1.7h3.74l-1.339-3.585q-.276-.743-.544-1.641-.242.795-.526,1.624Z" transform="translate(-1286.875 -98.885)" fill="#fff"/>
        <path id="Trazado_84705" data-name="Trazado 84705" d="M1336.663,113.869q0-1.037-.069-2.281h2a10.065,10.065,0,0,1,.156,1.184,3.776,3.776,0,0,1,2.851-1.356,3.214,3.214,0,0,1,3.01,1.956,5.949,5.949,0,0,1,.488,2.578,6.381,6.381,0,0,1-.558,2.79,3.984,3.984,0,0,1-1.559,1.754,4.442,4.442,0,0,1-2.314.6,5.7,5.7,0,0,1-1.875-.32v3.852l-2.133.182Zm5.61,4.763a4.25,4.25,0,0,0,.652-2.561,3.759,3.759,0,0,0-.539-2.267,1.722,1.722,0,0,0-1.438-.7,2.321,2.321,0,0,0-1.149.293,4.32,4.32,0,0,0-1,.786v4.992a3.234,3.234,0,0,0,.742.246,4,4,0,0,0,.839.091A2.217,2.217,0,0,0,1342.273,118.633Z" transform="translate(-1323.663 -107.486)" fill="#fff"/>
        <path id="Trazado_84706" data-name="Trazado 84706" d="M1374.363,113.869q0-1.037-.069-2.281h2a9.988,9.988,0,0,1,.155,1.184,3.775,3.775,0,0,1,2.851-1.356,3.216,3.216,0,0,1,3.01,1.956,5.96,5.96,0,0,1,.488,2.578,6.378,6.378,0,0,1-.557,2.79,3.982,3.982,0,0,1-1.559,1.754,4.44,4.44,0,0,1-2.314.6,5.7,5.7,0,0,1-1.874-.32v3.852l-2.134.182Zm5.61,4.763a4.247,4.247,0,0,0,.652-2.561,3.755,3.755,0,0,0-.54-2.267,1.721,1.721,0,0,0-1.438-.7,2.316,2.316,0,0,0-1.149.293,4.314,4.314,0,0,0-1,.786v4.992a3.231,3.231,0,0,0,.742.246,4,4,0,0,0,.838.091A2.216,2.216,0,0,0,1379.973,118.633Z" transform="translate(-1351.559 -107.486)" fill="#fff"/>
        <path id="Trazado_84707" data-name="Trazado 84707" d="M1414.325,111.249a5.178,5.178,0,0,1-2.125-2.189,7.192,7.192,0,0,1-.743-3.369,7.02,7.02,0,0,1,.855-3.58,5.507,5.507,0,0,1,2.328-2.211,7.263,7.263,0,0,1,3.3-.738,8.713,8.713,0,0,1,2.06.237,8.937,8.937,0,0,1,1.828.652l-.544,1.641a7.556,7.556,0,0,0-3.248-.812,4.544,4.544,0,0,0-2.285.557,3.787,3.787,0,0,0-1.525,1.637,5.753,5.753,0,0,0-.544,2.609,6.309,6.309,0,0,0,.419,2.375,3.509,3.509,0,0,0,1.322,1.641,4,4,0,0,0,2.275.6,7.546,7.546,0,0,0,1.244-.1,6.478,6.478,0,0,0,1.166-.3v-2.531h-2.893v-1.658h4.966v5.269a11.087,11.087,0,0,1-2.25.769,10.566,10.566,0,0,1-2.346.268A6.643,6.643,0,0,1,1414.325,111.249Z" transform="translate(-1379.057 -98.418)" fill="#fff"/>
        <path id="Trazado_84708" data-name="Trazado 84708" d="M1464.866,120.909a8.2,8.2,0,0,1-.146-1.235,4.108,4.108,0,0,1-1.283,1,3.81,3.81,0,0,1-1.783.41,3.361,3.361,0,0,1-1.465-.315,2.445,2.445,0,0,1-1.049-.95,2.917,2.917,0,0,1-.389-1.55,2.665,2.665,0,0,1,.976-2.164,5.14,5.14,0,0,1,3.256-.808,11.827,11.827,0,0,1,1.693.121v-.182a2.348,2.348,0,0,0-.527-1.74,2.1,2.1,0,0,0-1.511-.506,5.911,5.911,0,0,0-1.46.2,7.681,7.681,0,0,0-1.365.475l-.337-1.555a8.187,8.187,0,0,1,1.5-.475,8.711,8.711,0,0,1,1.969-.216,5.158,5.158,0,0,1,2.056.367,2.694,2.694,0,0,1,1.321,1.261,5.154,5.154,0,0,1,.476,2.406v3.706q0,.579.069,1.753Zm-1.278-1.728a3.407,3.407,0,0,0,1.089-.795v-1.728a13.729,13.729,0,0,0-1.425-.095,2.9,2.9,0,0,0-1.827.427,1.432,1.432,0,0,0-.505,1.153,1.317,1.317,0,0,0,.366,1.024,1.433,1.433,0,0,0,1,.333A2.992,2.992,0,0,0,1463.588,119.181Z" transform="translate(-1414.051 -107.486)" fill="#fff"/>
        <path id="Trazado_84709" data-name="Trazado 84709" d="M1496.882,107.49V96.477l2.125-.173V107.11a1.34,1.34,0,0,0,.2.842.786.786,0,0,0,.643.246,2.4,2.4,0,0,0,.561-.095l.251,1.529a3.651,3.651,0,0,1-.739.194,5.013,5.013,0,0,1-.825.073Q1496.882,109.9,1496.882,107.49Z" transform="translate(-1442.265 -96.304)" fill="#fff"/>
        <path id="Trazado_84710" data-name="Trazado 84710" d="M1517.308,107.49V96.477l2.125-.173V107.11a1.342,1.342,0,0,0,.2.842.786.786,0,0,0,.644.246,2.4,2.4,0,0,0,.562-.095l.251,1.529a3.648,3.648,0,0,1-.739.194,5.009,5.009,0,0,1-.825.073Q1517.308,109.9,1517.308,107.49Z" transform="translate(-1457.379 -96.304)" fill="#fff"/>
        <path id="Trazado_84711" data-name="Trazado 84711" d="M1542.4,116.521h-6.1q.147,2.928,2.79,2.928a5.912,5.912,0,0,0,1.344-.16,8,8,0,0,0,1.318-.428l.465,1.46a7.934,7.934,0,0,1-3.515.76,5.134,5.134,0,0,1-2.505-.561,3.612,3.612,0,0,1-1.533-1.615,5.749,5.749,0,0,1-.514-2.54,6,6,0,0,1,.544-2.66,3.959,3.959,0,0,1,1.516-1.7,4.241,4.241,0,0,1,2.241-.587,3.766,3.766,0,0,1,2.207.618,3.692,3.692,0,0,1,1.314,1.645,5.872,5.872,0,0,1,.427,2.272Zm-2.082-1.356a2.652,2.652,0,0,0-.561-1.671,1.711,1.711,0,0,0-1.339-.557,1.8,1.8,0,0,0-1.352.561,2.979,2.979,0,0,0-.7,1.667Z" transform="translate(-1469.838 -107.486)" fill="#fff"/>
        <path id="Trazado_84712" data-name="Trazado 84712" d="M1572.279,113.93q0-.769-.069-2.341h2q.052.389.1.929c.031.36.053.652.065.877a7.809,7.809,0,0,1,.729-1.032,2.98,2.98,0,0,1,.838-.682,2.227,2.227,0,0,1,1.092-.263,3.042,3.042,0,0,1,.847.1l-.268,1.848a2.368,2.368,0,0,0-.691-.095,2.268,2.268,0,0,0-1.313.384,5.282,5.282,0,0,0-1.2,1.265v5.986h-2.125Z" transform="translate(-1498.002 -107.486)" fill="#fff"/>
        <path id="Trazado_84713" data-name="Trazado 84713" d="M1596.729,125.213a5.2,5.2,0,0,1-.769-.186l.389-1.554c.143.04.325.079.544.116a3.7,3.7,0,0,0,.622.056q1.416,0,2.125-1.823l.137-.345-3.437-9.4h2.289l1.728,5.252a16.829,16.829,0,0,1,.544,2.064q.242-1.011.57-2.022l1.754-5.295h2.15l-3.429,9.441a9.681,9.681,0,0,1-1.045,2.16,3.66,3.66,0,0,1-1.325,1.218,3.958,3.958,0,0,1-1.845.4A5.8,5.8,0,0,1,1596.729,125.213Z" transform="translate(-1515.576 -107.976)" fill="#fff"/>
      </g>
      <g id="Grupo_31341" data-name="Grupo 31341" transform="translate(0 0)">
        <path id="形状_1_拷贝_25" data-name="形状 1 拷贝 25" d="M7.751,0C2.076,0,0,2.076,0,7.751V19.8c0,5.675,2.076,7.751,7.751,7.751H19.8c5.675,0,7.755-2.076,7.755-7.751V7.751C27.551,2.076,25.475,0,19.8,0Z" transform="translate(0 0)" fill="#c00020"/>
        <path id="Trazado_84715" data-name="Trazado 84715" d="M1164.026,105.753h.73v3.6h-.73v-1.463h-1.65v1.463h-.731v-3.6h.731v1.453h1.65Zm4.117,2.062c0,.585-.291.9-.818.9s-.824-.322-.824-.924v-2.035h-.731v2.06a1.429,1.429,0,0,0,1.545,1.594,1.449,1.449,0,0,0,1.559-1.624v-2.032h-.73Zm8.447.415-.818-2.477h-.6l-.818,2.477-.8-2.475h-.778l1.255,3.6h.6l.819-2.365.819,2.365h.61l1.252-3.6h-.758Zm2.865-.425h1.33v-.656h-1.33v-.737h1.929v-.656h-2.651v3.6h2.72V108.7h-2Zm2.87,1.546h.721v-3.6h-.721Zm-12.007-.747-.328.75h-.747l1.587-3.6h.645l1.58,3.6h-.766l-.323-.75Zm.272-.649h1.1l-.554-1.289Z" transform="translate(-1158.571 -91.976)" fill="#fff"/>
        <path id="Trazado_84716" data-name="Trazado 84716" d="M1189.742,75.072a4.591,4.591,0,0,1-4.585-4.586h.648a3.938,3.938,0,1,0,7.876,0h.648A4.591,4.591,0,0,1,1189.742,75.072Z" transform="translate(-1175.967 -65.881)" fill="#fff"/>
      </g>
    </g>
  </g>
</svg>
