<svg id="appstore" xmlns="http://www.w3.org/2000/svg" width="129.56" height="43.308" viewBox="0 0 129.56 43.308">
  <g id="Grupo_31350" data-name="Grupo 31350">
    <g id="Grupo_31345" data-name="Grupo 31345">
      <g id="Grupo_31344" data-name="Grupo 31344">
        <path id="Trazado_84717" data-name="Trazado 84717" d="M119.243,22.671H10.323c-.4,0-.789,0-1.185,0-.331,0-.66.009-.995.014a14.321,14.321,0,0,0-2.17.191,7.222,7.222,0,0,0-2.058.679,6.972,6.972,0,0,0-1.752,1.276A6.78,6.78,0,0,0,.887,26.588,7.147,7.147,0,0,0,.21,28.649a14.058,14.058,0,0,0-.194,2.168c-.01.332-.011.665-.016,1V56.839c.005.336.006.662.016,1A14.058,14.058,0,0,0,.21,60.005a7.131,7.131,0,0,0,.677,2.062,6.724,6.724,0,0,0,1.276,1.748,6.8,6.8,0,0,0,1.752,1.276,7.255,7.255,0,0,0,2.058.683,14.552,14.552,0,0,0,2.17.191c.335.008.663.012.995.012.4,0,.788,0,1.185,0h108.92c.389,0,.784,0,1.174,0,.33,0,.668,0,1-.012a14.361,14.361,0,0,0,2.165-.191,7.366,7.366,0,0,0,2.066-.683,6.8,6.8,0,0,0,1.751-1.276,6.922,6.922,0,0,0,1.279-1.748,7.15,7.15,0,0,0,.67-2.062,14.619,14.619,0,0,0,.2-2.168c0-.336,0-.662,0-1,.008-.393.008-.784.008-1.184V33c0-.4,0-.79-.008-1.182,0-.332,0-.665,0-1a14.619,14.619,0,0,0-.2-2.168,7.166,7.166,0,0,0-.67-2.061,7,7,0,0,0-3.03-3.031,7.331,7.331,0,0,0-2.066-.679,14.135,14.135,0,0,0-2.165-.191c-.33-.005-.668-.012-1-.014-.389,0-.785,0-1.174,0Z" transform="translate(0 -22.671)" fill="#a6a6a6"/>
        <path id="Trazado_84718" data-name="Trazado 84718" d="M11.94,67.834c-.33,0-.652,0-.979-.012a13.73,13.73,0,0,1-2.024-.177,6.365,6.365,0,0,1-1.794-.593,5.852,5.852,0,0,1-1.512-1.1,5.761,5.761,0,0,1-1.1-1.512,6.193,6.193,0,0,1-.588-1.794,13.465,13.465,0,0,1-.18-2.03c-.007-.228-.016-.989-.016-.989V34.616s.009-.749.016-.969a13.412,13.412,0,0,1,.179-2.027,6.231,6.231,0,0,1,.588-1.8,5.808,5.808,0,0,1,1.1-1.514A6.015,6.015,0,0,1,7.143,27.2a6.3,6.3,0,0,1,1.79-.589,13.676,13.676,0,0,1,2.031-.178l.977-.013H123.208l.989.014a13.453,13.453,0,0,1,2.012.176,6.431,6.431,0,0,1,1.809.593,6.058,6.058,0,0,1,2.615,2.62,6.235,6.235,0,0,1,.579,1.785,14.066,14.066,0,0,1,.188,2.043c0,.307,0,.636,0,.964.009.406.009.792.009,1.182v22.66c0,.393,0,.777-.009,1.164,0,.352,0,.675,0,1.006a13.823,13.823,0,0,1-.185,2.007,6.213,6.213,0,0,1-.585,1.808,5.942,5.942,0,0,1-1.1,1.5,5.864,5.864,0,0,1-1.515,1.107,6.347,6.347,0,0,1-1.806.6,13.575,13.575,0,0,1-2.024.177c-.317.007-.649.012-.972.012l-1.174,0Z" transform="translate(-2.797 -25.474)"/>
      </g>
    </g>
    <g id="Grupo_31349" data-name="Grupo 31349" transform="translate(10.796 9.442)">
      <g id="Grupo_31347" data-name="Grupo 31347">
        <g id="Grupo_31346" data-name="Grupo 31346">
          <path id="Trazado_84719" data-name="Trazado 84719" d="M58.756,89.406a5.358,5.358,0,0,1,2.551-4.5,5.485,5.485,0,0,0-4.321-2.336c-1.818-.191-3.581,1.088-4.507,1.088-.944,0-2.371-1.069-3.907-1.038a5.756,5.756,0,0,0-4.843,2.953C41.636,89.2,43.2,94.532,45.2,97.463c1,1.435,2.176,3.038,3.711,2.981,1.5-.062,2.063-.958,3.875-.958,1.8,0,2.322.958,3.888.922,1.612-.026,2.627-1.442,3.6-2.89a11.872,11.872,0,0,0,1.644-3.348A5.177,5.177,0,0,1,58.756,89.406Z" transform="translate(-42.735 -76.868)" fill="#fff"/>
          <path id="Trazado_84720" data-name="Trazado 84720" d="M84,63.823A5.276,5.276,0,0,0,85.2,60.044a5.368,5.368,0,0,0-3.473,1.8,5.02,5.02,0,0,0-1.238,3.639A4.438,4.438,0,0,0,84,63.823Z" transform="translate(-70.934 -60.044)" fill="#fff"/>
        </g>
      </g>
      <g id="Grupo_31348" data-name="Grupo 31348" transform="translate(26.478 9.908)">
        <path id="Trazado_84721" data-name="Trazado 84721" d="M156.072,109.96h-5.125l-1.231,3.634h-2.171l4.854-13.445h2.255l4.854,13.445H157.3Zm-4.594-1.677h4.062l-2-5.9h-.056Z" transform="translate(-147.546 -99.925)" fill="#fff"/>
        <path id="Trazado_84722" data-name="Trazado 84722" d="M209.083,119.165c0,3.046-1.63,5-4.091,5a3.323,3.323,0,0,1-3.084-1.715h-.046v4.855h-2.012V114.264H201.8v1.63h.037a3.477,3.477,0,0,1,3.121-1.733C207.443,114.161,209.083,116.128,209.083,119.165Zm-2.068,0c0-1.985-1.026-3.289-2.59-3.289-1.538,0-2.572,1.332-2.572,3.289,0,1.975,1.034,3.3,2.572,3.3C205.989,122.463,207.015,121.168,207.015,119.165Z" transform="translate(-186.636 -110.397)" fill="#fff"/>
        <path id="Trazado_84723" data-name="Trazado 84723" d="M251.79,119.165c0,3.046-1.63,5-4.091,5a3.324,3.324,0,0,1-3.084-1.715h-.046v4.855h-2.012V114.264H244.5v1.63h.037a3.477,3.477,0,0,1,3.121-1.733C250.15,114.161,251.79,116.128,251.79,119.165Zm-2.068,0c0-1.985-1.025-3.289-2.59-3.289-1.537,0-2.571,1.332-2.571,3.289,0,1.975,1.034,3.3,2.571,3.3C248.7,122.463,249.721,121.168,249.721,119.165Z" transform="translate(-218.554 -110.397)" fill="#fff"/>
        <path id="Trazado_84724" data-name="Trazado 84724" d="M301.238,109.185c.149,1.333,1.444,2.209,3.214,2.209,1.7,0,2.916-.875,2.916-2.078,0-1.044-.736-1.668-2.478-2.1l-1.742-.42c-2.469-.6-3.615-1.751-3.615-3.624,0-2.32,2.022-3.913,4.892-3.913,2.841,0,4.789,1.593,4.854,3.913h-2.031c-.121-1.342-1.231-2.152-2.851-2.152s-2.73.82-2.73,2.012c0,.95.708,1.51,2.441,1.938l1.481.364c2.759.652,3.9,1.761,3.9,3.727,0,2.515-2,4.091-5.19,4.091-2.982,0-4.995-1.538-5.125-3.97Z" transform="translate(-260.871 -99.262)" fill="#fff"/>
        <path id="Trazado_84725" data-name="Trazado 84725" d="M347,105.385v2.32h1.864V109.3H347v5.4c0,.84.373,1.231,1.193,1.231a6.3,6.3,0,0,0,.662-.047v1.584a5.523,5.523,0,0,1-1.118.093c-1.984,0-2.759-.746-2.759-2.647V109.3h-1.425V107.7h1.425v-2.32Z" transform="translate(-294.037 -103.838)" fill="#fff"/>
        <path id="Trazado_84726" data-name="Trazado 84726" d="M368.851,119.112c0-3.084,1.816-5.022,4.649-5.022s4.65,1.938,4.65,5.022-1.8,5.022-4.65,5.022S368.851,122.2,368.851,119.112Zm7.249,0c0-2.116-.97-3.365-2.6-3.365s-2.6,1.258-2.6,3.365c0,2.124.968,3.363,2.6,3.363S376.1,121.236,376.1,119.112Z" transform="translate(-312.943 -110.344)" fill="#fff"/>
        <path id="Trazado_84727" data-name="Trazado 84727" d="M412.227,114.264h1.919v1.668h.047a2.338,2.338,0,0,1,2.358-1.771,3.108,3.108,0,0,1,.689.075v1.882a2.818,2.818,0,0,0-.9-.121,2.028,2.028,0,0,0-2.1,2.255v5.814h-2.012Z" transform="translate(-345.361 -110.397)" fill="#fff"/>
        <path id="Trazado_84728" data-name="Trazado 84728" d="M442.632,121.134c-.271,1.78-2,3-4.221,3-2.852,0-4.622-1.911-4.622-4.976s1.779-5.069,4.537-5.069c2.712,0,4.418,1.863,4.418,4.835v.689H435.82v.122a2.553,2.553,0,0,0,2.637,2.777,2.218,2.218,0,0,0,2.264-1.379Zm-6.8-2.925h4.9a2.358,2.358,0,0,0-2.4-2.488A2.481,2.481,0,0,0,435.83,118.208Z" transform="translate(-361.476 -110.344)" fill="#fff"/>
      </g>
    </g>
  </g>
  <g id="Grupo_31352" data-name="Grupo 31352" transform="translate(38.621 8.683)">
    <g id="Grupo_31351" data-name="Grupo 31351">
      <path id="Trazado_84729" data-name="Trazado 84729" d="M155.21,60.089c1.916,0,3.04,1.178,3.04,3.21,0,2.064-1.115,3.25-3.04,3.25h-2.334v-6.46Zm-1.33,5.547H155.1a2.325,2.325,0,0,0,0-4.634h-1.218Z" transform="translate(-152.876 -59.319)" fill="#fff"/>
      <path id="Trazado_84730" data-name="Trazado 84730" d="M183,69.644a1.979,1.979,0,0,1-2.113,1.41,2.214,2.214,0,0,1-2.252-2.516,2.249,2.249,0,0,1,2.248-2.547c1.356,0,2.175.927,2.175,2.458v.336h-3.443v.054a1.288,1.288,0,0,0,1.3,1.4,1.169,1.169,0,0,0,1.16-.591Zm-3.384-1.571h2.462a1.176,1.176,0,0,0-1.2-1.263A1.247,1.247,0,0,0,179.612,68.073Z" transform="translate(-172.125 -63.73)" fill="#fff"/>
      <path id="Trazado_84731" data-name="Trazado 84731" d="M202.331,65.991c1.1,0,1.813.51,1.908,1.37h-.923c-.089-.358-.439-.586-.984-.586s-.945.255-.945.635c0,.291.246.475.775.6l.81.188c.927.215,1.362.614,1.362,1.33,0,.918-.855,1.531-2.02,1.531s-1.916-.524-2-1.388h.963a.989.989,0,0,0,1.061.608c.6,0,1.026-.269,1.026-.658,0-.291-.228-.479-.717-.6l-.85-.2c-.927-.219-1.356-.635-1.356-1.361C200.438,66.6,201.23,65.991,202.331,65.991Z" transform="translate(-188.328 -63.73)" fill="#fff"/>
      <path id="Trazado_84732" data-name="Trazado 84732" d="M223.835,67.678a1.089,1.089,0,0,0-1.152-.828c-.806,0-1.3.617-1.3,1.656,0,1.057.5,1.688,1.3,1.688a1.06,1.06,0,0,0,1.152-.8h.936a1.908,1.908,0,0,1-2.082,1.661,2.545,2.545,0,0,1-.005-5.063,1.924,1.924,0,0,1,2.087,1.687Z" transform="translate(-203.342 -63.73)" fill="#fff"/>
      <path id="Trazado_84733" data-name="Trazado 84733" d="M241.478,62.892c0-.878.653-1.384,1.813-1.455l1.32-.076V60.94c0-.515-.341-.806-1-.806-.537,0-.909.2-1.016.542h-.931c.1-.837.886-1.375,1.992-1.375,1.222,0,1.912.608,1.912,1.638v3.331h-.926v-.685h-.076a1.64,1.64,0,0,1-1.464.766A1.473,1.473,0,0,1,241.478,62.892Zm3.134-.417v-.408l-1.191.076c-.671.045-.976.273-.976.7s.381.694.9.694A1.149,1.149,0,0,0,244.612,62.475Zm-1.531-3.9,1.124-1.54h1.128l-1.258,1.54Z" transform="translate(-219.095 -57.04)" fill="#fff"/>
      <path id="Trazado_84734" data-name="Trazado 84734" d="M263.639,66.124h.926v.748h.072a1.322,1.322,0,0,1,1.316-.828,2.018,2.018,0,0,1,.429.04v.949a2.651,2.651,0,0,0-.537-.058,1.142,1.142,0,0,0-1.244,1.146V71h-.962Z" transform="translate(-235.657 -63.769)" fill="#fff"/>
      <path id="Trazado_84735" data-name="Trazado 84735" d="M277.43,71.487h.985c.081.354.489.582,1.138.582.8,0,1.276-.381,1.276-1.025v-.936h-.072a1.639,1.639,0,0,1-1.5.819c-1.245,0-2.015-.962-2.015-2.422,0-1.486.779-2.462,2.024-2.462a1.689,1.689,0,0,1,1.531.86h.076v-.779h.922v4.915c0,1.115-.873,1.822-2.252,1.822C278.32,72.862,277.532,72.316,277.43,71.487Zm3.417-2.986c0-.971-.5-1.594-1.322-1.594s-1.293.622-1.293,1.594.465,1.594,1.293,1.594S280.846,69.477,280.846,68.5Z" transform="translate(-245.82 -63.769)" fill="#fff"/>
      <path id="Trazado_84736" data-name="Trazado 84736" d="M300.229,69.582c0-.878.653-1.384,1.813-1.455l1.321-.076v-.421c0-.515-.34-.806-1-.806-.537,0-.909.2-1.016.542h-.932c.1-.837.886-1.375,1.992-1.375,1.222,0,1.912.608,1.912,1.638V70.96h-.927v-.685h-.076a1.64,1.64,0,0,1-1.464.766A1.473,1.473,0,0,1,300.229,69.582Zm3.134-.417v-.408l-1.191.076c-.671.045-.976.273-.976.7s.381.694.9.694A1.149,1.149,0,0,0,303.363,69.165Z" transform="translate(-263.003 -63.73)" fill="#fff"/>
      <path id="Trazado_84737" data-name="Trazado 84737" d="M322.566,58.83h.962v6.778h-.962Z" transform="translate(-279.697 -58.378)" fill="#fff"/>
      <path id="Trazado_84738" data-name="Trazado 84738" d="M331.669,68.521a2.31,2.31,0,1,1,2.3,2.534A2.24,2.24,0,0,1,331.669,68.521Zm3.609,0c0-1.057-.475-1.675-1.308-1.675s-1.307.618-1.307,1.675.47,1.678,1.307,1.678S335.278,69.582,335.278,68.521Z" transform="translate(-286.501 -63.73)" fill="#fff"/>
      <path id="Trazado_84739" data-name="Trazado 84739" d="M368.858,69.644a1.979,1.979,0,0,1-2.112,1.41,2.215,2.215,0,0,1-2.252-2.516,2.249,2.249,0,0,1,2.248-2.547c1.356,0,2.175.927,2.175,2.458v.336h-3.443v.054a1.289,1.289,0,0,0,1.3,1.4,1.169,1.169,0,0,0,1.16-.591Zm-3.384-1.571h2.463a1.176,1.176,0,0,0-1.2-1.263A1.247,1.247,0,0,0,365.474,68.073Z" transform="translate(-311.033 -63.73)" fill="#fff"/>
      <path id="Trazado_84740" data-name="Trazado 84740" d="M387.115,66.085h.926v.775h.072a1.459,1.459,0,0,1,1.455-.869,1.586,1.586,0,0,1,1.688,1.813V70.96h-.962V68.046c0-.784-.341-1.173-1.052-1.173a1.118,1.118,0,0,0-1.164,1.236V70.96h-.962Z" transform="translate(-327.939 -63.73)" fill="#fff"/>
      <path id="Trazado_84741" data-name="Trazado 84741" d="M423.271,69.644a1.979,1.979,0,0,1-2.112,1.41,2.215,2.215,0,0,1-2.252-2.516,2.249,2.249,0,0,1,2.248-2.547c1.357,0,2.175.927,2.175,2.458v.336h-3.443v.054a1.289,1.289,0,0,0,1.3,1.4,1.169,1.169,0,0,0,1.16-.591Zm-3.385-1.571h2.463a1.176,1.176,0,0,0-1.2-1.263A1.247,1.247,0,0,0,419.886,68.073Z" transform="translate(-351.699 -63.73)" fill="#fff"/>
      <path id="Trazado_84742" data-name="Trazado 84742" d="M441.7,58.83h.962v6.778H441.7Z" transform="translate(-368.738 -58.378)" fill="#fff"/>
    </g>
  </g>
</svg>
