<svg xmlns="http://www.w3.org/2000/svg" width="130.434" height="41.455" viewBox="0 0 130.434 41.455">
  <g id="Grupo_31982" data-name="Grupo 31982" transform="translate(0.25 0.25)">
    <path id="Trazado_84687" data-name="Trazado 84687" d="M2945.068,58.667a5.565,5.565,0,0,1-5.594,5.535H2820.731a5.567,5.567,0,0,1-5.6-5.535V28.782a5.567,5.567,0,0,1,5.6-5.535h118.743a5.565,5.565,0,0,1,5.594,5.535Z" transform="translate(-2815.135 -23.247)" stroke="#fff" stroke-width="0.5"/>
    <g id="Grupo_31979" data-name="Grupo 31979" transform="translate(31.205 4.648)">
      <g id="Grupo_31360" data-name="Grupo 31360" transform="translate(0 10.128)">
        <path id="Trazado_84772" data-name="Trazado 84772" d="M2956.365,101.087h-5.77l-4.587-6.361h-1.543v6.35h-5.091V81.994h7.291c4.2,0,7.631,2.857,7.631,6.371a6.191,6.191,0,0,1-3.318,5.233l5.387,7.488m-7.16-12.721a3.191,3.191,0,0,0-3.175-3.208h-1.565V91.54h1.576a3.182,3.182,0,0,0,3.164-3.175Z" transform="translate(-2939.374 -81.994)" fill="#fff"/>
        <path id="Trazado_84773" data-name="Trazado 84773" d="M3019.3,106.226a7.817,7.817,0,1,1-7.849-7.784h.022a7.8,7.8,0,0,1,7.839,7.762c-.012.011-.012.011-.012.022m-7.838-4.094c-1.347,0-2.486,1.828-2.486,4.094s1.139,4.083,2.486,4.083c1.379,0,2.518-1.828,2.518-4.083S3012.836,102.131,3011.457,102.131Z" transform="translate(-2988.73 -94.621)" fill="#fff"/>
        <path id="Trazado_84774" data-name="Trazado 84774" d="M3086.2,99.773l-5.857,5.868V99.762h-5.092v14.944h5.092v-6.065l6.119,6.065h6.4l-7.773-7.784,6.448-6.437v8.878c0,2.945,1.762,5.66,6.229,5.66a7.059,7.059,0,0,0,5-2.288l2.288,1.971h1.084V99.773h-5.08v9.667a2.863,2.863,0,0,1-2.6,1.631c-1.26,0-1.829-.744-1.829-3.12V99.762H3086.2Z" transform="translate(-3043.691 -95.635)" fill="#fff"/>
        <path id="Trazado_84775" data-name="Trazado 84775" d="M3214.5,100.787a1.007,1.007,0,1,1,1.007-1.007,1,1,0,0,1-1.007,1.007Zm0-1.9a.909.909,0,1,0,.909.909A.921.921,0,0,0,3214.5,98.882Z" transform="translate(-3149.82 -94.875)" fill="#fff"/>
        <path id="Trazado_84776" data-name="Trazado 84776" d="M3215.943,100.935h.459a.405.405,0,0,1,.295.1.324.324,0,0,1,.088.219h0a.307.307,0,0,1-.241.307l.273.383h-.207l-.253-.361h-.218v.361h-.175v-1.007Zm.437.5c.131,0,.208-.066.208-.175h0c0-.109-.077-.164-.208-.164h-.262v.339Z" transform="translate(-3151.701 -96.534)" fill="#fff"/>
      </g>
      <text id="DISPONIBLE_EN" data-name="DISPONIBLE EN" transform="translate(8.178 6.363)" fill="#fff" font-size="7" font-family="MyriadPro-Regular, Myriad Pro"><tspan x="0" y="0">DISPONIBLE EN</tspan></text>
    </g>
  </g>
</svg>
