<svg xmlns="http://www.w3.org/2000/svg" xmlns:xlink="http://www.w3.org/1999/xlink" width="276" height="104" viewBox="0 0 276 104">
  <defs>
    <clipPath id="clip-path">
      <rect id="Rectángulo_23805" data-name="Rectángulo 23805" width="154.615" height="34.915" fill="none"/>
    </clipPath>
  </defs>
  <g id="telmex" transform="translate(-1382 -899)">
    <g id="Grupo_39299" data-name="Grupo 39299">
      <rect id="Rectángulo_23800" data-name="Rectángulo 23800" width="276" height="104" rx="5" transform="translate(1382 899)" fill="#3271a7"/>
      <text id="Ahora_ya_puedes_pagar_canales_de_TV_con_tu_Recibo_Telmex." data-name="Ahora ya puedes pagar canales 
de TV con tu Recibo Telmex." transform="translate(1520 920)" fill="#fff" font-size="16" font-family="Roboto-Medium, Roboto" font-weight="500"><tspan x="-113" y="0">Ahora ya puedes pagar canales </tspan><tspan x="-101" y="21">de TV con tu Recibo Telmex.</tspan></text>
    </g>
    <g id="Grupo_39298" data-name="Grupo 39298">
      <path id="Rectángulo_23806" data-name="Rectángulo 23806" d="M0,0H276a0,0,0,0,1,0,0V47a5,5,0,0,1-5,5H5a5,5,0,0,1-5-5V0A0,0,0,0,1,0,0Z" transform="translate(1382 951)" fill="#fff"/>
      <g id="Grupo_39296" data-name="Grupo 39296" transform="translate(1443 961.615)">
        <g id="Grupo_39295" data-name="Grupo 39295" clip-path="url(#clip-path)">
          <path id="Trazado_94957" data-name="Trazado 94957" d="M430.711,102.574a20.561,20.561,0,0,0,2.211.255c1.427.015,1.98-.579,1.98-2V99.575a.15.15,0,0,0-.076.052,2.466,2.466,0,0,1-4.524-1.072,5.353,5.353,0,0,1,.17-2.729,3.2,3.2,0,0,1,2.9-2.242c.883-.038,1.771.059,2.657.09.274.01.386.126.385.411-.009,2.375.034,4.751-.022,7.125a2.76,2.76,0,0,1-2.754,2.873,18.225,18.225,0,0,1-2.551-.062c-.372-.015-.55-.189-.462-.595a7.373,7.373,0,0,0,.09-.85m4.23-7.754c-.514-.033-.9-.086-1.291-.077a1.573,1.573,0,0,0-1.5.9,3.861,3.861,0,0,0-.112,3.084,1.193,1.193,0,0,0,1.971.447,2.64,2.64,0,0,0,.752-1.343,28.53,28.53,0,0,0,.175-3.014" transform="translate(-318.131 -69.198)" fill="#1a1818"/>
          <path id="Trazado_94958" data-name="Trazado 94958" d="M270.071,94.869c-.281-1.1-.224-1.187.956-1.424a5.547,5.547,0,0,1,2.538-.009,1.825,1.825,0,0,1,1.52,1.859c.029,1.162.028,2.326.008,3.488-.007.381.133.5.493.535.8.072.8.086.692,1.02l-2.538.121v-.984a6.358,6.358,0,0,1-1.283.85,3.191,3.191,0,0,1-1.542.168,1.814,1.814,0,0,1-.978-3.011,3.127,3.127,0,0,1,1.889-1.044c.562-.126,1.142-.175,1.719-.26.228-1.056-.22-1.709-1.28-1.674a16.279,16.279,0,0,0-2.193.366m3.5,2.4a3.861,3.861,0,0,0-2.156.433A.9.9,0,0,0,271,98.815c.137.451.527.548.943.542a1.832,1.832,0,0,0,1.624-2.086" transform="translate(-199.277 -68.989)" fill="#1a1818"/>
          <path id="Trazado_94959" data-name="Trazado 94959" d="M339.492,96.653a3.629,3.629,0,0,1-2.352,3.732c-2.21.722-3.957-.41-4.285-2.774a3.565,3.565,0,0,1,2.973-4.276,2.97,2.97,0,0,1,3.649,3c.009.136.013.272.015.32m-1.514.21c-.055-.367-.078-.692-.155-1a1.583,1.583,0,0,0-1.462-1.287,1.638,1.638,0,0,0-1.711,1.034,3.418,3.418,0,0,0-.122,2.3,1.554,1.554,0,0,0,1.614,1.349,1.685,1.685,0,0,0,1.677-1.374c.087-.344.112-.7.159-1.018" transform="translate(-246.111 -68.99)" fill="#1a1818"/>
          <path id="Trazado_94960" data-name="Trazado 94960" d="M466.765,97.084a3.421,3.421,0,0,1-2.069,3.154,3.1,3.1,0,0,1-4.578-2.794,5.612,5.612,0,0,1,.38-2.234,3.456,3.456,0,0,1,5.034-1.393c.809.534,1.216,1.526,1.234,3.267M465.27,97c-.068-.474-.088-.818-.171-1.145a1.572,1.572,0,0,0-1.549-1.315,1.68,1.68,0,0,0-1.71,1.2,3.528,3.528,0,0,0,.024,2.407,1.646,1.646,0,0,0,3.031.151,9.124,9.124,0,0,0,.375-1.3" transform="translate(-340.252 -68.964)" fill="#1a1818"/>
          <path id="Trazado_94961" data-name="Trazado 94961" d="M368.57,100.394h-1.423c-.01-.2-.027-.383-.028-.565q0-1.717,0-3.434c0-.188,0-.376-.011-.563-.038-.5-.049-1.018-.631-1.231a1.461,1.461,0,0,0-1.6.538,3.056,3.056,0,0,0-.642,2.055c0,1.055,0,2.11,0,3.2h-1.49V94.638a4.976,4.976,0,0,1-1.165-.295c-.114-.059-.044-.473-.062-.822h2.657c-.016.306-.033.64-.057,1.091.163-.188.265-.307.368-.425a2.722,2.722,0,0,1,2.888-.772,1.584,1.584,0,0,1,1.173,1.472c.063,1.821.021,3.645.021,5.507" transform="translate(-267.339 -68.978)" fill="#1a1818"/>
          <path id="Trazado_94962" data-name="Trazado 94962" d="M204.618,99.03c0,.027.017.109.024.192.083.933.092,1-.827,1.125a10.158,10.158,0,0,1-2.535.044,2.386,2.386,0,0,1-2.09-1.857,4.323,4.323,0,0,1,.862-4.486,3.191,3.191,0,0,1,3.67-.395,3.007,3.007,0,0,1,1.163,3.334H200.58a1.778,1.778,0,0,0,1.808,2.3,20.816,20.816,0,0,0,2.231-.258m-1.18-3.121c.03-.95-.424-1.461-1.262-1.517a1.509,1.509,0,0,0-1.591,1.517Z" transform="translate(-147.11 -68.958)" fill="#1a1818"/>
          <path id="Trazado_94963" data-name="Trazado 94963" d="M252.062,87.6h-1.736c0,1.358-.018,2.668.01,3.977.01.474.353.676.812.662.288-.009.576-.033.95-.055,0,.339.019.655-.011.968a.361.361,0,0,1-.23.257,9.733,9.733,0,0,1-1.783.072,1.26,1.26,0,0,1-1.237-1.281c-.077-.969-.054-1.946-.073-2.92,0-.069,0-.137,0-.205-.006-.444.146-1-.066-1.3-.179-.249-.782-.192-1.24-.278V86.445h1.305c0-.607.024-1.164-.008-1.718-.023-.4.1-.6.507-.657a8.663,8.663,0,0,0,.992-.264v2.6h1.808Z" transform="translate(-182.994 -61.974)" fill="#1a1818"/>
          <path id="Trazado_94964" data-name="Trazado 94964" d="M395.58,83.8V86.41h1.8v1.164h-1.756c0,1.356-.017,2.649.009,3.942a.7.7,0,0,0,.821.718c.288-.007.576-.038.91-.061v1.271c-.708,0-1.416.053-2.113-.016a1.15,1.15,0,0,1-1.081-1.12c-.066-.8-.073-1.6-.087-2.4-.013-.749,0-1.5,0-2.32h-1.313v-1.16c.3,0,.6-.014.9,0s.434-.077.419-.4a11.7,11.7,0,0,1,.012-1.484.592.592,0,0,1,.311-.414,10.785,10.785,0,0,1,1.178-.333" transform="translate(-290.446 -61.967)" fill="#1a1818"/>
          <path id="Trazado_94965" data-name="Trazado 94965" d="M231.046,94.6c-.4-.041-.806-.11-1.21-.115a2.281,2.281,0,0,0-.85.135.731.731,0,0,0-.136,1.312,7.04,7.04,0,0,0,1.167.51c.66.268,1.3.551,1.5,1.335a2.092,2.092,0,0,1-1.261,2.463,5.24,5.24,0,0,1-3.119.191V99.216a12.743,12.743,0,0,0,1.293.127,2.411,2.411,0,0,0,1.044-.164.976.976,0,0,0,.483-.69.959.959,0,0,0-.429-.719,13.649,13.649,0,0,0-1.512-.618,1.657,1.657,0,0,1-1.064-1.61,1.9,1.9,0,0,1,.949-1.76,4.008,4.008,0,0,1,2.171-.471c.034,0,.068.007.1.01,1.081.1,1.094.122.874,1.276" transform="translate(-167.829 -69.003)" fill="#1a1818"/>
          <path id="Trazado_94966" data-name="Trazado 94966" d="M315.18,99.147c.019.024.035.036.039.051.275,1.143.211,1.258-.976,1.427a5.144,5.144,0,0,1-1.424.046,2.6,2.6,0,0,1-2.465-2.453,4.987,4.987,0,0,1,.278-2.767,2.984,2.984,0,0,1,2.785-1.912c.619-.032,1.244.053,1.925.089-.059.51-.106.91-.156,1.35-1.161-.264-2.321-.55-3.034.768a3.334,3.334,0,0,0,.183,3.084c.839.9,1.837.567,2.846.319" transform="translate(-229.449 -69.166)" fill="#1a1818"/>
          <path id="Trazado_94967" data-name="Trazado 94967" d="M416.229,101.1h-1.452V95.336a5.012,5.012,0,0,1-1.173-.29c-.117-.06-.054-.471-.081-.822h2.707Z" transform="translate(-305.797 -69.677)" fill="#1a1818"/>
          <path id="Trazado_94968" data-name="Trazado 94968" d="M279.456,80.832a3.254,3.254,0,0,1,.214.256c.159.237.312.478.492.754l-2.306,1.373-.58-.854,2.18-1.528" transform="translate(-205.044 -59.775)" fill="#1a1818"/>
          <path id="Trazado_94969" data-name="Trazado 94969" d="M419.413,83.577a.983.983,0,0,1-.94.964.969.969,0,0,1-1-.9.968.968,0,0,1,1.935-.064" transform="translate(-308.721 -61.124)" fill="#1a1818"/>
          <path id="Trazado_94970" data-name="Trazado 94970" d="M8.138,26.037h6.779v8.139H25.77V26.037h6.778l8.139,14.919H33.905l-3.873-7.1-9.689,7.1-9.687-7.1-3.876,7.1H0Z" transform="translate(0 -19.254)" fill="#0071c0" fill-rule="evenodd"/>
          <path id="Trazado_94971" data-name="Trazado 94971" d="M40.688,6.783V0H0V6.783H6.78l.742-1.356h8.752v8.138h8.141V5.426h8.753l.739,1.356Z" transform="translate(0 0)" fill="#0071c0" fill-rule="evenodd"/>
          <path id="Trazado_94972" data-name="Trazado 94972" d="M519.711,15.625l-5.664,6.334,6.241,7.229h-5.036l-3.673-4.465-3.988,4.465h-4.459l6.31-7.063-5.346-6.5h4.488l3.276,3.8,3.392-3.8Z" transform="translate(-372.063 -11.555)" fill="#1a1718"/>
          <path id="Trazado_94973" data-name="Trazado 94973" d="M450.4,20.475h8.5V23.22l-8.5-.032v3.288h10v2.712H446.78V15.625h13.628v2.712h-10Z" transform="translate(-330.391 -11.555)" fill="#1a1718"/>
          <path id="Trazado_94974" data-name="Trazado 94974" d="M247.856,20.475h8.5V23.22l-8.5-.032v3.288h10.008v2.712H244.235V15.625h13.628v2.712H247.856Z" transform="translate(-180.611 -11.555)" fill="#1a1718"/>
          <path id="Trazado_94975" data-name="Trazado 94975" d="M364.656,15.625h6.35l3.047,7.786,3.142-7.786h6.412V29.188h-3.689V18.37l-4.584,10.818H372.7l-4.423-10.851V29.188h-3.624Z" transform="translate(-269.661 -11.555)" fill="#1a1718"/>
          <path id="Trazado_94976" data-name="Trazado 94976" d="M182.223,15.625h14.362v2.712H191.2V29.188h-3.621V18.337h-5.354Z" transform="translate(-134.753 -11.555)" fill="#1a1718"/>
          <path id="Trazado_94977" data-name="Trazado 94977" d="M306.051,15.625h3.685V26.476h9.941v2.712H306.051Z" transform="translate(-226.323 -11.555)" fill="#1a1718"/>
          <path id="Trazado_94978" data-name="Trazado 94978" d="M574.33,53.18h1.4a1.37,1.37,0,0,1,.568.1.715.715,0,0,1,.425.715.782.782,0,0,1-.113.443.792.792,0,0,1-.313.277.533.533,0,0,1,.364.572l.014.4a1.2,1.2,0,0,0,.031.257.256.256,0,0,0,.133.186V56.2h-.5a.3.3,0,0,1-.033-.1,1.6,1.6,0,0,1-.022-.239l-.023-.5a.424.424,0,0,0-.221-.4.916.916,0,0,0-.368-.054h-.933v1.3h-.408Zm1.355,1.385a.787.787,0,0,0,.454-.116.465.465,0,0,0,.169-.416.448.448,0,0,0-.234-.44.767.767,0,0,0-.335-.062h-1v1.034h.947m-.277-2.181a2.4,2.4,0,1,0,2.4,2.4,2.4,2.4,0,0,0-2.4-2.4m0-.317A2.712,2.712,0,1,1,572.7,54.78a2.711,2.711,0,0,1,2.712-2.712" transform="translate(-423.505 -38.504)" fill="#1a1718" fill-rule="evenodd"/>
        </g>
      </g>
    </g>
  </g>
</svg>
