<svg xmlns="http://www.w3.org/2000/svg" width="19.002" height="19" viewBox="0 0 19.002 19">
  <path id="insignia-porcentaje" d="M19,9.5a4.35,4.35,0,0,0-1.52-3.305A4.355,4.355,0,0,0,12.8,1.52a4.355,4.355,0,0,0-6.612,0A4.355,4.355,0,0,0,1.518,6.195a4.354,4.354,0,0,0,0,6.61A4.355,4.355,0,0,0,6.193,17.48a4.355,4.355,0,0,0,6.612,0,4.355,4.355,0,0,0,4.675-4.675A4.35,4.35,0,0,0,19,9.5Zm-2.807,2.3-.435.293.1.515a2.771,2.771,0,0,1-3.251,3.251l-.514-.1-.293.435a2.771,2.771,0,0,1-4.6,0l-.293-.435-.514.1a2.771,2.771,0,0,1-3.251-3.251l.1-.515L2.808,11.8a2.771,2.771,0,0,1,0-4.6l.435-.293-.1-.515A2.771,2.771,0,0,1,6.395,3.143l.514.1L7.2,2.808a2.771,2.771,0,0,1,4.6,0l.293.435.514-.1a2.771,2.771,0,0,1,3.251,3.251l-.1.515.435.293a2.771,2.771,0,0,1,0,4.6ZM7.125,7.917a.792.792,0,1,1,.792-.792A.792.792,0,0,1,7.125,7.917Zm5.542,3.958a.792.792,0,1,1-.792-.792A.792.792,0,0,1,12.666,11.875Zm-.344-5.542-3.8,6.333H6.677l3.8-6.333Z" transform="translate(0.002 0)" fill="#f69222"/>
</svg>
