<svg id="Grupo_50661" data-name="Grupo 50661" xmlns="http://www.w3.org/2000/svg" xmlns:xlink="http://www.w3.org/1999/xlink" width="44.851" height="44.851" viewBox="0 0 44.851 44.851">
  <defs>
    <clipPath id="clip-path">
      <rect id="Rectángulo_25173" data-name="Rectángulo 25173" width="44.851" height="44.851" fill="none"/>
    </clipPath>
  </defs>
  <g id="Grupo_37660" data-name="Grupo 37660" transform="translate(0 0)" clip-path="url(#clip-path)">
    <path id="Trazado_74531" data-name="Trazado 74531" d="M0,40.5a4.358,4.358,0,0,0,4.347,4.347h36.1a4.421,4.421,0,0,0,4.408-4.408V4.408A4.421,4.421,0,0,0,40.443,0H4.408A4.421,4.421,0,0,0,0,4.408Z" transform="translate(0 0.002)" fill="#be0010"/>
    <path id="Trazado_74532" data-name="Trazado 74532" d="M7.366,23.927a16.317,16.317,0,0,1,3.606-8.679c8.332-1.713,4.033-.607,12.39-3.393.835,1.1,2.8,1.357,6.415-.294a10.364,10.364,0,0,0,4.674.37,14.487,14.487,0,0,0,3.4.636,9.1,9.1,0,0,0,1.276-2.254l-.256-.527-.1-.9a3.856,3.856,0,0,0-1.912-.759,48.547,48.547,0,0,0-6.207-3.511l-.679-.854a40.491,40.491,0,0,1-7.834-2.221l-.28.337.845,2.055c-7.208,2.2-9.1,4.237-13.552,8.437-.479-.028-.949-.076-1.419-.138A19.427,19.427,0,0,1,.756,9.947C2,12.5,5.183,13.99,6.645,14.645c.1.047.214.1.313.142A16.135,16.135,0,0,0,2.35,25.64c0,3.122,1.547,6.5,4.8,6.491,8.85,0,15.583-10.093,16.29-10.947a2.648,2.648,0,0,0,.707-1.556s-6.686,8.546-13.277,8.546c-2.686.047-3.673-1.879-3.507-4.247M25.407,8.766c-3.825,2.225-7.369,2.762-13.315,4C16.818,8.467,19.48,7.034,25.345,5.52l-.94-1.091V4.092a5.022,5.022,0,0,1,2.738,1.276,9.728,9.728,0,0,1,2.681.413A2.711,2.711,0,0,0,31.5,7.5l2.529,1.082c-.655,1.613-3.545.9-4.143.669-1.642.337-3.877.465-4.484-.484" transform="translate(2.831 5.765)" fill="#fff"/>
    <path id="Trazado_74533" data-name="Trazado 74533" d="M16.881,5.374l-3.526,5.874-.432-5.874H6.281l-.37,1.4H8.259L6.632,12.948H8.3L9.925,6.769h1.338l.6,6.178h2.078l4.721-7.573Z" transform="translate(22.136 20.129)" fill="#fff"/>
  </g>
</svg>
