<svg id="Grupo_50662" data-name="Grupo 50662" xmlns="http://www.w3.org/2000/svg" xmlns:xlink="http://www.w3.org/1999/xlink" width="91.639" height="11.101" viewBox="0 0 91.639 11.101">
  <defs>
    <clipPath id="clip-path">
      <rect id="Rectángulo_25171" data-name="Rectángulo 25171" width="91.639" height="11.101" fill="none"/>
    </clipPath>
  </defs>
  <g id="Grupo_37656" data-name="Grupo 37656" transform="translate(0 0)" clip-path="url(#clip-path)">
    <path id="Trazado_74501" data-name="Trazado 74501" d="M10.073,4.984v5.667c0,.2,0,.2-.2.2H7.5c-.147,0-.175-.041-.175-.171V.227c0-.131.028-.184.175-.184.33.012.673,0,1,.012a.411.411,0,0,1,.237.094q1.824,1.8,3.647,3.607c.714.714,1.4,1.44,2.1,2.167.025-.012.053-.041.078-.053V.243c0-.2,0-.2.2-.2H17.1c.2,0,.2,0,.2.2V10.652c0,.147-.037.2-.184.187-.33-.016-.661,0-.991-.016a.345.345,0,0,1-.224-.09c-1.044-1.032-2.089-2.076-3.145-3.1-.87-.86-1.73-1.718-2.6-2.578-.012,0-.037-.012-.078-.065" transform="translate(15.506 0.091)" fill="#c00010"/>
    <path id="Trazado_74502" data-name="Trazado 74502" d="M29.313,10.852H26.6a.218.218,0,0,1-.237-.159c-.237-.555-.489-1.1-.726-1.652a.165.165,0,0,0-.187-.118h-4.04a.191.191,0,0,0-.2.131c-.237.555-.489,1.11-.726,1.665-.041.081-.065.134-.171.134H17.661a.276.276,0,0,1-.094-.012.275.275,0,0,1,.053-.122c.807-1.665,1.612-3.314,2.419-4.978.885-1.811,1.771-3.622,2.64-5.446a.365.365,0,0,1,.4-.249,6.748,6.748,0,0,0,.87,0,.216.216,0,0,1,.224.147c.648,1.347,1.309,2.693,1.958,4.04,1.016,2.089,2.02,4.177,3.036,6.278a2.081,2.081,0,0,0,.147.343m-7.042-4.2h2.313c-.383-.885-.767-1.743-1.163-2.628-.383.885-.767,1.743-1.15,2.628" transform="translate(37.196 0.09)" fill="#c00010"/>
    <path id="Trazado_74503" data-name="Trazado 74503" d="M10.082,2.1c-.689.58-1.365,1.163-2.051,1.758a1.253,1.253,0,0,0-.1-.134,2.744,2.744,0,0,0-3.251-1,2.742,2.742,0,0,0-1.8,2.048,3.037,3.037,0,0,0,1.2,3.264,2.8,2.8,0,0,0,3.794-.62A2.525,2.525,0,0,0,8.031,7.2c.686.58,1.362,1.163,2.039,1.758a4.616,4.616,0,0,1-.941.951,5.615,5.615,0,0,1-2.7,1.122A5.66,5.66,0,0,1,.515,7.89a5.472,5.472,0,0,1-.5-2.84A5.684,5.684,0,0,1,9.948,1.933c.041.053.081.106.134.171" transform="translate(0 0)" fill="#c00010"/>
    <path id="Trazado_74504" data-name="Trazado 74504" d="M31.452,6.5c.106-.253.212-.477.3-.7.807-1.861,1.615-3.738,2.419-5.614a.208.208,0,0,1,.212-.143h2.5a.739.739,0,0,1,.159.012C37.014.109,37,.162,36.976.2c-1.6,3.5-3.211,6.989-4.81,10.49a.19.19,0,0,1-.2.134c-.343-.012-.686-.012-1.016,0a.216.216,0,0,1-.224-.147c-1.228-2.64-2.472-5.3-3.7-7.94-.4-.845-.779-1.677-1.175-2.522-.025-.053-.041-.094-.065-.159.053,0,.106-.012.143-.012h2.525a.191.191,0,0,1,.212.143q1.347,3.072,2.693,6.132c.028.065.053.106.094.184" transform="translate(54.597 0.093)" fill="#c00010"/>
    <path id="Trazado_74505" data-name="Trazado 74505" d="M31.853,2.369H28.536v8.454H25.814V2.369h-3.3V.055c.053,0,.106-.012.156-.012h9c.143,0,.184.041.184.184-.012.661,0,1.309,0,1.97v.171" transform="translate(47.669 0.091)" fill="#c00010"/>
    <path id="Trazado_74506" data-name="Trazado 74506" d="M17.38,8.555h5.06c.2,0,.2,0,.2.184v2.089h-7.99c0-.053-.016-.106-.016-.159V.232c0-.147.037-.184.187-.184.779.012,1.559,0,2.338,0,.224,0,.224,0,.224.209v8.3" transform="translate(30.978 0.102)" fill="#c00010"/>
    <path id="Trazado_74507" data-name="Trazado 74507" d="M11.108,2.756h9.34c0,.053.016.094.016.147V4.951c0,.131-.041.156-.171.156H11.279c-.131,0-.171-.025-.171-.171.012-.673,0-1.347,0-2.033V2.756" transform="translate(23.52 5.835)" fill="#c00010"/>
    <path id="Trazado_74508" data-name="Trazado 74508" d="M20.458,2.36h-9.34c0-.053-.016-.094-.016-.131V.206c0-.118.028-.159.159-.159h9.05c.094,0,.159,0,.159.134V2.267c0,.028-.012.053-.012.094" transform="translate(23.51 0.099)" fill="#c00010"/>
    <path id="Trazado_74509" data-name="Trazado 74509" d="M15.143,3.662H11.6c-.2,0-.2,0-.2-.2V1.588c0-.134.025-.171.171-.171h7.148c.118,0,.156.037.156.156V3.5c0,.134-.053.159-.171.159Z" transform="translate(24.149 3)" fill="#c00010"/>
    <path id="Trazado_74510" data-name="Trazado 74510" d="M24.586,4.063A1.355,1.355,0,1,1,21.877,4a1.337,1.337,0,0,1,1.415-1.309,1.358,1.358,0,0,1,1.294,1.375" transform="translate(46.322 5.691)" fill="#c00010"/>
    <path id="Trazado_74511" data-name="Trazado 74511" d="M15.088,10.852H12.379a.221.221,0,0,1-.24-.159c-.24-.555-.489-1.1-.723-1.652a.165.165,0,0,0-.187-.118H7.183a.182.182,0,0,0-.193.131c-.243.555-.493,1.11-.729,1.665-.037.081-.069.134-.171.134H3.433a.276.276,0,0,1-.094-.012.275.275,0,0,1,.053-.122C4.2,9.053,5,7.4,5.811,5.739,6.7,3.928,7.582,2.117,8.452.293a.365.365,0,0,1,.4-.249,6.748,6.748,0,0,0,.87,0A.216.216,0,0,1,9.945.19c.652,1.347,1.309,2.693,1.955,4.04,1.019,2.089,2.023,4.177,3.043,6.278.037.1.09.209.147.343M8.056,6.65h2.316c-.387-.885-.77-1.743-1.166-2.628-.383.885-.764,1.743-1.15,2.628" transform="translate(7.07 0.09)" fill="#c00010"/>
  </g>
</svg>
