<svg xmlns="http://www.w3.org/2000/svg" width="60.924" height="38.575" viewBox="0 0 60.924 38.575">
  <g id="_83X_Claro_Sports_HD_Color" data-name="83X Claro Sports HD Color" transform="translate(0)">
    <g id="Grupo_28623" data-name="Grupo 28623" transform="translate(0 0)">
      <path id="Trazado_60740" data-name="Trazado 60740" d="M12.4,23.38a4.613,4.613,0,0,1-3.617-1.222l1.386-1.386a3.076,3.076,0,0,0,2.264.8c.733,0,1.5-.245,1.5-.88,0-.424-.229-.717-.9-.781L11.7,19.779c-1.531-.146-2.476-.814-2.476-2.379,0-1.757,1.547-2.7,3.274-2.7a4.5,4.5,0,0,1,3.243.993l-1.3,1.32a2.939,2.939,0,0,0-1.97-.571c-.849,0-1.207.391-1.207.814,0,.311.132.668.88.733l1.337.13C15.151,18.28,16,19.178,16,20.61c0,1.875-1.6,2.771-3.6,2.771" transform="translate(7.276 12.181)" fill="#050606"/>
      <path id="Trazado_60741" data-name="Trazado 60741" d="M19.757,22.617a2.957,2.957,0,0,1-2.068.764,2.511,2.511,0,0,1-2.052-.847V26.4H13.519v-11.6h2.052v.8a2.583,2.583,0,0,1,2.118-.9,2.958,2.958,0,0,1,2.068.766c.849.847.865,2.3.865,3.568s-.016,2.738-.865,3.586M17.071,16.6c-1.271,0-1.434,1.042-1.434,2.427s.163,2.443,1.434,2.443S18.5,20.415,18.5,19.03,18.342,16.6,17.071,16.6" transform="translate(11.205 12.18)" fill="#050606"/>
      <path id="Trazado_60742" data-name="Trazado 60742" d="M24.279,22.339a3.517,3.517,0,0,1-2.639,1.042,3.476,3.476,0,0,1-2.623-1.042c-.766-.8-.962-1.759-.962-3.308a4.294,4.294,0,0,1,.962-3.29A3.477,3.477,0,0,1,21.64,14.7a3.517,3.517,0,0,1,2.639,1.044,4.294,4.294,0,0,1,.962,3.29c0,1.549-.2,2.509-.962,3.308m-1.646-5.36a1.343,1.343,0,0,0-.993-.377,1.308,1.308,0,0,0-.978.377,2.867,2.867,0,0,0-.488,2.052,2.91,2.91,0,0,0,.488,2.068,1.3,1.3,0,0,0,.978.377,1.336,1.336,0,0,0,.993-.377,2.9,2.9,0,0,0,.49-2.068,2.858,2.858,0,0,0-.49-2.052" transform="translate(14.965 12.18)" fill="#050606"/>
      <path id="Trazado_60743" data-name="Trazado 60743" d="M27.29,17.108A1.416,1.416,0,0,0,24.8,18.167v5.115H22.68V14.795h2.068v.814a2.882,2.882,0,0,1,2.134-.913,2.566,2.566,0,0,1,2,.8Z" transform="translate(18.798 12.18)" fill="#050606"/>
      <path id="Trazado_60744" data-name="Trazado 60744" d="M29.836,24.264a2.3,2.3,0,0,1-2.46-2.427v-4.2h-.9V16.021h.9V13.512h2.118v2.509h1.5v1.613h-1.5v4.073c0,.488.229.766.733.766h.766v1.79Z" transform="translate(21.947 11.199)" fill="#050606"/>
      <path id="Trazado_60745" data-name="Trazado 60745" d="M32.983,23.38a4.613,4.613,0,0,1-3.617-1.222l1.384-1.386a3.082,3.082,0,0,0,2.266.8c.733,0,1.5-.245,1.5-.88,0-.424-.229-.717-.9-.781l-1.335-.132c-1.533-.146-2.476-.814-2.476-2.379,0-1.757,1.547-2.7,3.274-2.7a4.5,4.5,0,0,1,3.243.993l-1.3,1.32a2.942,2.942,0,0,0-1.97-.571c-.849,0-1.207.391-1.207.814,0,.311.132.668.88.733l1.337.13c1.679.163,2.526,1.061,2.526,2.493,0,1.875-1.6,2.771-3.6,2.771" transform="translate(24.339 12.181)" fill="#050606"/>
      <path id="Trazado_60746" data-name="Trazado 60746" d="M29.834,13.717a3.116,3.116,0,0,1-4.471,0,3.189,3.189,0,0,1-.946-2.253,3.106,3.106,0,0,1,.946-2.281,2.841,2.841,0,0,1,2.224-.918,2.946,2.946,0,0,1,2.275.918,3.219,3.219,0,0,1-.027,4.534m2.03-6.565A5.859,5.859,0,0,0,27.586,5.37a5.692,5.692,0,0,0-4.223,1.781,5.884,5.884,0,0,0-1.779,4.312,5.773,5.773,0,0,0,1.779,4.283,5.7,5.7,0,0,0,4.223,1.809,6.075,6.075,0,0,0,6.028-6.092,5.973,5.973,0,0,0-1.75-4.312" transform="translate(17.889 4.451)" fill="#d60812"/>
      <path id="Trazado_60747" data-name="Trazado 60747" d="M7.443,3.743a6.829,6.829,0,0,0-5.251,2.2A7.2,7.2,0,0,0,0,11.254,7.316,7.316,0,0,0,2.193,16.6a7.109,7.109,0,0,0,5.251,2.169,7.234,7.234,0,0,0,4.528-1.531,7.547,7.547,0,0,0,2.612-3.978H11.555a5.2,5.2,0,0,1-1.639,1.918,4.628,4.628,0,0,1-2.473.724,4.435,4.435,0,0,1-3.25-1.364A4.321,4.321,0,0,1,2.86,11.254,4.33,4.33,0,0,1,4.193,7.972a4.509,4.509,0,0,1,5.722-.611,4.992,4.992,0,0,1,1.639,1.918h3.029A7.437,7.437,0,0,0,11.971,5.3,6.948,6.948,0,0,0,7.443,3.743" transform="translate(0 3.102)" fill="#d60812"/>
      <path id="Trazado_60748" data-name="Trazado 60748" d="M17.647,11.892l.556-.3v1.167a2.435,2.435,0,0,1-.807,2.085,3.035,3.035,0,0,1-1.807.583,1.588,1.588,0,0,1-1.026-.331,1.443,1.443,0,0,1-.417-1.141,1.447,1.447,0,0,1,.695-1.309,3.8,3.8,0,0,1,1.361-.388ZM16.425,5.356c-1.944-.027-3.307.5-4.084,1.531a4.592,4.592,0,0,0-.834,2.533H14.4a1.858,1.858,0,0,1,.415-1.057A1.718,1.718,0,0,1,16.343,7.8a2.537,2.537,0,0,1,1.414.276,1.047,1.047,0,0,1,.5.977.96.96,0,0,1-.666.891l-2.226.358a7,7,0,0,0-2.5.753,3.269,3.269,0,0,0-1.58,3.146,3.1,3.1,0,0,0,.969,2.474,3.719,3.719,0,0,0,2.363.807,5.644,5.644,0,0,0,3.722-1.2v1.2h2.891V8.973a2.981,2.981,0,0,0-1.447-2.866,6.733,6.733,0,0,0-3.361-.752" transform="translate(9.354 4.437)" fill="#d60812"/>
      <rect id="Rectángulo_22420" data-name="Rectángulo 22420" width="2.89" height="15.078" transform="translate(16.055 6.846)" fill="#d60812"/>
      <path id="Trazado_60749" data-name="Trazado 60749" d="M22.591,5.749a4.612,4.612,0,0,0-2.056,1.639V5.914l-2.749-.026V17.461h2.86V11.925a4.122,4.122,0,0,1,.364-2.032,2.682,2.682,0,0,1,1-1.112,2.794,2.794,0,0,1,1.582-.5l.889.059-.027-2.952-.75.057Z" transform="translate(14.742 4.463)" fill="#d60812"/>
      <rect id="Rectángulo_22421" data-name="Rectángulo 22421" width="9.868" height="2.594" transform="translate(50.169 8.432) rotate(-45.032)" fill="#d60812"/>
      <rect id="Rectángulo_22422" data-name="Rectángulo 22422" width="2.584" height="7.485" transform="translate(44.53)" fill="#d60812"/>
      <rect id="Rectángulo_22423" data-name="Rectángulo 22423" width="7.64" height="2.587" transform="translate(53.281 13.161)" fill="#d60812"/>
    </g>
  </g>
</svg>
