<svg xmlns="http://www.w3.org/2000/svg" width="75.373" height="22.175" viewBox="0 0 75.373 22.175">
  <g id="_272_Exa_TV_Color" data-name="272 Exa TV Color" transform="translate(0 0)">
    <g id="Grupo_21297" data-name="Grupo 21297" transform="translate(0 0)">
      <g id="Grupo_21296" data-name="Grupo 21296">
        <path id="Trazado_45221" data-name="Trazado 45221" d="M11.065,14.49a3.48,3.48,0,0,1-2.656-1.023h4.775A7.663,7.663,0,0,0,18.074,12.2a4.9,4.9,0,0,0,1.657-3.973,5.261,5.261,0,0,0-2.444-4.1,10.416,10.416,0,0,0-6.223-1.757,9.9,9.9,0,0,0-6.842,2.4A7.547,7.547,0,0,0,1.647,11.11a8.216,8.216,0,0,0,2.945,5.941,9.756,9.756,0,0,0,6.472,2.614c1.154.076,4.628,0,4.628,0l4.186-5.247S13.267,14.441,11.065,14.49Zm-.086-7.071a3.75,3.75,0,0,1,1.8.375c.643.349,1.1,1.639-.658,1.659H7.384A3.8,3.8,0,0,1,10.979,7.419Z" transform="translate(-1.634 -0.01)" fill="#1a1818"/>
        <path id="Trazado_45222" data-name="Trazado 45222" d="M40.708,11.027a9.111,9.111,0,0,0-.113-1.058l-4.015.02,1.328-4.766c-.047-.046-.1-.091-.145-.137A9.746,9.746,0,0,0,31.29,2.474c-1.154-.078-4.628,0-4.628,0L22.477,7.723s6.611-.027,8.813-.076a3.489,3.489,0,0,1,2.656,1.024H29.172a7.663,7.663,0,0,0-4.891,1.271,4.9,4.9,0,0,0-1.657,3.973,5.261,5.261,0,0,0,2.444,4.1,10.416,10.416,0,0,0,6.223,1.757,9.894,9.894,0,0,0,6.842-2.4A7.547,7.547,0,0,0,40.708,11.027Zm-9.331,3.691a3.731,3.731,0,0,1-1.8-.375c-.643-.349-1.1-1.637.658-1.659h4.732A3.792,3.792,0,0,1,31.376,14.718Z" transform="translate(12.699 0.039)" fill="#1a1818"/>
        <path id="Trazado_45223" data-name="Trazado 45223" d="M35.382.971H27.6L22.389,7.537l-3.4-4.114-7.22.022,7.163,8.441L10,23.146h7.459l5.383-6.659,3.708,4.37h6.84L26.273,12.24Z" transform="translate(4.116 -0.971)" fill="#1a1818"/>
      </g>
      <path id="Trazado_45224" data-name="Trazado 45224" d="M50.859,3.544l-4.552,7.339-.13-7.214-4.552-.009V3.67H33.378l-1.058,3.8h4.231L33.725,17.526h4.648L41.3,7.4h.5l.472,10.128h4.823L55.905,3.544Z" transform="translate(19.468 0.799)" fill="#ff4d0f"/>
    </g>
  </g>
</svg>
