<svg xmlns="http://www.w3.org/2000/svg" xmlns:xlink="http://www.w3.org/1999/xlink" width="42.005" height="53.077" viewBox="0 0 42.005 53.077">
  <defs>
    <clipPath id="clip-path">
      <rect id="Rectángulo_28905" data-name="Rectángulo 28905" width="42.005" height="53.077" fill="none"/>
    </clipPath>
  </defs>
  <g id="Grupo_50664" data-name="Grupo 50664" clip-path="url(#clip-path)">
    <path id="Trazado_108895" data-name="Trazado 108895" d="M12.723,0a.337.337,0,0,0,.282.187A8.053,8.053,0,0,1,18.86,4.52a7.97,7.97,0,0,1,.9,4.516,8.075,8.075,0,0,1-2.346,5.134,8.172,8.172,0,0,1-4.524,2.4,7.946,7.946,0,0,1-4.607-.5,8.222,8.222,0,0,1-4.34-3.993A7.962,7.962,0,0,1,3.13,7.43,8.335,8.335,0,0,1,4.778,3.288,7.979,7.979,0,0,1,9.908.168c.111-.019.16-.061.164-.168Z" transform="translate(8.621 0)" fill="#0078c1"/>
    <path id="Trazado_108896" data-name="Trazado 108896" d="M18.376,12.31c0,2.376-.008,4.749.008,7.125,0,.332-.069.435-.423.435q-7.123-.023-14.25,0c-.381,0-.439-.126-.439-.462q.017-7.083,0-14.158c0-.37.076-.484.469-.484q7.077.023,14.158,0c.423,0,.488.133.484.511-.015,2.346-.008,4.688-.008,7.033" transform="translate(9.208 13.412)" fill="#dd1a39"/>
    <path id="Trazado_108897" data-name="Trazado 108897" d="M6.6,13.16c-.481.736-.946,1.453-1.411,2.17-.339.523-.336.523-.683,0-.469-.706-.938-1.411-1.415-2.121-.118.061-.057.179-.057.263,0,1.1-.011,2.2,0,3.307,0,.256-.038.37-.328.355-.435-.027-.87-.015-1.3,0-.179,0-.278-.019-.275-.24q.011-3.25,0-6.5c0-.183.053-.248.24-.244.526.011,1.049.011,1.575,0a.46.46,0,0,1,.416.286c.435.713.877,1.423,1.3,2.144.133.221.206.3.374.019.454-.763.938-1.507,1.392-2.269a.331.331,0,0,1,.336-.179c.5.008,1,.011,1.5,0,.24-.008.336.046.332.317q-.017,3.17,0,6.343c0,.244-.05.339-.313.324-.435-.019-.873-.019-1.308,0-.24.011-.3-.061-.3-.3.011-1.091.008-2.178,0-3.269A.524.524,0,0,0,6.6,13.16" transform="translate(3.171 28.563)" fill="#0f0e0e"/>
    <path id="Trazado_108898" data-name="Trazado 108898" d="M13.973,13.92c0-1.179.011-2.25-.008-3.322-.008-.324.053-.465.412-.431a10.149,10.149,0,0,0,1.228,0c.225-.008.278.072.278.286,0,2.117-.008,4.234,0,6.347,0,.275-.092.347-.355.351-1.381.019-1.373.019-2.277-1.19-.652-.866-1.327-1.713-2.06-2.655V14c0,.923-.008,1.85,0,2.773,0,.271-.057.4-.359.381-.423-.023-.847-.015-1.27,0-.21.008-.286-.05-.286-.275q.011-3.21,0-6.423c0-.221.065-.3.282-.286a2.907,2.907,0,0,0,.729,0c.633-.122.965.233,1.3.687.751,1.011,1.541,1.991,2.38,3.067" transform="translate(26.121 28.543)" fill="#0f0e0e"/>
    <path id="Trazado_108899" data-name="Trazado 108899" d="M12.126,14.754c0,.412-.015.82.008,1.232a.535.535,0,0,1-.236.484,4.486,4.486,0,0,1-4.9.3,3.292,3.292,0,0,1-1.652-2.838,3.485,3.485,0,0,1,1.518-3.147,4.267,4.267,0,0,1,4.768.118c.2.153.248.256.088.446-.263.309-.523.622-.774.938-.137.168-.259.118-.389.011a2.2,2.2,0,0,0-1.182-.473A1.929,1.929,0,0,0,7.42,14.514,1.966,1.966,0,0,0,10.1,15.536a.894.894,0,0,0,.248-.931c-.065-.084-.164-.053-.252-.053-.309,0-.614-.011-.923,0-.172.008-.236-.053-.214-.221v-.038c.008-.37-.126-.851.057-1.079s.7-.061,1.064-.072c.587-.011,1.179,0,1.77-.008.21,0,.294.05.282.275-.015.45,0,.9,0,1.346" transform="translate(15.019 28.468)" fill="#0b0c0c"/>
    <path id="Trazado_108900" data-name="Trazado 108900" d="M7.468,13.625c0-1.053.008-2.1-.008-3.154,0-.256.069-.324.32-.32q2.5.011,5,0c.248,0,.339.057.32.317a7.28,7.28,0,0,0,0,1c.023.286-.088.336-.347.332-1.011-.011-2.025,0-3.04-.011-.275,0-.374.053-.366.355.023.687,0,.687.675.687.732,0,1.465.008,2.193,0,.217-.008.294.057.282.278q-.023.481,0,.961c.011.248-.076.339-.328.336-.847-.011-1.693,0-2.54,0-.072,0-.206-.027-.214-.008a2.258,2.258,0,0,0-.042.984c.015.214.244.137.385.137,1.011,0,2.025.011,3.036,0,.282,0,.408.076.374.37-.046.4.175.919-.1,1.179-.252.244-.759.069-1.152.072-1.358.008-2.716-.008-4.077.011-.313,0-.389-.1-.385-.4.019-1.037.008-2.079.008-3.116" transform="translate(20.993 28.564)" fill="#0f0e0e"/>
    <path id="Trazado_108901" data-name="Trazado 108901" d="M3.262,17.178c.317-.77.614-1.5.919-2.216.645-1.518,1.3-3.028,1.934-4.55a.37.37,0,0,1,.42-.271,8.986,8.986,0,0,0,1.156,0c.328-.034.458.133.561.389.4.961.793,1.922,1.2,2.88.469,1.121.95,2.239,1.423,3.364.168.4.164.408-.267.408H9.723c-.759,0-.79.008-1.018-.729a.645.645,0,0,0-.782-.542c-.626.046-1.255.019-1.884.008a.346.346,0,0,0-.389.271c-.114.332-.179.77-.423.942s-.667.046-1.011.05H3.262m3.86-4.771c-.278.713-.523,1.343-.778,2.006H7.7c.111,0,.252.027.168-.175-.24-.58-.473-1.163-.744-1.831" transform="translate(9.18 28.516)" fill="#0b0c0c"/>
    <path id="Trazado_108902" data-name="Trazado 108902" d="M2.1,13.647c0,1.06-.008,2.124,0,3.189,0,.225-.042.313-.29.3-.446-.023-.9-.015-1.343,0-.206.008-.256-.061-.256-.259q.011-3.227,0-6.454c0-.229.08-.278.286-.271.439.011.873.019,1.308,0,.244-.011.3.08.294.309-.011,1.064,0,2.124,0,3.189" transform="translate(0.608 28.56)" fill="#0b0c0c"/>
    <path id="Trazado_108903" data-name="Trazado 108903" d="M10.852,17.528a2.391,2.391,0,0,1-2.479-2.456,2.415,2.415,0,0,1,2.472-2.445,2.411,2.411,0,0,1,2.51,2.445,2.443,2.443,0,0,1-2.5,2.456m1.6-2.456a1.62,1.62,0,0,0-1.579-1.7,1.587,1.587,0,0,0-1.648,1.7,1.583,1.583,0,0,0,1.6,1.728,1.542,1.542,0,0,0,1.625-1.735" transform="translate(23.559 35.534)" fill="#131313"/>
    <path id="Trazado_108904" data-name="Trazado 108904" d="M10.674,14.124v2.334a4.836,4.836,0,0,0,0,.576c.042.313-.057.423-.389.408-.267-.011-.378-.046-.374-.355.019-1.343.008-2.689.011-4.035,0-.137-.072-.362.145-.374s.477-.137.671.114c.679.885,1.365,1.758,2.052,2.639l.4.511c.133-.065.069-.183.069-.267,0-.912.023-1.823-.008-2.731-.008-.351.195-.282.389-.282s.4-.08.389.275c-.019,1.358,0,2.716-.011,4.073,0,.137.1.366-.092.4-.229.038-.5.126-.706-.133-.782-1.026-1.575-2.044-2.361-3.067-.031-.038-.046-.1-.187-.084" transform="translate(27.902 35.563)" fill="#0f0e0e"/>
    <path id="Trazado_108905" data-name="Trazado 108905" d="M3.606,15.053c0-.694.008-1.385,0-2.075-.008-.252.069-.336.328-.336.957.015,1.922.019,2.883,0,.29-.008.309.13.282.339-.019.187.118.45-.278.435-.7-.027-1.4,0-2.109-.011-.248-.008-.3.072-.3.3,0,.946-.008.946.919.946.408,0,.816.023,1.228-.008.351-.023.278.2.286.393,0,.214.031.4-.3.385-.6-.027-1.205,0-1.808-.015-.236,0-.351.042-.324.313.046.324-.133.763.084.95.179.164.6.053.923.057.488,0,.973.019,1.465-.008.286-.015.309.118.29.339-.011.183.057.374-.267.366-1.015-.023-2.025-.015-3.036,0-.24,0-.275-.1-.267-.3,0-.69,0-1.385,0-2.075" transform="translate(10.133 35.576)" fill="#0f0e0e"/>
    <path id="Trazado_108906" data-name="Trazado 108906" d="M1.253,15.053c0-.694.008-1.385,0-2.079-.008-.252.084-.332.332-.328.961.011,1.926.019,2.887,0,.336-.008.3.175.294.381s.053.408-.294.393c-.69-.023-1.385.008-2.075-.011-.263-.008-.313.076-.313.32,0,.927,0,.927.931.927.412,0,.824.015,1.232,0,.351-.019.233.225.236.385s.1.4-.244.385c-.614-.019-1.228,0-1.846-.008-.214,0-.332.019-.309.282.031.328-.1.763.061.965s.626.057.954.065c.488.015.976.023,1.465,0,.29-.011.263.156.256.336s.065.378-.263.37c-1.011-.019-2.025-.015-3.04,0-.236,0-.267-.1-.263-.294.011-.694,0-1.385,0-2.079" transform="translate(3.515 35.576)" fill="#131313"/>
    <path id="Trazado_108907" data-name="Trazado 108907" d="M8.6,17.513a3.191,3.191,0,0,1-1.777-.576c-.259-.183-.122-.278,0-.4s.153-.458.477-.2a1.788,1.788,0,0,0,1.659.416c.248-.069.469-.187.5-.5a.578.578,0,0,0-.431-.641c-.45-.168-.931-.221-1.377-.416a1.2,1.2,0,0,1-.862-1.285,1.44,1.44,0,0,1,1.137-1.224,2.713,2.713,0,0,1,1.93.336c.172.1.339.225.122.435-.141.13-.153.462-.515.225a1.547,1.547,0,0,0-1.518-.221.5.5,0,0,0-.336.5.487.487,0,0,0,.359.484c.416.137.843.248,1.255.4.858.32,1.179.778,1.064,1.476a1.532,1.532,0,0,1-1.6,1.186Z" transform="translate(18.794 35.553)" fill="#131313"/>
    <path id="Trazado_108908" data-name="Trazado 108908" d="M4.718,12.655a3.583,3.583,0,0,0,.458,0c.336-.042.5.1.614.42.4,1.079.835,2.144,1.289,3.288.313-.79.6-1.514.881-2.239a10.873,10.873,0,0,0,.412-1.06.479.479,0,0,1,.606-.408,3,3,0,0,0,.42,0c-.252.641-.488,1.24-.732,1.835-.362.877-.732,1.755-1.095,2.632-.088.214-.156.4-.465.385a.508.508,0,0,1-.538-.362c-.591-1.484-1.213-2.952-1.85-4.489" transform="translate(13.277 35.572)" fill="#131313"/>
    <path id="Trazado_108909" data-name="Trazado 108909" d="M1.546,15.381c0-.564-.015-1.129.008-1.69.008-.248-.076-.305-.305-.29-.32.019-.641-.008-.961.008-.214.011-.32-.057-.278-.278.031-.187-.13-.484.248-.484,1.14,0,2.277,0,3.417,0,.381,0,.206.305.24.488.046.221-.061.286-.275.275-.309-.015-.618.023-.923-.011s-.347.092-.343.362c.015,1.1-.011,2.2.015,3.307.008.339-.137.366-.4.351-.24-.015-.481.057-.454-.347.038-.561.011-1.125.011-1.69" transform="translate(-0.001 35.58)" fill="#131313"/>
    <path id="Trazado_108910" data-name="Trazado 108910" d="M2.485,15.074c0-.706.015-1.411-.008-2.117-.011-.4.252-.294.465-.309s.385-.031.381.3c-.023,1.129,0,2.258-.015,3.387,0,.275.076.339.339.332.629-.023,1.259.008,1.884-.015.381-.011.309.233.328.458.027.267-.084.32-.324.317q-1.367-.017-2.731,0c-.244,0-.336-.046-.328-.313.019-.679.008-1.358.008-2.037" transform="translate(6.97 35.575)" fill="#131313"/>
    <path id="Trazado_108911" data-name="Trazado 108911" d="M8.715,15.043c0,.706-.019,1.407.008,2.109.011.332-.187.286-.366.259s-.462.16-.458-.244q.017-2.111,0-4.222c0-.439.309-.256.511-.294.221-.038.317.027.309.282-.019.7-.008,1.407-.008,2.109" transform="translate(22.229 35.575)" fill="#0b0c0c"/>
    <path id="Trazado_108912" data-name="Trazado 108912" d="M6.984,15.087c0,.679-.019,1.358.008,2.037.019.378-.217.286-.416.29s-.423.069-.416-.3c.019-1.385.015-2.769,0-4.15,0-.347.195-.317.423-.324s.42-.008.408.332c-.023.7-.008,1.407-.008,2.113" transform="translate(17.335 35.576)" fill="#0b0c0c"/>
    <path id="Trazado_108913" data-name="Trazado 108913" d="M9.406,13.21c-.149-.015-.389.019-.427-.053-.084-.16.149-.256.21-.4.2-.469.6-.507,1.034-.45.1.011.221-.023.156.156a1.283,1.283,0,0,1-.973.748" transform="translate(25.218 34.574)" fill="#131313"/>
  </g>
</svg>
