<svg id="Grupo_50663" data-name="Grupo 50663" xmlns="http://www.w3.org/2000/svg" width="65.683" height="15.963" viewBox="0 0 65.683 15.963">
  <g id="mvs_tv_color" data-name="mvs tv color" transform="translate(0 0)">
    <g id="Grupo_21299" data-name="Grupo 21299" transform="translate(0 0)">
      <path id="Trazado_45225" data-name="Trazado 45225" d="M43.326,7.826a5.362,5.362,0,0,0-1.3-.938,11.13,11.13,0,0,0-1.742-.725,6.455,6.455,0,0,1-1.19-.49.729.729,0,0,1-.4-.661.839.839,0,0,1,.48-.789,2.252,2.252,0,0,1,1.077-.256h.013a4.772,4.772,0,0,1,1.973.468,4.9,4.9,0,0,1,1.447,1.012l2-3.57a4.347,4.347,0,0,0-1-.768,7.827,7.827,0,0,0-1.3-.586A9.638,9.638,0,0,0,41.893.139,9.233,9.233,0,0,0,40.293,0a8.361,8.361,0,0,0-2.7.416,7.082,7.082,0,0,0-1.331.605L36.6.428H30.864L26.284,9.974H26.2L25.51.428H14.427L10.471,8.77h-.108L9.03.428H2.687L0,15.65H4.644L5.956,6.835h.107L7.418,15.65h3.5l4.494-8.815h.129l-1.7,8.815h4.838L20.7,4.216,22.35,15.65H27.9L33.642,5.606a3.907,3.907,0,0,0,.3,1.506,3.435,3.435,0,0,0,.821,1.152A4.988,4.988,0,0,0,36,9.085a11.739,11.739,0,0,0,1.525.6,4.643,4.643,0,0,1,1.4.618.865.865,0,0,1,.373.683.774.774,0,0,1-.448.714,2.491,2.491,0,0,1-1.194.245,3.256,3.256,0,0,1-.746-.1q-.244-.058-.484-.139h0a4.966,4.966,0,0,1-1.217-.627A4.7,4.7,0,0,1,33.76,9.5l-2.269,4.061A7.983,7.983,0,0,0,37.2,15.942h.028q.222.009.444.009a9.523,9.523,0,0,0,2.321-.3,7.2,7.2,0,0,0,2.178-.938,5.274,5.274,0,0,0,1.625-1.664,4.59,4.59,0,0,0,.637-2.473,3.93,3.93,0,0,0-.287-1.535,3.8,3.8,0,0,0-.818-1.216" transform="translate(0 0)" fill="#002d5e"/>
      <path id="Trazado_45226" data-name="Trazado 45226" d="M245.247,11.66l-2.739,6.458h-.082l-.412-6.458h-5.808l.345-2.105h-3.907l-2.932,5.2h1.606l-.8,4.765q-.041.266-.072.577t-.031.555a3.05,3.05,0,0,0,.319,1.487,2.494,2.494,0,0,0,.834.91,3.367,3.367,0,0,0,1.174.466,6.738,6.738,0,0,0,1.339.133,8.189,8.189,0,0,0,1.318-.111,2.609,2.609,0,0,0,.947-.289l.556-3.418c-.11.03-.247.059-.412.089a2.751,2.751,0,0,1-.494.045,1.15,1.15,0,0,1-.669-.167.783.783,0,0,1-.237-.677c0-.074,0-.17.01-.289s.017-.222.031-.311l.632-3.766h1.871l1.348,8.582h5.025l6.344-11.674Z" transform="translate(-184.671 -7.682)" fill="#29cbb9"/>
    </g>
  </g>
</svg>
