<svg xmlns="http://www.w3.org/2000/svg" width="47.75" height="51.243" viewBox="0 0 47.75 51.243">
  <g id="romancechannel_Romance" transform="translate(-77.627 -14.597)">
    <path id="Trazado_65438" data-name="Trazado 65438" d="M88.738,45.583a1.278,1.278,0,0,0-.456-.643,15.813,15.813,0,0,1-5.154-9.078,7.673,7.673,0,0,1,.45-5.23A2.863,2.863,0,0,1,87,29.143a6.281,6.281,0,0,1,3.195,2.38,11.615,11.615,0,0,1,1.347,2.13c.114.222.206.52.51.51.352-.01.4-.349.5-.6.057-.143.1-.288.155-.431a26.46,26.46,0,0,1,3.683-7.024c2.97-3.965,6.675-6.767,11.759-7.4a8.481,8.481,0,0,1,9.572,6.086,15.881,15.881,0,0,1-2.317,13.721,13.266,13.266,0,0,1-9.6,6.3,7.444,7.444,0,0,1-7.407-3.6c-.532-.954-.5-1.027.555-1.322a27.466,27.466,0,0,0,9.918-4.811,9.815,9.815,0,0,0,3.965-5.9c.542-2.951-1.106-4.9-4.1-4.862a7.836,7.836,0,0,0-2.4.412,15.4,15.4,0,0,0-5.7,3.635c-4.853,4.659-7.867,10.418-9.911,16.748a1.949,1.949,0,0,0-.086.45.455.455,0,0,0,.241.517.418.418,0,0,0,.529-.2,7.446,7.446,0,0,0,.5-.941,49.862,49.862,0,0,1,10.6-15.334,13.623,13.623,0,0,1,5.173-3.458,2.659,2.659,0,0,1,3,.447c.862.941.631,2.038.178,3.087a6.985,6.985,0,0,1-.726,1.255,13.277,13.277,0,0,1-2.1,2.323,28.277,28.277,0,0,1-10.393,5.693c-.919.282-1.084.561-.754,1.458a8.353,8.353,0,0,0,6.589,5.743,11.919,11.919,0,0,0,8.241-1.6,17.984,17.984,0,0,0,8.707-18.133c-.907-6.323-5.873-10.111-12.485-9.337a16.6,16.6,0,0,0-10.428,5.743,26.456,26.456,0,0,0-5.246,8.824c-.076.206-.092.526-.345.555s-.307-.3-.412-.485a10.072,10.072,0,0,0-2.361-2.884,4.6,4.6,0,0,0-7.585,2.257,8.525,8.525,0,0,0-.184,4.092c.78,4.368,3.35,7.578,6.754,10.222.165.127.342.336.609.181ZM108.68,14.626a17.238,17.238,0,0,0-6.539.96C96.966,17.5,93.783,21.33,91.863,26.347c-.491,1.284-.38,1.357-1.452.39a7.659,7.659,0,0,0-8.789-1.376c-2.878,1.525-4.238,5.043-3.959,8.45a14.309,14.309,0,0,0,3.93,8.526,6.581,6.581,0,0,0,1.312,1.309,1.027,1.027,0,0,0-.38-.653A17.452,17.452,0,0,1,78.709,35.5a10.1,10.1,0,0,1,.723-6.789,6.156,6.156,0,0,1,7.17-3.483,8.121,8.121,0,0,1,4.165,2.441c.713.739.7.748,1.065-.193.038-.1.073-.19.111-.285,2.25-5.439,5.892-9.49,11.54-11.534a21.077,21.077,0,0,1,5.2-1.03Zm14.9,15.363c-.973,7.093-3.784,13.03-10.437,16.558,6.707-2.406,10.39-9.033,10.437-16.558Z" transform="translate(0 0)" fill="#e50060"/>
    <path id="Trazado_65439" data-name="Trazado 65439" d="M84.925,139.613H82.89l-1.759-2.371h-.773v2.371H78.7V133.15h2.8a6.286,6.286,0,0,1,.986.067,2.126,2.126,0,0,1,.773.282,1.7,1.7,0,0,1,.58.561,1.614,1.614,0,0,1,.216.865,1.912,1.912,0,0,1-.333,1.166,2.521,2.521,0,0,1-.948.751l2.158,2.77Zm-2.6-4.485a.814.814,0,0,0-.1-.415.676.676,0,0,0-.342-.273,1.3,1.3,0,0,0-.4-.086c-.152-.01-.326-.016-.526-.016h-.6v1.74h.513a4.917,4.917,0,0,0,.669-.038.943.943,0,0,0,.45-.177.886.886,0,0,0,.254-.3.99.99,0,0,0,.079-.437Z" transform="translate(-0.733 -80.977)" fill="#e50060"/>
    <path id="Trazado_65440" data-name="Trazado 65440" d="M105.559,136.089a3.379,3.379,0,0,1-.884,2.456,3.741,3.741,0,0,1-4.891,0,3.863,3.863,0,0,1,0-4.919,3.747,3.747,0,0,1,4.887,0,3.364,3.364,0,0,1,.891,2.463Zm-2.209,1.635a1.946,1.946,0,0,0,.361-.7,3.344,3.344,0,0,0,.117-.945,3.218,3.218,0,0,0-.133-.989,1.88,1.88,0,0,0-.352-.659,1.292,1.292,0,0,0-.51-.377,1.609,1.609,0,0,0-1.2,0,1.388,1.388,0,0,0-.513.374,1.834,1.834,0,0,0-.355.672,3.236,3.236,0,0,0-.136.992,3.2,3.2,0,0,0,.133.983,2.009,2.009,0,0,0,.349.662,1.322,1.322,0,0,0,.507.377,1.594,1.594,0,0,0,1.223,0,1.316,1.316,0,0,0,.507-.384Z" transform="translate(-14.53 -80.683)" fill="#e50060"/>
    <path id="Trazado_65441" data-name="Trazado 65441" d="M130.146,139.613h-1.658v-4.33l-1.2,2.808H126.14l-1.2-2.808v4.33H123.37V133.15h1.937l1.455,3.242,1.452-3.242h1.937v6.463Z" transform="translate(-31.244 -80.977)" fill="#e50060"/>
    <path id="Trazado_65442" data-name="Trazado 65442" d="M153.814,139.613h-1.721l-.45-1.306H149.25l-.45,1.306h-1.68l2.387-6.463h1.918l2.387,6.463Zm-2.574-2.491-.8-2.317-.8,2.317Z" transform="translate(-47.467 -80.977)" fill="#e50060"/>
    <path id="Trazado_65443" data-name="Trazado 65443" d="M176.48,139.613h-1.607l-2.745-4.437v4.437H170.6V133.15h1.994l2.358,3.7v-3.7h1.528Z" transform="translate(-63.504 -80.977)" fill="#e50060"/>
    <path id="Trazado_65444" data-name="Trazado 65444" d="M195.9,139.466a3.988,3.988,0,0,1-1.331-.212,2.753,2.753,0,0,1-1.727-1.683,4.092,4.092,0,0,1-.241-1.455,3.973,3.973,0,0,1,.231-1.395,2.981,2.981,0,0,1,.669-1.071,2.89,2.89,0,0,1,1.043-.666,3.852,3.852,0,0,1,1.36-.235,5.7,5.7,0,0,1,.735.044,4.994,4.994,0,0,1,.605.12,4.223,4.223,0,0,1,.526.184c.158.067.295.13.415.19v1.566h-.19c-.082-.07-.184-.152-.307-.247a4.781,4.781,0,0,0-.418-.282,2.848,2.848,0,0,0-.517-.235,1.821,1.821,0,0,0-.6-.1,2.042,2.042,0,0,0-.669.111,1.613,1.613,0,0,0-.586.368,1.836,1.836,0,0,0-.415.653,2.764,2.764,0,0,0-.158.989,2.694,2.694,0,0,0,.171,1.014,1.735,1.735,0,0,0,.431.64,1.582,1.582,0,0,0,.59.339,2.2,2.2,0,0,0,.643.1,2.025,2.025,0,0,0,.6-.092,2.32,2.32,0,0,0,.548-.247,3.6,3.6,0,0,0,.4-.266c.124-.1.222-.178.3-.247h.174v1.547c-.162.073-.317.139-.466.2a4.035,4.035,0,0,1-.466.165,5.67,5.67,0,0,1-.6.139,4.764,4.764,0,0,1-.764.048Z" transform="translate(-78.531 -80.704)" fill="#e50060"/>
    <path id="Trazado_65445" data-name="Trazado 65445" d="M218.205,139.613H213.53V133.15h4.675V134.4h-3.017v1.116h2.8v1.252h-2.8v1.6h3.017Z" transform="translate(-92.828 -80.977)" fill="#e50060"/>
    <path id="Trazado_65446" data-name="Trazado 65446" d="M116.135,168.061c-.086.038-.165.073-.238.108a2.241,2.241,0,0,1-.276.1,2.164,2.164,0,0,1-.314.076,2.226,2.226,0,0,1-.374.032,2.1,2.1,0,0,1-.7-.108,1.392,1.392,0,0,1-.545-.339,1.535,1.535,0,0,1-.355-.574,2.326,2.326,0,0,1-.127-.808,2.287,2.287,0,0,1,.124-.78,1.582,1.582,0,0,1,.355-.58,1.526,1.526,0,0,1,.545-.352,2.017,2.017,0,0,1,.707-.12,2.3,2.3,0,0,1,.567.07,3.006,3.006,0,0,1,.631.241v.558H116.1a2.045,2.045,0,0,0-.58-.355,1.721,1.721,0,0,0-.615-.111,1.292,1.292,0,0,0-.482.086,1.046,1.046,0,0,0-.384.269,1.237,1.237,0,0,0-.254.45,1.983,1.983,0,0,0-.092.628,1.872,1.872,0,0,0,.1.64,1.335,1.335,0,0,0,.26.437,1.055,1.055,0,0,0,.387.26,1.3,1.3,0,0,0,.469.086,1.682,1.682,0,0,0,.634-.117,1.791,1.791,0,0,0,.555-.349h.035v.551Z" transform="translate(-24.304 -102.541)" fill="#e50060"/>
    <path id="Trazado_65447" data-name="Trazado 65447" d="M127.24,168.451h-.469V166.72h-1.762v1.731h-.469V164.92h.469v1.385h1.762V164.92h.469Z" transform="translate(-32.043 -102.677)" fill="#e50060"/>
    <path id="Trazado_65448" data-name="Trazado 65448" d="M137.945,168.451h-.5l-.345-.986h-1.528l-.346.986h-.475l1.287-3.531h.628l1.284,3.531Zm-.992-1.388-.618-1.734-.621,1.734Z" transform="translate(-39.017 -102.677)" fill="#e50060"/>
    <path id="Trazado_65449" data-name="Trazado 65449" d="M149.231,168.451h-.58l-1.674-3.16v3.16h-.437V164.92h.729L148.8,167.8V164.92h.437v3.531Z" transform="translate(-47.07 -102.677)" fill="#e50060"/>
    <path id="Trazado_65450" data-name="Trazado 65450" d="M160.691,168.451h-.58l-1.674-3.16v3.16H158V164.92h.729l1.528,2.884V164.92h.437v3.531Z" transform="translate(-54.898 -102.677)" fill="#e50060"/>
    <path id="Trazado_65451" data-name="Trazado 65451" d="M171.776,168.451H169.45V164.92h2.326v.418h-1.857v.967h1.857v.418h-1.857v1.312h1.857v.418Z" transform="translate(-62.719 -102.677)" fill="#e50060"/>
    <path id="Trazado_65452" data-name="Trazado 65452" d="M181.375,168.451H179.14V164.92h.469v3.116h1.765v.418Z" transform="translate(-69.338 -102.677)" fill="#e50060"/>
  </g>
</svg>
