<svg xmlns="http://www.w3.org/2000/svg" xmlns:xlink="http://www.w3.org/1999/xlink" width="47.913" height="9" viewBox="0 0 47.913 9">
  <defs>
    <clipPath id="clip-path">
      <rect id="Rectángulo_24451" data-name="Rectángulo 24451" width="47.913" height="9" transform="translate(0 0)" fill="#e82726"/>
    </clipPath>
  </defs>
  <g id="Grupo_41452" data-name="Grupo 41452" transform="translate(0 0)">
    <g id="Grupo_41452-2" data-name="Grupo 41452" transform="translate(0 0)" clip-path="url(#clip-path)">
      <path id="Trazado_99643" data-name="Trazado 99643" d="M52.086.032s-12.44,0-13.15,0A2.123,2.123,0,0,0,36.572,1.8c-.046.391-.09.736-.09.736H54s.033-.259.058-.466C54.193,1,53.738.032,52.086.032" transform="translate(-27.148 -0.024)" fill="#e82726"/>
      <path id="Trazado_99644" data-name="Trazado 99644" d="M78.5,13.553s-.039.353-.092.739a1.555,1.555,0,0,1-1.732,1.333h-3.73l-.419,3.394h-2.97l.671-5.466Z" transform="translate(-51.759 -10.086)" fill="#e82726"/>
      <path id="Trazado_99645" data-name="Trazado 99645" d="M11.333.033l-.306,2.5H3.082l.308-2.5Z" transform="translate(-2.293 -0.025)" fill="#e82726"/>
      <path id="Trazado_99646" data-name="Trazado 99646" d="M.672,13.553H8.616l-.255,2.071H3.388l-.126,1.023H8.237l-.292,2.371H0Z" transform="translate(0 -10.086)" fill="#e82726"/>
      <path id="Trazado_99647" data-name="Trazado 99647" d="M107.635.033h6.48a1.694,1.694,0,0,1,1.875,2.119c-.038.295-.048.385-.048.385h-8.613Z" transform="translate(-79.868 -0.025)" fill="#e82726"/>
      <path id="Trazado_99648" data-name="Trazado 99648" d="M104.912,13.55h2.972l-.672,5.464-2.971,0Z" transform="translate(-77.571 -10.084)" fill="#e82726"/>
      <path id="Trazado_99649" data-name="Trazado 99649" d="M126.975,13.55h2.971l-.672,5.464-2.971,0Z" transform="translate(-93.989 -10.084)" fill="#e82726"/>
      <path id="Trazado_99650" data-name="Trazado 99650" d="M40.6,13.555l-6.526,0c-.218,1.427.5,2.072,1.508,2.072l4.02,0-.125,1.024H33.7L33.4,19.019s6.294,0,6.55,0a2.43,2.43,0,0,0,2.184-1.26,14.2,14.2,0,0,0,.347-2.087A1.7,1.7,0,0,0,40.6,13.555" transform="translate(-24.858 -10.086)" fill="#e82726"/>
      <path id="Trazado_99651" data-name="Trazado 99651" d="M157.947.016l-.429,3.492H154.83l.106-.889L155.291,0h-3l-.23,2.1-.176,1.413h0c-.218,1.426.5,2.071,1.508,2.071l3.876,0L156.844,9H159.8L160.9.016Z" transform="translate(-112.992 0)" fill="#e82726"/>
    </g>
  </g>
</svg>
