<svg id="_344_ESPN_3_Color" data-name="344 ESPN 3 Color" xmlns="http://www.w3.org/2000/svg" width="42.76" height="8.54" viewBox="0 0 42.76 8.54">
  <g id="Grupo_18141" data-name="Grupo 18141" transform="translate(0 0)">
    <path id="Trazado_39899" data-name="Trazado 39899" d="M1.173.007H8.514l-.293,2.4H.882Z" transform="translate(-0.134 -0.001)" fill="#e82726"/>
    <path id="Trazado_39900" data-name="Trazado 39900" d="M39.089,2.405H30.805l.3-2.4S35.8,0,37.32.007a1.647,1.647,0,0,1,1.816,2.025Z" transform="translate(-4.697 -0.001)" fill="#e82726"/>
    <path id="Trazado_39901" data-name="Trazado 39901" d="M30.557,3.934h2.816l-.633,5.2H29.927Z" transform="translate(-4.563 -0.6)" fill="#e82726"/>
    <path id="Trazado_39902" data-name="Trazado 39902" d="M37.011,3.934h2.816l-.633,5.2H36.381Z" transform="translate(-5.547 -0.6)" fill="#e82726"/>
    <path id="Trazado_39903" data-name="Trazado 39903" d="M.632,3.934H7.973L7.737,5.883H3.209l-.129,1H7.614L7.339,9.137H0Z" transform="translate(0 -0.6)" fill="#e82726"/>
    <path id="Trazado_39904" data-name="Trazado 39904" d="M20.5,3.934l-.638,5.2h2.815l.4-3.254h3.272a2,2,0,0,0,2.072-1.949Z" transform="translate(-3.029 -0.6)" fill="#e82726"/>
    <path id="Trazado_39905" data-name="Trazado 39905" d="M25.417,0H12.5a2.261,2.261,0,0,0-2.182,1.948l-.057.467h16.81l.058-.467A1.689,1.689,0,0,0,25.417,0Z" transform="translate(-1.564)" fill="#e82726"/>
    <path id="Trazado_39906" data-name="Trazado 39906" d="M15.642,9.137c-.163.006-6.259,0-6.259,0l.274-2.258h5.517l.119-.995h-3.6a.758.758,0,0,1-.1-.005A1.673,1.673,0,0,1,10,4.247a2.781,2.781,0,0,1,.01-.313s6.266,0,6.3,0a1.61,1.61,0,0,1,1.752,1.877l-.178,1.426A2.1,2.1,0,0,1,15.642,9.137Z" transform="translate(-1.431 -0.6)" fill="#e82726"/>
    <g id="Grupo_18140" data-name="Grupo 18140" transform="translate(35.094 0.005)">
      <path id="Trazado_39907" data-name="Trazado 39907" d="M47.239.007c-1.15,0-4.038,0-4.793,0l-.232,1.905H46.34a.281.281,0,0,1,.3.32s0,.15-.019.351a2.219,2.219,0,0,1-.063.315c-.05.162-.165.281-.48.3h-2.27l-.238,1.925h2.349c.2,0,.325.167.322.395a2.347,2.347,0,0,1,0,.311,2.5,2.5,0,0,1-.065.383.4.4,0,0,1-.39.356H41.647l-.239,1.965c.69,0,3.434,0,4.761,0a2.163,2.163,0,0,0,2.239-1.624h0a7.93,7.93,0,0,0,.208-1.331c.007-.064.015-.207.015-.207h0A1.234,1.234,0,0,0,48,4.139a1.7,1.7,0,0,0,.957-1.3,6.04,6.04,0,0,0,.106-.926h0A1.615,1.615,0,0,0,47.239.007Z" transform="translate(-41.408 -0.006)" fill="#e82726"/>
    </g>
  </g>
</svg>
