<svg xmlns="http://www.w3.org/2000/svg" width="43.249" height="8.54" viewBox="0 0 43.249 8.54">
  <g id="Grupo_18245" data-name="Grupo 18245" transform="translate(0)">
    <path id="Trazado_40210" data-name="Trazado 40210" d="M58.782,158.312l6.288-.016s1.368-.068,1.268,1.051l-.317,3.235a1.1,1.1,0,0,1-1.051.969H61.226l-.109,1.033h4.705l-.235,2.236H57.781l.483-4.037s.05-1.167,1.1-1.167h3.72l.082-1.019H58.515Z" transform="translate(-23.094 -158.296)" fill="#e82726"/>
    <path id="Trazado_40211" data-name="Trazado 40211" d="M39.128,158.313l7.29,0-.271,2.387H38.829Z" transform="translate(-38.073 -158.282)" fill="#e82726"/>
    <path id="Trazado_40212" data-name="Trazado 40212" d="M45.454,158.332c1.359,0,12.255-.014,13.07,0a1.528,1.528,0,0,1,1.5,1.527,4.419,4.419,0,0,1-.075.838l-16.7-.005s.063-.41.116-.775A2.208,2.208,0,0,1,45.454,158.332Z" transform="translate(-34.583 -158.272)" fill="#e82726"/>
    <path id="Trazado_40213" data-name="Trazado 40213" d="M53.2,158.311s4.676-.011,6.188,0a1.654,1.654,0,0,1,1.808,2.034c-.045.467-.032.374-.032.374l-8.248-.007Z" transform="translate(-26.936 -158.288)" fill="#e82726"/>
    <path id="Trazado_40214" data-name="Trazado 40214" d="M42.9,165.356l.27-2.245,5.385-.005.1-1s-3.386.009-3.932-.012c-.77-.029-1.52-.577-1.311-1.937,1.432-.014,5.778-.013,6.265-.007a1.625,1.625,0,0,1,1.744,1.894,6.806,6.806,0,0,1-.444,2.238,2,2,0,0,1-1.968,1.071C48.844,165.363,42.9,165.356,42.9,165.356Z" transform="translate(-34.859 -156.831)" fill="#e82726"/>
    <path id="Trazado_40215" data-name="Trazado 40215" d="M56.272,160.173s-.079.449-.136.741a1.3,1.3,0,0,1-1.346,1.167H50.975l-.46,3.255H47.752l.655-5.164Z" transform="translate(-31.02 -156.812)" fill="#e82726"/>
    <path id="Trazado_40216" data-name="Trazado 40216" d="M53.16,160.173h2.848l-.738,5.146-2.816,0Z" transform="translate(-27.304 -156.811)" fill="#e82726"/>
    <path id="Trazado_40217" data-name="Trazado 40217" d="M56.191,160.173h2.766l-.656,5.162H55.535Z" transform="translate(-24.87 -156.811)" fill="#e82726"/>
    <path id="Trazado_40218" data-name="Trazado 40218" d="M39.034,160.155H46.37l-.26,1.975-4.539,0-.128.966,4.539,0-.271,2.26h-7.3Z" transform="translate(-38.407 -156.826)" fill="#e82726"/>
  </g>
</svg>
