<svg id="Grupo_18225" data-name="Grupo 18225" xmlns="http://www.w3.org/2000/svg" width="34.458" height="8.54" viewBox="0 0 34.458 8.54">
  <path id="Trazado_504" data-name="Trazado 504" d="M457.307,119.9h7.342l-.293,2.4h-7.34Z" transform="translate(-456.268 -119.891)" fill="#e82726"/>
  <path id="Trazado_505" data-name="Trazado 505" d="M481.536,122.3h-8.284l.3-2.4s4.7,0,6.22,0a1.65,1.65,0,0,1,1.817,2.026Z" transform="translate(-447.141 -119.892)" fill="#e82726"/>
  <path id="Trazado_506" data-name="Trazado 506" d="M473.406,122.027h2.816l-.633,5.2h-2.814Z" transform="translate(-447.409 -118.693)" fill="#e82726"/>
  <path id="Trazado_507" data-name="Trazado 507" d="M476.908,122.027h2.816l-.633,5.2h-2.814Z" transform="translate(-445.44 -118.693)" fill="#e82726"/>
  <path id="Trazado_508" data-name="Trazado 508" d="M457.169,122.027h7.342l-.237,1.949h-4.528l-.129,1h4.534l-.275,2.258h-7.34Z" transform="translate(-456.537 -118.693)" fill="#e82726"/>
  <path id="Trazado_509" data-name="Trazado 509" d="M467.951,122.027l-.637,5.2h2.815l.4-3.254H473.8a2,2,0,0,0,2.073-1.949Z" transform="translate(-450.479 -118.693)" fill="#e82726"/>
  <path id="Trazado_510" data-name="Trazado 510" d="M477.263,119.893h-12.92a2.26,2.26,0,0,0-2.182,1.946l-.058.469h16.813l.056-.469A1.687,1.687,0,0,0,477.263,119.893Z" transform="translate(-453.408 -119.893)" fill="#e82726"/>
  <path id="Trazado_511" data-name="Trazado 511" d="M467.888,127.23c-.162.006-6.259,0-6.259,0l.273-2.257h5.519l.117-1h-3.6c-.03,0-.066,0-.1,0a1.675,1.675,0,0,1-1.592-1.634,2.625,2.625,0,0,1,.011-.312h6.3a1.61,1.61,0,0,1,1.751,1.878l-.177,1.426A2.1,2.1,0,0,1,467.888,127.23Z" transform="translate(-453.675 -118.693)" fill="#e82726"/>
</svg>
